<?xml version="1.0" encoding="UTF-8" standalone="no"?>
<!-- Created with Inkscape (http://www.inkscape.org/) -->

<svg
   xmlns:dc="http://purl.org/dc/elements/1.1/"
   xmlns:cc="http://creativecommons.org/ns#"
   xmlns:rdf="http://www.w3.org/1999/02/22-rdf-syntax-ns#"
   xmlns:svg="http://www.w3.org/2000/svg"
   xmlns="http://www.w3.org/2000/svg"
   xmlns:sodipodi="http://sodipodi.sourceforge.net/DTD/sodipodi-0.dtd"
   xmlns:inkscape="http://www.inkscape.org/namespaces/inkscape"
   width="200mm"
   height="200mm"
   viewBox="0 0 708.66142 708.66141"
   id="svg2"
   version="1.1"
   inkscape:version="0.91 r13725"
   sodipodi:docname="8456.svg">
  <defs
     id="defs4" />
  <sodipodi:namedview
     id="base"
     pagecolor="#ffffff"
     bordercolor="#666666"
     borderopacity="1.0"
     inkscape:pageopacity="0.0"
     inkscape:pageshadow="2"
     inkscape:zoom="0.76032835"
     inkscape:cx="348.92566"
     inkscape:cy="354.33071"
     inkscape:document-units="px"
     inkscape:current-layer="layer1"
     showgrid="false"
     inkscape:window-width="1280"
     inkscape:window-height="961"
     inkscape:window-x="-8"
     inkscape:window-y="-8"
     inkscape:window-maximized="1" />
  <metadata
     id="metadata7">
    <rdf:RDF>
      <cc:Work
         rdf:about="">
        <dc:format>image/svg+xml</dc:format>
        <dc:type
           rdf:resource="http://purl.org/dc/dcmitype/StillImage" />
        <dc:title />
      </cc:Work>
    </rdf:RDF>
  </metadata>
  <g
     inkscape:label="Ebene 1"
     inkscape:groupmode="layer"
     id="layer1"
     transform="translate(0,-343.70079)">
    <rect
       style="fill:#fcffff;fill-opacity:0;stroke:#000000;stroke-width:18.51795769;stroke-linejoin:bevel;stroke-miterlimit:4;stroke-dasharray:none;stroke-opacity:1"
       id="rect3336"
       width="231.48204"
       height="231.48204"
       x="241.7764"
       y="425.35361" />
    <rect
       style="fill:#fcffff;fill-opacity:0;stroke:#000000;stroke-width:18.51795769;stroke-linejoin:bevel;stroke-miterlimit:4;stroke-dasharray:none;stroke-opacity:1"
       id="rect3336-5"
       width="231.48204"
       height="231.48204"
       x="243.7997"
       y="694.82074" />
    <rect
       style="fill:#fcffff;fill-opacity:0;stroke:#000000;stroke-width:18.51795769;stroke-linejoin:bevel;stroke-miterlimit:4;stroke-dasharray:none;stroke-opacity:1"
       id="rect3336-59"
       width="231.48204"
       height="231.48204"
       x="515.67383"
       y="693.30524" />
    <rect
       style="fill:#fcffff;fill-opacity:0;stroke:#000000;stroke-width:18.51795769;stroke-linejoin:bevel;stroke-miterlimit:4;stroke-dasharray:none;stroke-opacity:1"
       id="rect3336-4"
       width="231.48204"
       height="231.48204"
       x="-27.512516"
       y="697.25098" />
    <g
       style="font-style:normal;font-variant:normal;font-weight:normal;font-stretch:normal;font-size:189.12928772px;line-height:125%;font-family:'Arial Rounded MT Bold';-inkscape-font-specification:'Arial Rounded MT Bold, ';letter-spacing:0px;word-spacing:0px;fill:#e6e6e6;fill-opacity:1;stroke:#000000;stroke-width:10;stroke-linecap:butt;stroke-linejoin:miter;stroke-miterlimit:4;stroke-dasharray:none;stroke-opacity:1"
       id="text3365">
      <path
         d="m 313.2017,508.22885 q 0,-9.23483 4.98681,-17.36148 5.07916,-8.219 14.77573,-13.11345 9.78891,-4.89446 22.81002,-4.89446 10.98945,0 19.30079,2.86279 8.31135,2.8628 13.85225,7.94196 5.54089,4.9868 8.21899,11.35883 2.6781,6.27969 2.6781,13.39051 0,9.05013 -4.70976,16.16095 -4.61741,7.11081 -13.85224,11.63588 7.8496,3.04749 13.02111,8.0343 5.1715,4.89446 7.75725,11.45119 2.6781,6.46438 2.6781,14.40633 0,11.63588 -5.63324,21.14776 -5.63325,9.41952 -16.53035,14.77572 -10.89709,5.3562 -25.67282,5.3562 -15.32981,0 -26.22691,-5.3562 -10.8971,-5.3562 -16.438,-14.68337 -5.54089,-9.41953 -5.54089,-21.05541 0,-24.84169 23.45646,-34.07652 -18.9314,-8.86544 -18.9314,-27.98153 z m 66.21372,61.13456 q 0,-7.20316 -2.95514,-12.55936 -2.95515,-5.3562 -8.31135,-8.219 -5.3562,-2.8628 -12.00527,-2.8628 -9.41953,0 -15.79156,6.27969 -6.37203,6.27968 -6.37203,17.54617 0,7.20317 2.95514,12.74406 3.0475,5.44855 8.219,8.49605 5.1715,2.95514 11.54354,2.95514 6.46438,0 11.63588,-3.04749 5.1715,-3.0475 8.12665,-8.58839 2.95514,-5.5409 2.95514,-12.74407 z m -23.08707,-78.86543 q -8.68074,0 -14.03694,5.44855 -5.26385,5.3562 -5.26385,13.85224 0,7.8496 5.44855,13.11346 5.44855,5.1715 14.03694,5.1715 4.34037,0 7.8496,-1.38522 3.60159,-1.38523 6.09499,-3.78628 2.58575,-2.49341 3.97098,-5.81794 1.38522,-3.41689 1.38522,-7.48022 0,-5.44854 -2.4934,-9.78891 -2.40106,-4.34037 -6.83378,-6.83378 -4.43271,-2.4934 -10.15831,-2.4934 z"
         style="fill:#e6e6e6;fill-opacity:1"
         id="path4155" />
    </g>
    <g
       style="font-style:normal;font-variant:normal;font-weight:normal;font-stretch:normal;font-size:189.12928772px;line-height:125%;font-family:'Arial Rounded MT Bold';-inkscape-font-specification:'Arial Rounded MT Bold, ';letter-spacing:0px;word-spacing:0px;fill:#e6e6e6;fill-opacity:1;stroke:#000000;stroke-width:10;stroke-linecap:butt;stroke-linejoin:miter;stroke-miterlimit:4;stroke-dasharray:none;stroke-opacity:1"
       id="text3369">
      <path
         d="m 84.67622,866.51951 0,-17.17678 -46.358839,0 q -8.773087,0 -13.205805,-3.97098 -4.340369,-3.97097 -4.340369,-10.80475 0,-1.75461 0.646438,-3.50923 0.646438,-1.84697 1.939314,-3.78628 1.292876,-2.03166 2.6781,-3.87863 1.385224,-1.84697 3.416887,-4.52507 l 48.944591,-65.47493 q 4.80211,-6.46438 7.849604,-9.32718 3.139842,-2.95514 7.480211,-2.95514 14.036938,0 14.036938,16.0686 l 0,71.47757 3.97098,0 q 7.11082,0 11.35884,1.93932 4.34037,1.93931 4.34037,8.49604 0,5.3562 -3.50924,7.8496 -3.50923,2.40106 -10.5277,2.40106 l -5.63325,0 0,17.17678 q 0,7.11082 -3.13984,10.62005 -3.13984,3.41689 -8.403694,3.41689 -5.171504,0 -8.403694,-3.50924 -3.139842,-3.60158 -3.139842,-10.5277 z m -39.709763,-37.8628 39.709763,0 0,-53.65435 -39.709763,53.65435 z"
         style="fill:#e6e6e6;fill-opacity:1"
         id="path4146" />
    </g>
    <g
       style="font-style:normal;font-variant:normal;font-weight:normal;font-stretch:normal;font-size:189.12928772px;line-height:125%;font-family:'Arial Rounded MT Bold';-inkscape-font-specification:'Arial Rounded MT Bold, ';letter-spacing:0px;word-spacing:0px;fill:#e6e6e6;fill-opacity:1;stroke:#000000;stroke-width:10;stroke-linecap:butt;stroke-linejoin:miter;stroke-miterlimit:4;stroke-dasharray:none;stroke-opacity:1"
       id="text3373">
      <path
         d="m 386.16437,764.36 -43.86544,0 -5.26385,29.92084 q 13.11346,-7.01847 24.19525,-7.01847 8.86544,0 16.53034,3.32454 7.75726,3.32454 13.5752,9.23483 5.81794,5.81794 9.14248,13.85224 3.32454,8.0343 3.32454,17.26913 0,13.3905 -6.00264,24.37995 -6.00264,10.98944 -17.36147,17.45382 -11.2665,6.46438 -26.04222,6.46438 -16.53034,0 -26.87335,-6.09498 -10.25066,-6.09499 -14.59103,-13.94459 -4.24802,-7.94196 -4.24802,-13.85225 0,-3.60158 2.95514,-6.83377 3.0475,-3.23219 7.57256,-3.23219 7.75726,0 11.54354,8.95778 3.69393,8.219 9.97361,12.83641 6.27969,4.52507 14.03694,4.52507 7.11082,0 12.46702,-3.69393 5.3562,-3.69393 8.219,-10.15831 2.95514,-6.46438 2.95514,-14.68338 0,-8.86543 -3.13984,-15.14512 -3.13984,-6.27968 -8.40369,-9.32717 -5.26386,-3.13985 -11.72823,-3.13985 -7.94196,0 -11.35884,1.93932 -3.41689,1.93931 -9.88127,6.83377 -6.37203,4.80211 -10.52771,4.80211 -4.52506,0 -8.0343,-3.23219 -3.50923,-3.32454 -3.50923,-7.48021 0,-0.46174 1.01583,-6.27968 l 7.75726,-44.23483 q 1.29287,-7.94195 4.80211,-11.54354 3.50923,-3.60158 11.45118,-3.60158 l 48.7599,0 q 14.40633,0 14.40633,10.98945 0,4.80211 -3.50923,7.75725 -3.50924,2.95515 -10.34301,2.95515 z"
         style="fill:#e6e6e6;fill-opacity:1"
         id="path4152" />
    </g>
    <g
       style="font-style:normal;font-variant:normal;font-weight:normal;font-stretch:normal;font-size:195.57980347px;line-height:125%;font-family:'Arial Rounded MT Bold';-inkscape-font-specification:'Arial Rounded MT Bold, ';letter-spacing:0px;word-spacing:0px;fill:#e6e6e6;fill-opacity:1;stroke:#000000;stroke-width:10;stroke-linecap:butt;stroke-linejoin:miter;stroke-miterlimit:4;stroke-dasharray:none;stroke-opacity:1"
       id="text3377">
      <path
         d="m 597.98345,804.20604 q 6.49386,-7.73534 14.1337,-11.45976 7.63983,-3.72442 17.09413,-3.72442 9.07231,0 16.71214,3.43793 7.73534,3.34243 13.46521,9.64529 5.82538,6.20737 8.97681,14.70669 3.15143,8.49932 3.15143,17.76262 0,13.46521 -6.20736,24.44747 -6.11187,10.98227 -17.18964,17.18963 -10.98226,6.11187 -24.92496,6.11187 -16.04366,0 -27.69441,-7.83083 -11.65075,-7.83083 -17.85811,-23.1105 -6.11187,-15.37517 -6.11187,-37.5307 0,-18.04911 3.72442,-32.27831 3.72442,-14.22919 10.69577,-23.58799 6.97135,-9.3588 16.90314,-14.1337 9.93178,-4.77489 22.63301,-4.77489 12.22374,0 21.48704,4.77489 9.3588,4.7749 14.0382,11.84175 4.7749,7.06685 4.7749,13.56071 0,3.91541 -2.96044,7.16234 -2.96044,3.15144 -7.54434,3.15144 -4.01091,0 -7.44884,-2.48295 -3.43793,-2.57844 -5.06139,-7.06685 -2.19645,-5.72988 -6.97135,-9.1678 -4.7749,-3.53343 -11.07776,-3.53343 -5.06139,0 -10.12279,2.96044 -4.96589,2.86494 -8.40382,7.83083 -6.97135,10.12279 -8.21282,36.09823 z m 25.78445,59.30423 q 9.64529,0 15.94816,-7.83084 6.30286,-7.92633 6.30286,-20.72305 0,-8.69032 -2.96044,-14.89768 -2.96043,-6.30287 -8.11732,-9.5498 -5.15689,-3.34243 -11.36426,-3.34243 -5.92087,0 -11.36425,3.15144 -5.34789,3.15143 -8.69032,9.1678 -3.24693,5.92087 -3.24693,13.9427 0,12.89222 6.68486,21.48704 6.68485,8.59482 16.80764,8.59482 z"
         style="fill:#e6e6e6;fill-opacity:1"
         id="path4149" />
    </g>
  </g>
</svg>
