<?xml version="1.0" encoding="UTF-8" standalone="no"?>
<!-- Created with Inkscape (http://www.inkscape.org/) -->

<svg
   xmlns:dc="http://purl.org/dc/elements/1.1/"
   xmlns:cc="http://creativecommons.org/ns#"
   xmlns:rdf="http://www.w3.org/1999/02/22-rdf-syntax-ns#"
   xmlns:svg="http://www.w3.org/2000/svg"
   xmlns="http://www.w3.org/2000/svg"
   xmlns:sodipodi="http://sodipodi.sourceforge.net/DTD/sodipodi-0.dtd"
   xmlns:inkscape="http://www.inkscape.org/namespaces/inkscape"
   width="200mm"
   height="200mm"
   viewBox="0 0 708.66142 708.66141"
   id="svg2"
   version="1.1"
   inkscape:version="0.91 r13725"
   sodipodi:docname="home.svg">
  <defs
     id="defs4" />
  <sodipodi:namedview
     id="base"
     pagecolor="#ffffff"
     bordercolor="#666666"
     borderopacity="1.0"
     inkscape:pageopacity="0.0"
     inkscape:pageshadow="2"
     inkscape:zoom="0.53763333"
     inkscape:cx="140.43027"
     inkscape:cy="475.75132"
     inkscape:document-units="px"
     inkscape:current-layer="layer1"
     showgrid="false"
     inkscape:window-width="1280"
     inkscape:window-height="961"
     inkscape:window-x="-8"
     inkscape:window-y="-8"
     inkscape:window-maximized="1" />
  <metadata
     id="metadata7">
    <rdf:RDF>
      <cc:Work
         rdf:about="">
        <dc:format>image/svg+xml</dc:format>
        <dc:type
           rdf:resource="http://purl.org/dc/dcmitype/StillImage" />
        <dc:title />
      </cc:Work>
    </rdf:RDF>
  </metadata>
  <g
     inkscape:label="Ebene 1"
     inkscape:groupmode="layer"
     id="layer1"
     transform="translate(0,-343.70079)">
    <g
       id="g4139"
       transform="matrix(0.63725481,0,0,0.63725481,39.03979,384.05409)"
       style="fill:#d2d2d2;fill-opacity:1;stroke:#000000;stroke-width:50.16764069;stroke-miterlimit:4;stroke-dasharray:none;stroke-opacity:1">
      <path
         id="path4141"
         d="M 958,406.6 570.2,45.2 C 550.6,22.9 522.3,10.1 492.3,10 462.7,10 434.5,22.7 415.7,43.8 L 42.3,406.4 c -18.6,19 -24,46.8 -13.7,71.3 10.3,24.6 34.2,40 60.9,40 l 33.6,0 0,368.7 c 0,57.2 45.7,103.6 102.9,103.6 l 160.3,0 c 20.8,0 39.3,-16.8 39.3,-37.6 l 0,-245.2 c 0,-10.4 6.9,-19.8 17.3,-19.8 l 113.2,0 c 10.4,0 18.4,9.3 18.4,19.8 l 0,245.2 c 0,20.8 17.4,37.6 38.2,37.6 l 160.3,0 c 57.2,0 104,-46.4 104,-103.6 l 0,-368.7 33.5,0 c 26.6,0 50.4,-15.4 60.8,-39.8 10.4,-24.5 5.1,-52.2 -13.3,-71.3 l 0,0 z"
         inkscape:connector-curvature="0"
         style="fill:#d2d2d2;fill-opacity:1;stroke:#000000;stroke-width:50.16764069;stroke-miterlimit:4;stroke-dasharray:none;stroke-opacity:1" />
    </g>
  </g>
</svg>
