<?xml version="1.0" encoding="UTF-8" standalone="no"?>
<!-- Created with Inkscape (http://www.inkscape.org/) -->

<svg
   xmlns:osb="http://www.openswatchbook.org/uri/2009/osb"
   xmlns:dc="http://purl.org/dc/elements/1.1/"
   xmlns:cc="http://creativecommons.org/ns#"
   xmlns:rdf="http://www.w3.org/1999/02/22-rdf-syntax-ns#"
   xmlns:svg="http://www.w3.org/2000/svg"
   xmlns="http://www.w3.org/2000/svg"
   xmlns:sodipodi="http://sodipodi.sourceforge.net/DTD/sodipodi-0.dtd"
   xmlns:inkscape="http://www.inkscape.org/namespaces/inkscape"
   width="200mm"
   height="200mm"
   viewBox="0 0 708.66142 708.66141"
   id="svg2"
   version="1.1"
   inkscape:version="0.91 r13725"
   sodipodi:docname="modeScore.svg">
  <defs
     id="defs4">
    <inkscape:perspective
       sodipodi:type="inkscape:persp3d"
       inkscape:vp_x="0 : 354.33071 : 1"
       inkscape:vp_y="0 : 1000 : 0"
       inkscape:vp_z="708.66142 : 354.33071 : 1"
       inkscape:persp3d-origin="354.33071 : 236.22047 : 1"
       id="perspective4215" />
    <linearGradient
       id="linearGradient4209"
       osb:paint="solid">
      <stop
         style="stop-color:#000001;stop-opacity:1;"
         offset="0"
         id="stop4211" />
    </linearGradient>
  </defs>
  <sodipodi:namedview
     id="base"
     pagecolor="#ffffff"
     bordercolor="#666666"
     borderopacity="1.0"
     inkscape:pageopacity="0.0"
     inkscape:pageshadow="2"
     inkscape:zoom="0.7"
     inkscape:cx="-136.87211"
     inkscape:cy="405.71429"
     inkscape:document-units="px"
     inkscape:current-layer="g4288"
     showgrid="false"
     inkscape:window-width="1280"
     inkscape:window-height="961"
     inkscape:window-x="-8"
     inkscape:window-y="-8"
     inkscape:window-maximized="1" />
  <metadata
     id="metadata7">
    <rdf:RDF>
      <cc:Work
         rdf:about="">
        <dc:format>image/svg+xml</dc:format>
        <dc:type
           rdf:resource="http://purl.org/dc/dcmitype/StillImage" />
        <dc:title />
      </cc:Work>
    </rdf:RDF>
  </metadata>
  <g
     inkscape:label="Ebene 1"
     inkscape:groupmode="layer"
     id="layer1"
     transform="translate(0,-343.70079)">
    <g
       id="g3387"
       transform="matrix(1.2754497,0,0,1.4318361,-130.43284,277.98129)"
       style="fill:#ffffbe;fill-opacity:1;stroke:#000001;stroke-width:7.3998289;stroke-miterlimit:4;stroke-dasharray:none;stroke-opacity:1">
      <g
         id="g3341"
         style="fill:#ffffbe;fill-opacity:1;stroke:#000001;stroke-width:7.3998289;stroke-miterlimit:4;stroke-dasharray:none;stroke-opacity:1">
        <g
           id="g3343"
           style="fill:#ffffbe;fill-opacity:1;stroke:#000001;stroke-width:7.3998289;stroke-miterlimit:4;stroke-dasharray:none;stroke-opacity:1">
          <g
             id="g3345"
             style="fill:#ffffbe;fill-opacity:1;stroke:#000001;stroke-width:7.3998289;stroke-miterlimit:4;stroke-dasharray:none;stroke-opacity:1">
            <polygon
               id="polygon3347"
               points="345.904,466.953 247.823,466.953 245.221,466.953 147.14,466.953 147.14,493.043 245.221,493.043 247.823,493.043 345.904,493.043 "
               style="fill:#ffffbe;fill-opacity:1;stroke:#000001;stroke-width:7.3998289;stroke-miterlimit:4;stroke-dasharray:none;stroke-opacity:1" />
            <path
               id="path3349"
               d="m 367.391,55.038 c 0.086,-1.517 0.188,-24.257 0.229,-40.051 l 19.301,0 0,-14.987 -139.098,0 -2.602,0 -139.097,0 0,14.987 19.299,0 c 0.043,15.794 0.144,38.534 0.229,40.051 L 46.221,38.971 c 0,0 30.004,163.395 139.521,163.395 0.553,0 1.133,-0.069 1.702,-0.069 6.27,6.919 12.838,13.063 19.735,17.954 -4.84,0.106 -8.759,3.975 -8.759,8.834 0,4.909 3.973,8.866 8.865,8.866 l 11.721,0 -26.782,112.664 -19.9,0 0,106.641 72.897,0 2.602,0 72.896,0 0,-106.643 -19.9,0 -26.781,-112.665 11.723,0 c 4.895,0 8.863,-3.957 8.863,-8.865 0,-4.859 -3.918,-8.728 -8.758,-8.834 6.896,-4.893 13.465,-11.035 19.734,-17.954 0.568,0 1.146,0.069 1.702,0.069 109.517,0 139.521,-163.395 139.521,-163.395 l -79.432,16.069 z m -300.397,2.667 60.403,13.173 c 5.541,35.563 22.655,80.916 46.661,114.744 C 109.129,177.737 78.231,92.757 66.994,57.705 Z m 151.972,136.023 c -2.831,0 -5.643,-1.195 -7.621,-3.521 -53.778,-63.206 -59.781,-134.342 -60.288,-142.245 -0.354,-5.511 3.827,-10.266 9.339,-10.62 5.516,-0.353 10.267,3.828 10.62,9.339 0.185,2.883 5.112,71.271 55.562,130.566 3.579,4.206 3.07,10.518 -1.136,14.097 -1.882,1.601 -4.185,2.384 -6.476,2.384 z m 82.038,171.51 0,74.166 -53.184,0 -2.602,0 -53.183,0 0,-74.166 53.183,0 2.602,0 53.184,0 0,0 z m 17.982,-179.614 c 24.007,-33.828 41.12,-79.182 46.661,-114.744 l 60.402,-13.173 c -11.236,35.05 -42.135,120.03 -107.063,127.917 z"
               inkscape:connector-curvature="0"
               style="fill:#ffffbe;fill-opacity:1;stroke:#000001;stroke-width:7.3998289;stroke-miterlimit:4;stroke-dasharray:none;stroke-opacity:1" />
          </g>
        </g>
      </g>
      <g
         id="g3351"
         style="fill:#ffffbe;fill-opacity:1;stroke:#000001;stroke-width:7.3998289;stroke-miterlimit:4;stroke-dasharray:none;stroke-opacity:1" />
      <g
         id="g3353"
         style="fill:#ffffbe;fill-opacity:1;stroke:#000001;stroke-width:7.3998289;stroke-miterlimit:4;stroke-dasharray:none;stroke-opacity:1" />
      <g
         id="g3355"
         style="fill:#ffffbe;fill-opacity:1;stroke:#000001;stroke-width:7.3998289;stroke-miterlimit:4;stroke-dasharray:none;stroke-opacity:1" />
      <g
         id="g3357"
         style="fill:#ffffbe;fill-opacity:1;stroke:#000001;stroke-width:7.3998289;stroke-miterlimit:4;stroke-dasharray:none;stroke-opacity:1" />
      <g
         id="g3359"
         style="fill:#ffffbe;fill-opacity:1;stroke:#000001;stroke-width:7.3998289;stroke-miterlimit:4;stroke-dasharray:none;stroke-opacity:1" />
      <g
         id="g3361"
         style="fill:#ffffbe;fill-opacity:1;stroke:#000001;stroke-width:7.3998289;stroke-miterlimit:4;stroke-dasharray:none;stroke-opacity:1" />
      <g
         id="g3363"
         style="fill:#ffffbe;fill-opacity:1;stroke:#000001;stroke-width:7.3998289;stroke-miterlimit:4;stroke-dasharray:none;stroke-opacity:1" />
      <g
         id="g3365"
         style="fill:#ffffbe;fill-opacity:1;stroke:#000001;stroke-width:7.3998289;stroke-miterlimit:4;stroke-dasharray:none;stroke-opacity:1" />
      <g
         id="g3367"
         style="fill:#ffffbe;fill-opacity:1;stroke:#000001;stroke-width:7.3998289;stroke-miterlimit:4;stroke-dasharray:none;stroke-opacity:1" />
      <g
         id="g3369"
         style="fill:#ffffbe;fill-opacity:1;stroke:#000001;stroke-width:7.3998289;stroke-miterlimit:4;stroke-dasharray:none;stroke-opacity:1" />
      <g
         id="g3371"
         style="fill:#ffffbe;fill-opacity:1;stroke:#000001;stroke-width:7.3998289;stroke-miterlimit:4;stroke-dasharray:none;stroke-opacity:1" />
      <g
         id="g3373"
         style="fill:#ffffbe;fill-opacity:1;stroke:#000001;stroke-width:7.3998289;stroke-miterlimit:4;stroke-dasharray:none;stroke-opacity:1" />
      <g
         id="g3375"
         style="fill:#ffffbe;fill-opacity:1;stroke:#000001;stroke-width:7.3998289;stroke-miterlimit:4;stroke-dasharray:none;stroke-opacity:1" />
      <g
         id="g3377"
         style="fill:#ffffbe;fill-opacity:1;stroke:#000001;stroke-width:7.3998289;stroke-miterlimit:4;stroke-dasharray:none;stroke-opacity:1" />
      <g
         id="g3379"
         style="fill:#ffffbe;fill-opacity:1;stroke:#000001;stroke-width:7.3998289;stroke-miterlimit:4;stroke-dasharray:none;stroke-opacity:1" />
    </g>
    <g
       id="g4288"
       transform="translate(-27.142863,-2.8571417)">
      <rect
         y="659.50507"
         x="324.28571"
         height="354.28571"
         width="351.42856"
         id="rect4286"
         style="fill:#e6e6e6;fill-opacity:1;stroke:none;stroke-width:6.71999979;stroke-linejoin:bevel;stroke-miterlimit:4;stroke-dasharray:none;stroke-opacity:1" />
      <g
         style="fill:#080000;fill-opacity:1;stroke:none;stroke-opacity:1"
         transform="matrix(0.37172012,0,0,0.38359051,313.42565,644.44319)"
         id="g4255">
        <g
           style="fill:#080000;fill-opacity:1;stroke:none;stroke-opacity:1"
           transform="matrix(0.1,0,0,-0.1,0,503)"
           id="g4257">
          <path
             style="fill:#080000;fill-opacity:1;stroke:none;stroke-opacity:1"
             inkscape:connector-curvature="0"
             d="M 155.5,4788.4 100,4732.9 100,30 l 0,-4702.9 55.5,-55.5 55.5,-55.5 4789,0 4789,0 55.5,55.5 55.5,55.5 0,4702.9 0,4702.9 -55.5,55.5 -55.5,55.5 -4789,0 -4789,0 -55.5,-55.5 z M 9574.6,30 l 0,-4488.5 -4574.6,0 -4574.6,0 0,4488.5 0,4488.5 4574.6,0 4574.6,0 0,-4488.5 z"
             id="path4259" />
          <path
             style="fill:#080000;fill-opacity:1;stroke:none;stroke-opacity:1"
             inkscape:connector-curvature="0"
             d="m 2664.8,3701.2 c -15.3,-5.7 -195.2,-174.2 -396.2,-377.1 -350.3,-346.4 -369.4,-369.4 -369.4,-438.3 0,-128.2 120.6,-202.9 235.4,-145.5 23,11.5 126.3,103.4 229.7,204.8 l 185.7,185.7 0,-646.9 0,-647 47.9,-45.9 c 30.6,-32.5 67,-47.9 114.8,-47.9 47.8,0 84.2,15.3 114.8,47.9 l 47.9,45.9 0,888.1 0,888.1 -42.1,40.2 c -47.9,42.1 -122.5,65.1 -168.5,47.9 z"
             id="path4261" />
          <path
             style="fill:#080000;fill-opacity:1;stroke:none;stroke-opacity:1"
             inkscape:connector-curvature="0"
             d="m 4232.5,2836 c -59.3,-59.3 -67,-101.5 -36.4,-183.7 42.1,-109.1 -13.4,-107.2 1979.2,-101.4 l 1826,5.7 49.8,45.9 c 49.8,45.9 65.1,130.2 38.3,202.9 -34.5,88 -5.8,86.1 -1960,86.1 l -1841.4,0 -55.5,-55.5 z"
             id="path4263" />
          <path
             style="fill:#080000;fill-opacity:1;stroke:none;stroke-opacity:1"
             inkscape:connector-curvature="0"
             d="m 2460,1065.5 c -114.8,-38.3 -199.1,-93.8 -300.5,-202.9 -107.2,-114.8 -164.6,-233.5 -178,-371.3 -9.6,-86.1 -3.8,-107.2 38.3,-155 97.6,-112.9 281.4,-45.9 281.4,105.3 0,185.7 164.6,336.9 350.3,319.7 137.8,-11.5 224,-114.8 224,-266.1 0,-88 -26.8,-126.3 -444.1,-612.5 -206.7,-237.3 -379,-447.9 -386.6,-465.1 -5.7,-17.2 -11.5,-65.1 -11.5,-105.3 0,-57.4 11.5,-84.2 59.3,-122.5 l 59.3,-49.8 476.6,0 478.5,0 45.9,47.9 c 61.3,59.3 61.3,143.6 1.9,214.4 -45.9,53.6 -45.9,53.6 -346.4,63.2 l -298.6,9.6 290.9,335 c 346.5,400 388.6,476.6 390.5,698.6 0,116.8 -9.6,174.2 -40.2,239.3 -49.8,107.2 -179.9,235.4 -290.9,289 -103.4,51.5 -291,64.9 -400.1,28.5 z"
             id="path4265" />
          <path
             style="fill:#080000;fill-opacity:1;stroke:none;stroke-opacity:1"
             inkscape:connector-curvature="0"
             d="M 4282.2,261.6 C 4222.9,236.7 4177,164 4177,95.1 4177,74 4201.9,30 4232.5,-0.6 l 55.5,-55.5 1841.3,0 c 1954.2,0 1925.5,-1.9 1960,86.1 26.8,72.7 11.5,157 -38.3,202.9 l -49.8,45.9 -1829.8,3.8 c -1489.1,3.9 -1843.2,0.1 -1889.2,-21 z"
             id="path4267" />
          <path
             style="fill:#080000;fill-opacity:1;stroke:none;stroke-opacity:1"
             inkscape:connector-curvature="0"
             d="m 2155.7,-1537.6 c -128.2,-57.4 -118.7,-250.7 11.5,-296.7 34.4,-11.5 160.8,-21 281.4,-21 216.3,0 220.1,0 273.7,-53.6 107.2,-107.2 93.8,-315.8 -24.9,-386.6 -51.7,-32.5 -97.6,-38.3 -296.7,-38.3 -235.4,0 -237.4,0 -292.9,-55.5 -59.3,-59.3 -68.9,-105.3 -34.5,-179.9 34.5,-74.6 78.5,-88.1 315.8,-91.9 315.8,-3.8 379,-38.3 402,-214.4 13.4,-105.3 -36.4,-202.9 -126.3,-246.9 -51.7,-26.8 -116.8,-34.5 -289,-34.5 -204.8,0 -223.9,-3.8 -262.2,-42.1 -59.3,-65.1 -67,-130.2 -24.9,-201 47.9,-76.6 107.2,-88 379,-78.5 239.3,7.6 344.5,47.9 474.7,178 208.6,206.7 231.6,497.7 61.3,721.6 l -63.2,82.3 63.2,82.3 c 80.4,105.3 128.2,268 112.9,379 -24.9,185.7 -183.8,388.6 -365.6,468.9 -122.5,53.7 -499.6,72.8 -595.3,28.8 z"
             id="path4269" />
          <path
             style="fill:#080000;fill-opacity:1;stroke:none;stroke-opacity:1"
             inkscape:connector-curvature="0"
             d="m 4232.5,-2389.4 c -30.6,-30.6 -55.5,-74.6 -55.5,-97.6 0,-55.5 49.8,-145.5 86.1,-160.8 17.2,-5.7 867.1,-11.5 1887.3,-11.5 l 1856.6,0 45.9,47.9 c 32.5,30.6 47.9,67 47.9,114.8 0,47.8 -15.3,84.2 -47.9,114.8 l -45.9,47.9 -1858.6,0 -1860.4,0 -55.5,-55.5 z"
             id="path4271" />
        </g>
      </g>
    </g>
  </g>
</svg>
