<?xml version="1.0" encoding="UTF-8" standalone="no"?>
<!-- Created with Inkscape (http://www.inkscape.org/) -->

<svg
   xmlns:osb="http://www.openswatchbook.org/uri/2009/osb"
   xmlns:dc="http://purl.org/dc/elements/1.1/"
   xmlns:cc="http://creativecommons.org/ns#"
   xmlns:rdf="http://www.w3.org/1999/02/22-rdf-syntax-ns#"
   xmlns:svg="http://www.w3.org/2000/svg"
   xmlns="http://www.w3.org/2000/svg"
   xmlns:sodipodi="http://sodipodi.sourceforge.net/DTD/sodipodi-0.dtd"
   xmlns:inkscape="http://www.inkscape.org/namespaces/inkscape"
   width="200mm"
   height="200mm"
   viewBox="0 0 708.66142 708.66141"
   id="svg2"
   version="1.1"
   inkscape:version="0.91 r13725"
   sodipodi:docname="modeAi.svg">
  <defs
     id="defs4">
    <inkscape:perspective
       sodipodi:type="inkscape:persp3d"
       inkscape:vp_x="0 : 354.33071 : 1"
       inkscape:vp_y="0 : 1000 : 0"
       inkscape:vp_z="708.66142 : 354.33071 : 1"
       inkscape:persp3d-origin="354.33071 : 236.22047 : 1"
       id="perspective4215" />
    <linearGradient
       id="linearGradient4209"
       osb:paint="solid">
      <stop
         style="stop-color:#000001;stop-opacity:1;"
         offset="0"
         id="stop4211" />
    </linearGradient>
  </defs>
  <sodipodi:namedview
     id="base"
     pagecolor="#ffffff"
     bordercolor="#666666"
     borderopacity="1.0"
     inkscape:pageopacity="0.0"
     inkscape:pageshadow="2"
     inkscape:zoom="0.7"
     inkscape:cx="-64.547413"
     inkscape:cy="405.71429"
     inkscape:document-units="px"
     inkscape:current-layer="layer1"
     showgrid="false"
     inkscape:window-width="1280"
     inkscape:window-height="961"
     inkscape:window-x="-8"
     inkscape:window-y="-8"
     inkscape:window-maximized="1" />
  <metadata
     id="metadata7">
    <rdf:RDF>
      <cc:Work
         rdf:about="">
        <dc:format>image/svg+xml</dc:format>
        <dc:type
           rdf:resource="http://purl.org/dc/dcmitype/StillImage" />
        <dc:title />
      </cc:Work>
    </rdf:RDF>
  </metadata>
  <g
     inkscape:label="Ebene 1"
     inkscape:groupmode="layer"
     id="layer1"
     transform="translate(0,-343.70079)">
    <g
       id="g4732"
       transform="matrix(1.7111328,0,0,1.7111328,44.768929,492.50564)"
       style="fill:#003080;fill-opacity:1">
      <g
         id="g4532"
         style="fill:#003080;fill-opacity:1">
        <g
           id="g4534"
           style="fill:#003080;fill-opacity:1">
          <path
             id="path4536"
             d="m 192.486,63.958 c -5.348,0 -8.67,4.827 -8.67,12.603 0.071,7.678 3.246,12.448 8.285,12.448 5.51,0 8.67,-4.655 8.67,-12.771 0,-7.689 -3.097,-12.28 -8.285,-12.28 z m -0.211,21.168 c -2.391,0 -3.875,-3.271 -3.875,-8.537 0,-5.313 1.535,-8.747 3.912,-8.747 3.37,0 3.873,5.349 3.873,8.537 0.001,3.267 -0.507,8.747 -3.91,8.747 z"
             inkscape:connector-curvature="0"
             style="fill:#003080;fill-opacity:1" />
        </g>
        <g
           id="g4538"
           style="fill:#003080;fill-opacity:1">
          <path
             id="path4540"
             d="m 204.798,70.288 c 0.057,0.225 0.214,0.41 0.426,0.503 0.212,0.093 0.454,0.083 0.658,-0.026 l 2.925,-1.579 0,18.687 c 0,0.414 0.336,0.75 0.75,0.75 l 2.98,0 c 0.414,0 0.75,-0.336 0.75,-0.75 l 0,-22.779 c 0,-0.414 -0.336,-0.75 -0.75,-0.75 l -2.631,0 c -0.123,0 -0.245,0.03 -0.354,0.089 l -4.975,2.662 c -0.304,0.163 -0.458,0.511 -0.374,0.845 l 0.595,2.348 z"
             inkscape:connector-curvature="0"
             style="fill:#003080;fill-opacity:1" />
        </g>
        <g
           id="g4542"
           style="fill:#003080;fill-opacity:1">
          <path
             id="path4544"
             d="m 226.994,89.009 c 5.511,0 8.672,-4.655 8.672,-12.771 0,-7.689 -3.098,-12.28 -8.285,-12.28 -5.348,0 -8.67,4.827 -8.67,12.603 0.069,7.679 3.243,12.448 8.283,12.448 z m 0.211,-21.167 c 3.373,0 3.877,5.349 3.877,8.537 0,3.267 -0.508,8.747 -3.912,8.747 -2.392,0 -3.877,-3.271 -3.877,-8.537 0,-5.313 1.535,-8.747 3.912,-8.747 z"
             inkscape:connector-curvature="0"
             style="fill:#003080;fill-opacity:1" />
        </g>
        <g
           id="g4546"
           style="fill:#003080;fill-opacity:1">
          <path
             id="path4548"
             d="m 247.43,63.958 c -5.348,0 -8.67,4.827 -8.67,12.603 0.071,7.678 3.246,12.448 8.285,12.448 5.511,0 8.672,-4.655 8.672,-12.771 0,-7.689 -3.098,-12.28 -8.287,-12.28 z m -0.209,21.168 c -2.392,0 -3.877,-3.271 -3.877,-8.537 0,-5.313 1.535,-8.747 3.912,-8.747 3.371,0 3.875,5.349 3.875,8.537 0,3.267 -0.508,8.747 -3.91,8.747 z"
             inkscape:connector-curvature="0"
             style="fill:#003080;fill-opacity:1" />
        </g>
        <g
           id="g4550"
           style="fill:#003080;fill-opacity:1">
          <path
             id="path4552"
             d="m 259.741,70.288 c 0.057,0.225 0.214,0.41 0.426,0.503 0.211,0.093 0.454,0.083 0.658,-0.026 l 2.927,-1.579 0,18.687 c 0,0.414 0.336,0.75 0.75,0.75 l 2.979,0 c 0.414,0 0.75,-0.336 0.75,-0.75 l 0,-22.779 c 0,-0.414 -0.336,-0.75 -0.75,-0.75 l -2.629,0 c -0.123,0 -0.245,0.03 -0.354,0.089 l -4.975,2.662 c -0.304,0.162 -0.458,0.511 -0.374,0.844 l 0.592,2.349 z"
             inkscape:connector-curvature="0"
             style="fill:#003080;fill-opacity:1" />
        </g>
        <g
           id="g4554"
           style="fill:#003080;fill-opacity:1">
          <path
             id="path4556"
             d="m 283.392,63.958 c -5.348,0 -8.67,4.827 -8.67,12.603 0.071,7.678 3.246,12.448 8.285,12.448 5.51,0 8.67,-4.655 8.67,-12.771 10e-4,-7.689 -3.097,-12.28 -8.285,-12.28 z m -0.21,21.168 c -2.391,0 -3.875,-3.271 -3.875,-8.537 0,-5.313 1.535,-8.747 3.912,-8.747 3.371,0 3.875,5.349 3.875,8.537 0,3.267 -0.508,8.747 -3.912,8.747 z"
             inkscape:connector-curvature="0"
             style="fill:#003080;fill-opacity:1" />
        </g>
        <g
           id="g4558"
           style="fill:#003080;fill-opacity:1">
          <path
             id="path4560"
             d="m 295.706,70.288 c 0.057,0.225 0.214,0.41 0.426,0.503 0.213,0.093 0.454,0.083 0.658,-0.026 l 2.925,-1.579 0,18.688 c 0,0.414 0.336,0.75 0.75,0.75 l 2.978,0 c 0.414,0 0.75,-0.336 0.75,-0.75 l 0,-22.78 c 0,-0.414 -0.336,-0.75 -0.75,-0.75 l -2.629,0 c -0.123,0 -0.245,0.03 -0.353,0.089 l -4.975,2.662 c -0.304,0.163 -0.458,0.511 -0.374,0.845 l 0.594,2.348 z"
             inkscape:connector-curvature="0"
             style="fill:#003080;fill-opacity:1" />
        </g>
        <g
           id="g4562"
           style="fill:#003080;fill-opacity:1">
          <path
             id="path4564"
             d="m 318.971,89.009 c 5.511,0 8.672,-4.655 8.672,-12.771 0,-7.689 -3.098,-12.28 -8.285,-12.28 -5.349,0 -8.672,4.827 -8.672,12.603 0.071,7.679 3.246,12.448 8.285,12.448 z m 0.211,-21.167 c 3.371,0 3.875,5.349 3.875,8.537 0,3.267 -0.508,8.747 -3.91,8.747 -2.392,0 -3.877,-3.271 -3.877,-8.537 0,-5.313 1.535,-8.747 3.912,-8.747 z"
             inkscape:connector-curvature="0"
             style="fill:#003080;fill-opacity:1" />
        </g>
        <g
           id="g4566"
           style="fill:#003080;fill-opacity:1">
          <path
             id="path4568"
             d="m 331.667,70.288 c 0.057,0.225 0.214,0.41 0.426,0.503 0.213,0.093 0.454,0.083 0.658,-0.026 l 2.925,-1.579 0,18.687 c 0,0.414 0.336,0.75 0.75,0.75 l 2.979,0 c 0.414,0 0.75,-0.336 0.75,-0.75 l 0,-22.779 c 0,-0.414 -0.336,-0.75 -0.75,-0.75 l -2.627,0 c -0.123,0 -0.245,0.03 -0.354,0.089 l -4.977,2.662 c -0.304,0.162 -0.458,0.511 -0.374,0.845 l 0.594,2.348 z"
             inkscape:connector-curvature="0"
             style="fill:#003080;fill-opacity:1" />
        </g>
        <g
           id="g4570"
           style="fill:#003080;fill-opacity:1">
          <path
             id="path4572"
             d="m 355.32,63.958 c -5.349,0 -8.672,4.827 -8.672,12.603 0.071,7.678 3.246,12.448 8.285,12.448 5.511,0 8.672,-4.655 8.672,-12.771 0,-7.689 -3.097,-12.28 -8.285,-12.28 z m -0.213,21.168 c -2.389,0 -3.873,-3.271 -3.873,-8.537 0,-5.313 1.535,-8.747 3.91,-8.747 3.373,0 3.877,5.349 3.877,8.537 10e-4,3.267 -0.508,8.747 -3.914,8.747 z"
             inkscape:connector-curvature="0"
             style="fill:#003080;fill-opacity:1" />
        </g>
        <g
           id="g4574"
           style="fill:#003080;fill-opacity:1">
          <path
             id="path4576"
             d="m 191.574,130.686 2.98,0 c 0.414,0 0.75,-0.336 0.75,-0.75 l 0,-22.779 c 0,-0.414 -0.336,-0.75 -0.75,-0.75 l -2.629,0 c -0.123,0 -0.245,0.03 -0.354,0.089 l -4.977,2.662 c -0.305,0.163 -0.458,0.511 -0.373,0.846 l 0.596,2.349 c 0.057,0.224 0.214,0.409 0.425,0.502 0.213,0.093 0.454,0.083 0.658,-0.026 l 2.923,-1.578 0,18.686 c 0.001,0.414 0.337,0.749 0.751,0.749 z"
             inkscape:connector-curvature="0"
             style="fill:#003080;fill-opacity:1" />
        </g>
        <g
           id="g4578"
           style="fill:#003080;fill-opacity:1">
          <path
             id="path4580"
             d="m 210.082,131.072 c 5.511,0 8.672,-4.654 8.672,-12.77 0,-7.689 -3.098,-12.28 -8.285,-12.28 -5.349,0 -8.672,4.826 -8.672,12.602 0.071,7.679 3.246,12.448 8.285,12.448 z m 0.211,-21.167 c 3.371,0 3.875,5.349 3.875,8.537 0,3.267 -0.508,8.747 -3.91,8.747 -2.392,0 -3.877,-3.271 -3.877,-8.538 0,-5.313 1.535,-8.746 3.912,-8.746 z"
             inkscape:connector-curvature="0"
             style="fill:#003080;fill-opacity:1" />
        </g>
        <g
           id="g4582"
           style="fill:#003080;fill-opacity:1">
          <path
             id="path4584"
             d="m 223.862,112.829 2.927,-1.58 0,18.687 c 0,0.414 0.336,0.75 0.75,0.75 l 2.979,0 c 0.414,0 0.75,-0.336 0.75,-0.75 l 0,-22.779 c 0,-0.414 -0.336,-0.75 -0.75,-0.75 l -2.629,0 c -0.123,0 -0.245,0.03 -0.354,0.089 l -4.977,2.662 c -0.304,0.162 -0.458,0.511 -0.374,0.845 l 0.594,2.349 c 0.057,0.225 0.214,0.41 0.426,0.503 0.213,0.093 0.454,0.083 0.658,-0.026 z"
             inkscape:connector-curvature="0"
             style="fill:#003080;fill-opacity:1" />
        </g>
        <g
           id="g4586"
           style="fill:#003080;fill-opacity:1">
          <path
             id="path4588"
             d="m 246.045,131.072 c 5.511,0 8.672,-4.654 8.672,-12.77 0,-7.689 -3.098,-12.28 -8.287,-12.28 -5.348,0 -8.67,4.826 -8.67,12.602 0.071,7.679 3.246,12.448 8.285,12.448 z m 0.211,-21.167 c 3.371,0 3.875,5.349 3.875,8.537 0,3.267 -0.508,8.747 -3.91,8.747 -2.392,0 -3.877,-3.271 -3.877,-8.538 0,-5.313 1.535,-8.746 3.912,-8.746 z"
             inkscape:connector-curvature="0"
             style="fill:#003080;fill-opacity:1" />
        </g>
        <g
           id="g4590"
           style="fill:#003080;fill-opacity:1">
          <path
             id="path4592"
             d="m 258.741,112.352 c 0.057,0.225 0.214,0.41 0.426,0.503 0.211,0.093 0.454,0.083 0.658,-0.026 l 2.927,-1.579 0,18.686 c 0,0.414 0.336,0.75 0.75,0.75 l 2.979,0 c 0.414,0 0.75,-0.336 0.75,-0.75 l 0,-22.779 c 0,-0.414 -0.336,-0.75 -0.75,-0.75 l -2.629,0 c -0.123,0 -0.245,0.03 -0.354,0.089 l -4.975,2.662 c -0.304,0.162 -0.458,0.511 -0.374,0.844 l 0.592,2.35 z"
             inkscape:connector-curvature="0"
             style="fill:#003080;fill-opacity:1" />
        </g>
        <g
           id="g4594"
           style="fill:#003080;fill-opacity:1">
          <path
             id="path4596"
             d="m 282.392,106.022 c -5.348,0 -8.67,4.826 -8.67,12.602 0.071,7.678 3.246,12.448 8.285,12.448 5.51,0 8.67,-4.654 8.67,-12.77 10e-4,-7.689 -3.097,-12.28 -8.285,-12.28 z m -0.21,21.167 c -2.391,0 -3.875,-3.271 -3.875,-8.538 0,-5.313 1.535,-8.747 3.912,-8.747 3.371,0 3.875,5.349 3.875,8.537 0,3.268 -0.508,8.748 -3.912,8.748 z"
             inkscape:connector-curvature="0"
             style="fill:#003080;fill-opacity:1" />
        </g>
        <g
           id="g4598"
           style="fill:#003080;fill-opacity:1">
          <path
             id="path4600"
             d="m 300.99,131.072 c 5.51,0 8.67,-4.654 8.67,-12.77 0,-7.689 -3.098,-12.28 -8.285,-12.28 -5.348,0 -8.67,4.826 -8.67,12.602 0.069,7.679 3.244,12.448 8.285,12.448 z m 0.209,-21.167 c 3.371,0 3.875,5.349 3.875,8.537 0,3.267 -0.508,8.747 -3.91,8.747 -2.391,0 -3.875,-3.271 -3.875,-8.538 0,-5.313 1.535,-8.746 3.91,-8.746 z"
             inkscape:connector-curvature="0"
             style="fill:#003080;fill-opacity:1" />
        </g>
        <g
           id="g4602"
           style="fill:#003080;fill-opacity:1">
          <path
             id="path4604"
             d="m 318.445,130.686 2.978,0 c 0.414,0 0.75,-0.336 0.75,-0.75 l 0,-22.779 c 0,-0.414 -0.336,-0.75 -0.75,-0.75 l -2.627,0 c -0.123,0 -0.245,0.03 -0.354,0.089 l -4.977,2.662 c -0.304,0.162 -0.458,0.511 -0.374,0.845 l 0.594,2.349 c 0.057,0.225 0.214,0.41 0.426,0.503 0.213,0.093 0.454,0.083 0.658,-0.026 l 2.925,-1.579 0,18.686 c 10e-4,0.415 0.337,0.75 0.751,0.75 z"
             inkscape:connector-curvature="0"
             style="fill:#003080;fill-opacity:1" />
        </g>
        <g
           id="g4606"
           style="fill:#003080;fill-opacity:1">
          <path
             id="path4608"
             d="m 337.338,106.022 c -5.349,0 -8.672,4.826 -8.672,12.602 0.071,7.678 3.246,12.448 8.285,12.448 5.511,0 8.672,-4.654 8.672,-12.77 0,-7.689 -3.098,-12.28 -8.285,-12.28 z m -0.211,21.167 c -2.391,0 -3.875,-3.271 -3.875,-8.538 0,-5.313 1.535,-8.747 3.91,-8.747 3.371,0 3.875,5.349 3.875,8.537 0,3.268 -0.508,8.748 -3.91,8.748 z"
             inkscape:connector-curvature="0"
             style="fill:#003080;fill-opacity:1" />
        </g>
        <g
           id="g4610"
           style="fill:#003080;fill-opacity:1">
          <path
             id="path4612"
             d="m 192.486,148.085 c -5.348,0 -8.67,4.826 -8.67,12.602 0.071,7.678 3.246,12.448 8.285,12.448 5.51,0 8.67,-4.654 8.67,-12.769 0,-7.69 -3.097,-12.281 -8.285,-12.281 z m -0.211,21.168 c -2.391,0 -3.875,-3.271 -3.875,-8.537 0,-5.314 1.535,-8.748 3.912,-8.748 3.37,0 3.873,5.349 3.873,8.537 0.001,3.267 -0.507,8.748 -3.91,8.748 z"
             inkscape:connector-curvature="0"
             style="fill:#003080;fill-opacity:1" />
        </g>
        <g
           id="g4614"
           style="fill:#003080;fill-opacity:1">
          <path
             id="path4616"
             d="m 211.469,148.085 c -5.349,0 -8.672,4.826 -8.672,12.602 0.071,7.678 3.246,12.448 8.285,12.448 5.511,0 8.672,-4.654 8.672,-12.769 0,-7.69 -3.098,-12.281 -8.285,-12.281 z m -0.211,21.168 c -2.392,0 -3.877,-3.271 -3.877,-8.537 0,-5.314 1.535,-8.748 3.912,-8.748 3.371,0 3.875,5.349 3.875,8.537 0,3.267 -0.508,8.748 -3.91,8.748 z"
             inkscape:connector-curvature="0"
             style="fill:#003080;fill-opacity:1" />
        </g>
        <g
           id="g4618"
           style="fill:#003080;fill-opacity:1">
          <path
             id="path4620"
             d="m 228.539,172.75 2.979,0 c 0.414,0 0.75,-0.336 0.75,-0.75 l 0,-22.779 c 0,-0.414 -0.336,-0.75 -0.75,-0.75 l -2.629,0 c -0.123,0 -0.245,0.03 -0.354,0.089 l -4.977,2.663 c -0.304,0.163 -0.458,0.511 -0.374,0.845 l 0.594,2.348 c 0.057,0.224 0.214,0.41 0.426,0.502 0.212,0.093 0.454,0.083 0.658,-0.026 l 2.927,-1.579 0,18.687 c 0,0.414 0.336,0.75 0.75,0.75 z"
             inkscape:connector-curvature="0"
             style="fill:#003080;fill-opacity:1" />
        </g>
        <g
           id="g4622"
           style="fill:#003080;fill-opacity:1">
          <path
             id="path4624"
             d="m 247.43,148.085 c -5.348,0 -8.67,4.826 -8.67,12.602 0.071,7.678 3.246,12.448 8.285,12.448 5.511,0 8.672,-4.654 8.672,-12.769 0,-7.69 -3.098,-12.281 -8.287,-12.281 z m -0.209,21.168 c -2.392,0 -3.877,-3.271 -3.877,-8.537 0,-5.314 1.535,-8.748 3.912,-8.748 3.371,0 3.875,5.349 3.875,8.537 0,3.267 -0.508,8.748 -3.91,8.748 z"
             inkscape:connector-curvature="0"
             style="fill:#003080;fill-opacity:1" />
        </g>
        <g
           id="g4626"
           style="fill:#003080;fill-opacity:1">
          <path
             id="path4628"
             d="m 266.027,173.135 c 5.51,0 8.67,-4.654 8.67,-12.769 0,-7.69 -3.098,-12.281 -8.285,-12.281 -5.348,0 -8.67,4.826 -8.67,12.602 0.071,7.679 3.246,12.448 8.285,12.448 z m 0.211,-21.167 c 3.371,0 3.875,5.349 3.875,8.537 0,3.267 -0.508,8.748 -3.912,8.748 -2.391,0 -3.875,-3.271 -3.875,-8.537 0,-5.315 1.535,-8.748 3.912,-8.748 z"
             inkscape:connector-curvature="0"
             style="fill:#003080;fill-opacity:1" />
        </g>
        <g
           id="g4630"
           style="fill:#003080;fill-opacity:1">
          <path
             id="path4632"
             d="m 286.461,148.471 -2.629,0 c -0.123,0 -0.245,0.03 -0.354,0.089 l -4.975,2.663 c -0.304,0.163 -0.458,0.511 -0.374,0.844 l 0.592,2.348 c 0.057,0.225 0.214,0.41 0.426,0.503 0.211,0.093 0.454,0.083 0.657,-0.026 l 2.928,-1.578 0,18.686 c 0,0.414 0.336,0.75 0.75,0.75 l 2.979,0 c 0.414,0 0.75,-0.336 0.75,-0.75 l 0,-22.779 c 0,-0.414 -0.336,-0.75 -0.75,-0.75 z"
             inkscape:connector-curvature="0"
             style="fill:#003080;fill-opacity:1" />
        </g>
        <g
           id="g4634"
           style="fill:#003080;fill-opacity:1">
          <path
             id="path4636"
             d="m 302.375,148.085 c -5.348,0 -8.67,4.826 -8.67,12.602 0.069,7.678 3.244,12.448 8.285,12.448 5.51,0 8.67,-4.654 8.67,-12.769 0,-7.69 -3.097,-12.281 -8.285,-12.281 z m -0.211,21.168 c -2.391,0 -3.875,-3.271 -3.875,-8.537 0,-5.314 1.535,-8.748 3.91,-8.748 3.371,0 3.875,5.349 3.875,8.537 0,3.267 -0.508,8.748 -3.91,8.748 z"
             inkscape:connector-curvature="0"
             style="fill:#003080;fill-opacity:1" />
        </g>
        <g
           id="g4638"
           style="fill:#003080;fill-opacity:1">
          <path
             id="path4640"
             d="m 192.486,190.148 c -5.348,0 -8.67,4.826 -8.67,12.602 0.071,7.678 3.246,12.447 8.285,12.447 5.51,0 8.67,-4.654 8.67,-12.77 0,-7.688 -3.097,-12.279 -8.285,-12.279 z m -0.211,21.168 c -2.391,0 -3.875,-3.271 -3.875,-8.537 0,-5.314 1.535,-8.748 3.912,-8.748 3.37,0 3.873,5.349 3.873,8.538 0.001,3.266 -0.507,8.747 -3.91,8.747 z"
             inkscape:connector-curvature="0"
             style="fill:#003080;fill-opacity:1" />
        </g>
        <g
           id="g4642"
           style="fill:#003080;fill-opacity:1">
          <path
             id="path4644"
             d="m 211.082,215.198 c 5.511,0 8.672,-4.654 8.672,-12.77 0,-7.689 -3.098,-12.28 -8.285,-12.28 -5.349,0 -8.672,4.826 -8.672,12.602 0.071,7.679 3.246,12.448 8.285,12.448 z m 0.211,-21.167 c 3.371,0 3.875,5.349 3.875,8.538 0,3.267 -0.508,8.747 -3.91,8.747 -2.392,0 -3.877,-3.271 -3.877,-8.537 0,-5.314 1.535,-8.748 3.912,-8.748 z"
             inkscape:connector-curvature="0"
             style="fill:#003080;fill-opacity:1" />
        </g>
        <g
           id="g4646"
           style="fill:#003080;fill-opacity:1">
          <path
             id="path4648"
             d="m 224.204,196.982 c 0.212,0.094 0.454,0.083 0.658,-0.026 l 2.927,-1.58 0,18.688 c 0,0.414 0.336,0.75 0.75,0.75 l 2.979,0 c 0.414,0 0.75,-0.336 0.75,-0.75 l 0,-22.779 c 0,-0.414 -0.336,-0.75 -0.75,-0.75 l -2.629,0 c -0.123,0 -0.245,0.03 -0.354,0.089 l -4.977,2.663 c -0.304,0.163 -0.458,0.511 -0.374,0.845 l 0.594,2.348 c 0.057,0.224 0.214,0.409 0.426,0.502 z"
             inkscape:connector-curvature="0"
             style="fill:#003080;fill-opacity:1" />
        </g>
        <g
           id="g4650"
           style="fill:#003080;fill-opacity:1">
          <path
             id="path4652"
             d="m 245.77,214.063 c 0,0.414 0.336,0.75 0.75,0.75 l 2.979,0 c 0.414,0 0.75,-0.336 0.75,-0.75 l 0,-22.779 c 0,-0.414 -0.336,-0.75 -0.75,-0.75 l -2.627,0 c -0.123,0 -0.245,0.03 -0.354,0.089 l -4.977,2.663 c -0.304,0.163 -0.458,0.511 -0.374,0.845 l 0.594,2.348 c 0.057,0.224 0.214,0.41 0.426,0.502 0.212,0.094 0.454,0.083 0.658,-0.026 l 2.925,-1.579 0,18.687 z"
             inkscape:connector-curvature="0"
             style="fill:#003080;fill-opacity:1" />
        </g>
        <g
           id="g4654"
           style="fill:#003080;fill-opacity:1">
          <path
             id="path4656"
             d="m 265.027,215.198 c 5.51,0 8.67,-4.654 8.67,-12.77 0,-7.689 -3.098,-12.28 -8.285,-12.28 -5.348,0 -8.67,4.826 -8.67,12.602 0.071,7.679 3.246,12.448 8.285,12.448 z m 0.211,-21.167 c 3.371,0 3.875,5.349 3.875,8.538 0,3.267 -0.508,8.747 -3.912,8.747 -2.391,0 -3.875,-3.271 -3.875,-8.537 0,-5.314 1.535,-8.748 3.912,-8.748 z"
             inkscape:connector-curvature="0"
             style="fill:#003080;fill-opacity:1" />
        </g>
        <g
           id="g4658"
           style="fill:#003080;fill-opacity:1">
          <path
             id="path4660"
             d="m 285.461,190.534 -2.629,0 c -0.123,0 -0.245,0.03 -0.354,0.089 l -4.975,2.663 c -0.304,0.163 -0.458,0.511 -0.374,0.844 l 0.592,2.348 c 0.057,0.225 0.214,0.41 0.426,0.503 0.211,0.094 0.454,0.083 0.658,-0.026 l 2.927,-1.579 0,18.686 c 0,0.414 0.336,0.75 0.75,0.75 l 2.979,0 c 0.414,0 0.75,-0.336 0.75,-0.75 l 0,-22.779 c 0,-0.413 -0.336,-0.749 -0.75,-0.749 z"
             inkscape:connector-curvature="0"
             style="fill:#003080;fill-opacity:1" />
        </g>
        <g
           id="g4662"
           style="fill:#003080;fill-opacity:1">
          <path
             id="path4664"
             d="m 301.375,190.148 c -5.348,0 -8.67,4.826 -8.67,12.602 0.069,7.678 3.244,12.447 8.285,12.447 5.51,0 8.67,-4.654 8.67,-12.77 0,-7.688 -3.097,-12.279 -8.285,-12.279 z m -0.211,21.168 c -2.391,0 -3.875,-3.271 -3.875,-8.537 0,-5.314 1.535,-8.748 3.91,-8.748 3.371,0 3.875,5.349 3.875,8.538 0,3.266 -0.508,8.747 -3.91,8.747 z"
             inkscape:connector-curvature="0"
             style="fill:#003080;fill-opacity:1" />
        </g>
        <g
           id="g4666"
           style="fill:#003080;fill-opacity:1">
          <path
             id="path4668"
             d="m 320.357,190.148 c -5.349,0 -8.672,4.826 -8.672,12.602 0.071,7.678 3.246,12.447 8.285,12.447 5.511,0 8.672,-4.654 8.672,-12.77 0,-7.688 -3.097,-12.279 -8.285,-12.279 z m -0.21,21.168 c -2.392,0 -3.877,-3.271 -3.877,-8.537 0,-5.314 1.535,-8.748 3.912,-8.748 3.371,0 3.875,5.349 3.875,8.538 0,3.266 -0.508,8.747 -3.91,8.747 z"
             inkscape:connector-curvature="0"
             style="fill:#003080;fill-opacity:1" />
        </g>
        <g
           id="g4670"
           style="fill:#003080;fill-opacity:1">
          <path
             id="path4672"
             d="m 340.404,190.534 -2.627,0 c -0.123,0 -0.245,0.03 -0.354,0.089 l -4.977,2.663 c -0.304,0.163 -0.458,0.511 -0.374,0.845 l 0.594,2.348 c 0.057,0.224 0.214,0.41 0.426,0.502 0.213,0.094 0.454,0.083 0.658,-0.026 l 2.925,-1.579 0,18.686 c 0,0.414 0.336,0.75 0.75,0.75 l 2.979,0 c 0.414,0 0.75,-0.336 0.75,-0.75 l 0,-22.779 c 0,-0.413 -0.336,-0.749 -0.75,-0.749 z"
             inkscape:connector-curvature="0"
             style="fill:#003080;fill-opacity:1" />
        </g>
        <g
           id="g4674"
           style="fill:#003080;fill-opacity:1">
          <path
             id="path4676"
             d="m 339.334,262.98 -293.492,0 0,-178.067 128.992,0 0,-20 -138.668,0 c -5.701,0 -10.324,4.622 -10.324,10.324 l 0,187.743 -7.508,0 C 8.209,262.98 0,271.188 0,281.314 c 0,10.125 8.209,18.333 18.334,18.333 l 321,0 c 10.125,0 18.334,-8.208 18.334,-18.333 0,-10.126 -8.209,-18.334 -18.334,-18.334 z m -150.822,23.656 -19.355,0 c -2.939,0 -5.322,-2.383 -5.322,-5.322 0,-2.939 2.383,-5.322 5.322,-5.322 l 19.355,0 c 2.939,0 5.322,2.383 5.322,5.322 0,2.939 -2.383,5.322 -5.322,5.322 z"
             inkscape:connector-curvature="0"
             style="fill:#003080;fill-opacity:1" />
          <path
             id="path4678"
             d="m 192.102,257.262 c 5.51,0 8.67,-4.655 8.67,-12.771 0,-7.689 -3.098,-12.28 -8.285,-12.28 -5.348,0 -8.67,4.826 -8.67,12.603 0.071,7.678 3.246,12.448 8.285,12.448 z m 0.211,-21.167 c 3.37,0 3.873,5.349 3.873,8.537 0,3.267 -0.508,8.747 -3.91,8.747 -2.391,0 -3.875,-3.271 -3.875,-8.537 -0.001,-5.314 1.535,-8.747 3.912,-8.747 z"
             inkscape:connector-curvature="0"
             style="fill:#003080;fill-opacity:1" />
        </g>
        <g
           id="g4680"
           style="fill:#003080;fill-opacity:1">
          <path
             id="path4682"
             d="m 212.469,232.211 c -5.349,0 -8.672,4.826 -8.672,12.603 0.071,7.678 3.246,12.448 8.285,12.448 5.511,0 8.672,-4.655 8.672,-12.771 0,-7.689 -3.098,-12.28 -8.285,-12.28 z m -0.211,21.168 c -2.392,0 -3.877,-3.271 -3.877,-8.537 0,-5.313 1.535,-8.747 3.912,-8.747 3.371,0 3.875,5.349 3.875,8.537 0,3.266 -0.508,8.747 -3.91,8.747 z"
             inkscape:connector-curvature="0"
             style="fill:#003080;fill-opacity:1" />
        </g>
        <g
           id="g4684"
           style="fill:#003080;fill-opacity:1">
          <path
             id="path4686"
             d="m 232.449,232.211 c -5.348,0 -8.67,4.826 -8.67,12.603 0.069,7.678 3.243,12.448 8.283,12.448 5.511,0 8.672,-4.655 8.672,-12.771 0,-7.689 -3.097,-12.28 -8.285,-12.28 z m -0.211,21.168 c -2.392,0 -3.877,-3.271 -3.877,-8.537 0,-5.313 1.535,-8.747 3.912,-8.747 3.373,0 3.877,5.349 3.877,8.537 0,3.266 -0.507,8.747 -3.912,8.747 z"
             inkscape:connector-curvature="0"
             style="fill:#003080;fill-opacity:1" />
        </g>
        <g
           id="g4688"
           style="fill:#003080;fill-opacity:1">
          <path
             id="path4690"
             d="m 252.498,232.597 -2.627,0 c -0.123,0 -0.245,0.03 -0.354,0.089 l -4.977,2.664 c -0.304,0.163 -0.458,0.511 -0.374,0.845 l 0.594,2.348 c 0.057,0.224 0.214,0.41 0.426,0.503 0.213,0.093 0.454,0.083 0.658,-0.026 l 2.925,-1.579 0,18.686 c 0,0.414 0.336,0.75 0.75,0.75 l 2.979,0 c 0.414,0 0.75,-0.336 0.75,-0.75 l 0,-22.779 c 0,-0.415 -0.336,-0.751 -0.75,-0.751 z"
             inkscape:connector-curvature="0"
             style="fill:#003080;fill-opacity:1" />
        </g>
        <g
           id="g4692"
           style="fill:#003080;fill-opacity:1">
          <path
             id="path4694"
             d="m 268.412,232.211 c -5.348,0 -8.67,4.826 -8.67,12.603 0.071,7.678 3.246,12.448 8.285,12.448 5.51,0 8.67,-4.655 8.67,-12.771 0,-7.689 -3.097,-12.28 -8.285,-12.28 z m -0.211,21.168 c -2.391,0 -3.875,-3.271 -3.875,-8.537 0,-5.313 1.535,-8.747 3.912,-8.747 3.371,0 3.875,5.349 3.875,8.537 0,3.266 -0.508,8.747 -3.912,8.747 z"
             inkscape:connector-curvature="0"
             style="fill:#003080;fill-opacity:1" />
        </g>
      </g>
      <g
         id="g4696"
         style="fill:#003080;fill-opacity:1" />
      <g
         id="g4698"
         style="fill:#003080;fill-opacity:1" />
      <g
         id="g4700"
         style="fill:#003080;fill-opacity:1" />
      <g
         id="g4702"
         style="fill:#003080;fill-opacity:1" />
      <g
         id="g4704"
         style="fill:#003080;fill-opacity:1" />
      <g
         id="g4706"
         style="fill:#003080;fill-opacity:1" />
      <g
         id="g4708"
         style="fill:#003080;fill-opacity:1" />
      <g
         id="g4710"
         style="fill:#003080;fill-opacity:1" />
      <g
         id="g4712"
         style="fill:#003080;fill-opacity:1" />
      <g
         id="g4714"
         style="fill:#003080;fill-opacity:1" />
      <g
         id="g4716"
         style="fill:#003080;fill-opacity:1" />
      <g
         id="g4718"
         style="fill:#003080;fill-opacity:1" />
      <g
         id="g4720"
         style="fill:#003080;fill-opacity:1" />
      <g
         id="g4722"
         style="fill:#003080;fill-opacity:1" />
      <g
         id="g4724"
         style="fill:#003080;fill-opacity:1" />
    </g>
    <rect
       style="fill:#c7dff1;fill-opacity:1;stroke:#000000;stroke-width:10.56315573;stroke-linejoin:bevel;stroke-miterlimit:4;stroke-dasharray:none;stroke-opacity:1"
       id="rect4835"
       width="387.46634"
       height="251.59393"
       x="-250.07053"
       y="349.02771"
       transform="matrix(0.99997769,-0.0066804,0.44959537,0.89323234,0,0)" />
    <g
       style="font-style:normal;font-variant:normal;font-weight:normal;font-stretch:normal;font-size:232.28605652px;line-height:125%;font-family:'Arial Rounded MT Bold';-inkscape-font-specification:'Arial Rounded MT Bold, ';letter-spacing:0px;word-spacing:0px;fill:#e6e6e6;fill-opacity:1;stroke:#fffafc;stroke-width:9.607;stroke-linecap:butt;stroke-linejoin:miter;stroke-miterlimit:4;stroke-dasharray:none;stroke-opacity:1"
       id="text4831">
      <path
         d="m 155.9272,488.59669 -7.93947,-20.86945 -67.598868,0 -7.939465,21.32313 q -4.650258,12.4763 -7.939465,16.89972 -3.289207,4.30999 -10.774988,4.30999 -6.351572,0 -11.228672,-4.65025 -4.877099,-4.65026 -4.877099,-10.54815 0,-3.40263 1.134209,-7.0321 1.134209,-3.62947 3.74289,-10.09446 L 85.03912,369.9584 q 1.814735,-4.65026 4.309995,-11.11525 2.608681,-6.57842 5.444204,-10.88841 2.948944,-4.31 7.599201,-6.91868 4.76368,-2.7221 11.68236,-2.7221 7.03209,0 11.68235,2.7221 4.76368,2.60868 7.5992,6.80526 2.94895,4.19657 4.8771,9.07367 2.04158,4.76368 5.10395,12.81657 l 43.44021,107.29619 q 5.10394,12.24946 5.10394,17.80709 0,5.78446 -4.8771,10.66156 -4.76368,4.76368 -11.56893,4.76368 -3.96973,0 -6.80526,-1.47447 -2.83552,-1.36105 -4.76368,-3.74289 -1.92815,-2.49526 -4.19657,-7.48578 -2.155,-5.10394 -3.74289,-8.96025 z m -66.691506,-46.16232 49.678366,0 -25.06603,-68.61966 -24.612336,68.61966 z"
         style="font-style:normal;font-variant:normal;font-weight:normal;font-stretch:normal;font-family:'Arial Rounded MT Bold';-inkscape-font-specification:'Arial Rounded MT Bold, ';fill:#e6e6e6;fill-opacity:1;stroke:#000000;stroke-width:9.607;stroke-miterlimit:4;stroke-dasharray:none;stroke-opacity:1"
         id="path4238" />
      <path
         d="m 217.85502,489.7309 0,-131.00117 q 0,-10.20789 4.65026,-15.31183 4.65025,-5.10394 12.02261,-5.10394 7.59921,0 12.24946,5.10394 4.76368,4.99052 4.76368,15.31183 l 0,131.00117 q 0,10.3213 -4.76368,15.42524 -4.65025,5.10394 -12.24946,5.10394 -7.25894,0 -12.02261,-5.10394 -4.65026,-5.21736 -4.65026,-15.42524 z"
         style="font-style:normal;font-variant:normal;font-weight:normal;font-stretch:normal;font-family:'Arial Rounded MT Bold';-inkscape-font-specification:'Arial Rounded MT Bold, ';fill:#e6e6e6;fill-opacity:1;stroke:#000000;stroke-width:9.607;stroke-miterlimit:4;stroke-dasharray:none;stroke-opacity:1"
         id="path4240" />
    </g>
  </g>
</svg>
