<?xml version="1.0" encoding="UTF-8" standalone="no"?>
<!-- Created with Inkscape (http://www.inkscape.org/) -->

<svg
   xmlns:dc="http://purl.org/dc/elements/1.1/"
   xmlns:cc="http://creativecommons.org/ns#"
   xmlns:rdf="http://www.w3.org/1999/02/22-rdf-syntax-ns#"
   xmlns:svg="http://www.w3.org/2000/svg"
   xmlns="http://www.w3.org/2000/svg"
   xmlns:sodipodi="http://sodipodi.sourceforge.net/DTD/sodipodi-0.dtd"
   xmlns:inkscape="http://www.inkscape.org/namespaces/inkscape"
   width="200mm"
   height="200mm"
   viewBox="0 0 708.66142 708.66141"
   id="svg2"
   version="1.1"
   inkscape:version="0.91 r13725"
   sodipodi:docname="options.svg">
  <defs
     id="defs4" />
  <sodipodi:namedview
     id="base"
     pagecolor="#ffffff"
     bordercolor="#666666"
     borderopacity="1.0"
     inkscape:pageopacity="0.0"
     inkscape:pageshadow="2"
     inkscape:zoom="1.5206567"
     inkscape:cx="397.65784"
     inkscape:cy="275.41743"
     inkscape:document-units="px"
     inkscape:current-layer="layer1"
     showgrid="false"
     inkscape:window-width="1280"
     inkscape:window-height="961"
     inkscape:window-x="-8"
     inkscape:window-y="-8"
     inkscape:window-maximized="1" />
  <metadata
     id="metadata7">
    <rdf:RDF>
      <cc:Work
         rdf:about="">
        <dc:format>image/svg+xml</dc:format>
        <dc:type
           rdf:resource="http://purl.org/dc/dcmitype/StillImage" />
        <dc:title />
      </cc:Work>
    </rdf:RDF>
  </metadata>
  <g
     inkscape:label="Ebene 1"
     inkscape:groupmode="layer"
     id="layer1"
     transform="translate(0,-343.70079)">
    <g
       transform="matrix(1.3137062,0,0,1.3137062,15.253327,256.37382)"
       id="layer1-2"
       inkscape:label="Layer 1"
       style="fill:#5c5e62;fill-opacity:0.38499999;stroke:#000000;stroke-width:15.22410414;stroke-miterlimit:4;stroke-dasharray:none;stroke-opacity:1">
      <g
         id="g2246"
         style="fill:#5c5e62;fill-opacity:0.38499999;stroke:#000000;stroke-width:15.22410414;stroke-miterlimit:4;stroke-dasharray:none;stroke-opacity:1">
        <path
           style="fill:#5c5e62;fill-opacity:0.38500001;stroke:#000000;stroke-width:20;stroke-miterlimit:4;stroke-dasharray:none;stroke-opacity:1"
           d="M 208.70508 53.396484 L 206.25 53.75 C 204.88024 53.947345 203.0934 54.46919 202.20898 54.931641 C 201.33697 55.387602 199.29996 56.009717 197.68164 56.3125 C 196.06333 56.615283 193.77764 57.279594 192.60352 57.789062 C 191.42939 58.298534 189.6556 58.819573 188.66211 58.947266 C 187.66862 59.074892 185.82108 59.600551 184.55664 60.115234 C 183.2922 60.629918 181.22966 61.284686 179.97266 61.570312 C 176.41787 62.378021 176.11352 62.867304 175.55273 68.683594 C 175.36727 70.607241 174.84903 73.712351 174.40039 75.582031 C 173.95175 77.451711 173.34413 81.41992 173.05078 84.400391 C 172.75743 87.380862 172.1664 91.267832 171.73828 93.039062 C 171.31014 94.810283 170.72019 98.726579 170.42773 101.74219 C 170.13528 104.75777 169.62192 108.33469 169.28516 109.68945 C 168.94837 111.04421 168.50241 113.11298 168.29492 114.28711 C 167.79789 117.09974 167.00076 118.32465 165.0918 119.21094 C 164.23723 119.6077 163.16838 120.2718 162.7168 120.68555 C 162.26521 121.0993 161.37831 121.69669 160.74609 122.01367 C 160.11387 122.33066 159.18448 122.93419 158.67969 123.35547 C 158.1749 123.77673 157.14051 124.40029 156.38086 124.74023 C 155.62121 125.08017 154.70527 125.68744 154.34766 126.08984 C 153.99007 126.49226 153.24029 127.01186 152.67969 127.24609 C 152.11909 127.48033 150.95839 128.2073 150.10156 128.86133 C 149.24474 129.51536 148.34482 130.05078 148.10156 130.05078 C 147.85832 130.05078 147.22028 130.42146 146.68359 130.87305 C 145.50552 131.86433 144.32875 131.90412 142.37891 131.01953 C 141.57906 130.65667 139.58847 130.1292 137.95703 129.84766 C 136.3256 129.56612 134.30652 128.98899 133.46875 128.56445 C 132.63098 128.13992 130.68781 127.57271 129.15234 127.30469 C 127.61688 127.03668 125.48993 126.456 124.42383 126.01367 C 122.57922 125.24835 120.67913 124.74565 117.98047 124.31055 C 117.30978 124.2024 115.9561 123.74605 114.9707 123.29492 C 113.9853 122.8438 111.9212 122.25451 110.38477 121.98633 C 108.84833 121.71815 106.80387 121.14185 105.8418 120.70508 C 104.87972 120.26832 102.78924 119.6682 101.19727 119.37305 C 99.605281 119.0779 97.389031 118.40369 96.271484 117.875 C 93.284399 116.46186 92.671334 116.56121 90.492188 118.80273 C 87.528201 121.85156 82.853196 127.15947 77.060547 134.05273 C 76.101833 135.19361 74.772468 136.77446 74.105469 137.56641 C 73.438467 138.35835 72.435144 139.46648 71.876953 140.0293 C 71.318762 140.59211 70.768484 141.31301 70.654297 141.63086 C 70.318382 142.5659 70.99944 145.37112 71.888672 146.71484 C 72.341609 147.39928 72.928681 148.67387 73.191406 149.54688 C 73.45413 150.41985 74.039205 151.69441 74.492188 152.37891 C 74.945169 153.06341 75.549658 154.42931 75.835938 155.41406 C 76.122214 156.3988 76.719154 157.69453 77.162109 158.29492 C 77.605065 158.89531 78.202005 160.19298 78.488281 161.17773 C 78.774558 162.16249 79.364377 163.50851 79.800781 164.16797 C 80.237188 164.82741 80.80954 166.08015 81.072266 166.95312 C 81.33499 167.82613 81.920068 169.10066 82.373047 169.78516 C 82.826029 170.46966 83.449034 171.89376 83.755859 172.94922 C 84.062686 174.00466 84.671383 175.40845 85.109375 176.07031 C 85.547371 176.73217 86.109046 178.04477 86.357422 178.98633 C 86.605799 179.92787 87.186932 181.2442 87.648438 181.91016 C 88.109939 182.5761 88.71523 183.88893 88.994141 184.82812 C 89.27305 185.76735 89.976153 187.29973 90.556641 188.23438 C 91.531597 189.80407 91.613281 190.15015 91.613281 192.76172 C 91.613281 195.40726 91.542793 195.69855 90.515625 197.29883 C 89.911902 198.2394 89.205731 199.7115 88.947266 200.57031 C 88.6888 201.42913 88.12 202.67062 87.683594 203.33008 C 87.24719 203.98953 86.655417 205.33556 86.369141 206.32031 C 86.082864 207.30505 85.483234 208.6075 85.035156 209.21484 C 84.587077 209.82218 83.97398 211.19393 83.673828 212.26367 C 83.253679 213.76107 82.721126 214.64829 81.359375 216.11914 C 79.461256 218.16934 78.841622 218.46869 74.931641 219.2168 C 73.538623 219.48332 71.680852 220.06479 70.802734 220.50977 C 69.924618 220.95474 68.187689 221.49056 66.943359 221.70117 C 65.69903 221.91177 63.695415 222.51129 62.490234 223.0332 C 61.285053 223.55513 59.188785 224.19549 57.832031 224.45508 C 56.475279 224.71467 54.579581 225.29283 53.619141 225.74023 C 52.658702 226.18764 50.617425 226.80466 49.082031 227.11133 C 47.546637 227.418 45.613574 228.00962 44.787109 228.42773 C 43.960645 228.84585 42.039364 229.42426 40.517578 229.71289 C 38.995793 230.00153 37.057355 230.60138 36.208984 231.04492 C 35.360614 231.48847 33.61033 232.02525 32.320312 232.23828 C 29.025531 232.78241 28.81175 233.0278 28.070312 237.11719 C 27.726435 239.01385 27.218689 241.4533 26.943359 242.53711 C 26.66803 243.62092 26.221645 246.94726 25.951172 249.92773 C 25.680699 252.90821 25.00692 257.46975 24.453125 260.06641 C 23.895049 262.68314 23.543773 265.09953 23.666016 265.48633 C 24.078903 266.79274 25.544702 268.36264 27.072266 269.13672 C 27.910463 269.56147 28.808754 270.16622 29.068359 270.48047 C 29.327963 270.79472 30.278468 271.37997 31.181641 271.78125 C 32.084814 272.18253 33.117008 272.83705 33.474609 273.23438 C 33.832212 273.63165 34.645362 274.17383 35.28125 274.43945 C 35.917139 274.70507 36.806226 275.26732 37.257812 275.68945 C 37.709402 276.11157 38.679441 276.75901 39.414062 277.12695 C 40.148689 277.4949 40.952435 278.03858 41.199219 278.33594 C 41.446002 278.63329 42.249752 279.18194 42.984375 279.55469 C 43.718997 279.92745 44.731542 280.57799 45.236328 281 C 45.741113 281.422 46.7755 282.04509 47.535156 282.38672 C 48.294811 282.72835 49.274976 283.39887 49.712891 283.875 C 50.150808 284.35113 50.694293 284.74023 50.919922 284.74023 C 51.145551 284.74023 51.99755 285.24948 52.814453 285.87305 C 53.631358 286.4966 54.873014 287.29953 55.572266 287.65625 C 56.27152 288.01299 57.044233 288.54835 57.291016 288.8457 C 57.537799 289.14306 58.312466 289.67843 59.011719 290.03516 C 59.710972 290.39189 60.952627 291.19286 61.769531 291.81641 C 62.586434 292.43997 63.471002 292.95117 63.736328 292.95117 C 64.001653 292.95117 64.607906 293.34033 65.083984 293.81641 C 65.560057 294.29249 66.610565 295.07054 67.417969 295.54492 C 69.661539 296.86311 70.124233 297.69635 70.462891 301.03711 C 70.947074 305.8135 71.43065 309.05289 72.074219 311.83594 C 72.809437 315.01529 73.50962 322.23401 73.228516 323.73242 C 73.095588 324.44098 72.112703 325.86544 70.386719 327.84961 C 65.737453 333.19436 65.194293 333.81634 64.001953 335.1543 C 62.134814 337.24947 57.929494 342.25501 56.142578 344.50977 C 55.239405 345.64941 53.983787 347.15156 53.351562 347.84766 C 52.719341 348.54376 51.609257 349.79167 50.886719 350.62305 C 50.16418 351.45443 49.097211 352.67534 48.513672 353.33398 C 46.958973 355.08878 44.548966 357.95279 42.677734 360.27148 C 41.774561 361.39063 40.558965 362.80075 39.978516 363.4043 C 39.398065 364.00785 38.826749 364.89213 38.707031 365.36914 C 38.407755 366.56157 39.343489 370.15247 40.351562 371.67578 C 40.808876 372.36683 41.399384 373.64657 41.662109 374.51953 C 41.924834 375.39253 42.509909 376.66706 42.962891 377.35156 C 43.415872 378.03607 44.020364 379.40196 44.306641 380.38672 C 44.592916 381.37147 45.189858 382.66717 45.632812 383.26758 C 46.07577 383.86797 46.65804 385.11215 46.927734 386.03125 C 47.197429 386.95036 47.781138 388.23125 48.224609 388.87891 C 48.668081 389.52656 49.28353 390.93163 49.591797 392 C 50.017234 393.47446 50.526835 394.3178 51.705078 395.50195 L 53.257812 397.0625 L 79.591797 397.0625 C 105.10855 397.0625 105.96352 397.08259 107.1875 397.70703 C 107.88225 398.06147 108.94491 398.98523 109.54688 399.75977 C 111.3035 402.02006 119.0267 410.92289 121.46484 413.49805 C 122.57965 414.6755 124.44907 417.16071 124.68555 417.7793 C 124.7949 418.06536 124.59805 419.69166 124.24805 421.39258 C 123.89804 423.09354 123.39425 427.06335 123.12695 430.21484 C 122.85966 433.36636 122.27547 437.72709 121.82812 439.9043 C 121.38081 442.08153 120.78378 446.52201 120.50195 449.77344 C 120.22012 453.02486 119.76855 456.7199 119.5 457.98438 C 118.55617 462.42831 118.39684 463.42131 118.04102 466.98047 C 117.55037 471.88832 117.84979 472.97691 119.98828 474.06055 C 120.85859 474.50156 121.99704 475.21401 122.51953 475.64258 C 123.04203 476.07114 123.93967 476.60968 124.51367 476.83984 C 125.08767 477.07001 125.82708 477.55541 126.15625 477.91992 C 126.48542 478.28445 127.56706 478.99369 128.56055 479.49609 C 129.55404 479.99848 130.64808 480.72248 130.99219 481.10352 C 131.33629 481.48453 131.80604 481.79687 132.03516 481.79688 C 132.26428 481.79688 133.11699 482.30347 133.92969 482.92383 C 134.74239 483.54416 135.89894 484.30008 136.5 484.60352 C 137.10106 484.90698 137.96248 485.50047 138.41406 485.92188 C 138.86565 486.34325 139.75254 486.90374 140.38477 487.16797 C 141.01699 487.43218 142.11296 488.10762 142.82031 488.66992 C 143.52766 489.23225 144.46437 489.78262 144.90234 489.89258 C 146.01005 490.17062 148.08469 489.48683 149.16211 488.48828 C 149.65916 488.02763 150.58465 487.4348 151.21875 487.16992 C 151.85286 486.90505 152.74177 486.33924 153.19336 485.91406 C 153.64495 485.48884 154.58518 484.90632 155.2832 484.61914 C 155.98121 484.332 157.03197 483.6907 157.61914 483.19336 C 158.20631 482.69603 159.4624 481.84464 160.41016 481.30273 C 164.20679 479.1319 165.02207 478.62047 165.74219 477.95508 C 166.15506 477.57358 167.06565 477.02594 167.76367 476.73828 C 168.46168 476.45058 169.52333 475.78439 170.12305 475.25781 C 170.72277 474.73128 171.55437 474.19348 171.97266 474.0625 C 172.39095 473.93152 173.16078 473.46674 173.68164 473.03125 C 174.20251 472.59572 175.2369 471.935 175.98047 471.5625 C 176.72405 471.19 177.70076 470.53931 178.15234 470.11719 C 178.60393 469.69505 179.51044 469.12736 180.16602 468.85352 C 180.82159 468.57967 181.80596 467.97833 182.35352 467.51758 C 182.90108 467.05686 183.84625 466.4723 184.45312 466.21875 C 185.06003 465.96518 185.84747 465.43246 186.20508 465.03516 C 186.56268 464.63789 187.64377 463.96248 188.60742 463.53516 C 189.57108 463.10785 190.82117 462.37071 191.38477 461.89648 C 192.25691 461.16265 192.61877 461.06294 193.8125 461.22656 C 194.5839 461.33229 195.92074 461.78735 196.7832 462.23828 C 197.64566 462.68918 199.60718 463.29453 201.14258 463.58203 C 202.67797 463.86951 204.72004 464.45956 205.67969 464.89453 C 206.63934 465.32953 208.59864 465.90915 210.03516 466.18164 C 211.47165 466.45414 213.2741 466.95889 214.03906 467.30469 C 214.80402 467.65052 216.01821 468.17829 216.73828 468.47656 C 218.602 469.2486 219.43198 470.14898 220.20898 472.24414 C 220.58314 473.25304 221.24663 474.59957 221.68359 475.23633 C 222.12055 475.87308 222.69099 477.10554 222.95312 477.97656 C 223.21529 478.84755 223.80093 480.12018 224.25391 480.80469 C 224.70689 481.48919 225.31139 482.85509 225.59766 483.83984 C 225.88393 484.8246 226.48827 486.13062 226.93945 486.74219 C 227.39065 487.35372 227.91485 488.45044 228.10352 489.17773 C 228.29218 489.90504 228.88714 491.12452 229.42578 491.88867 C 229.96443 492.65285 230.63116 494.04172 230.9082 494.97461 C 231.18525 495.90754 231.76659 497.20558 232.19922 497.85938 C 232.63185 498.5131 233.20016 499.76181 233.46289 500.63477 C 233.72562 501.50776 234.29469 502.76197 234.72852 503.42188 C 235.16234 504.08172 235.76194 505.34371 236.06055 506.22656 C 236.35915 507.1094 236.96402 508.30364 237.4043 508.88086 C 237.84457 509.4581 238.44442 510.75866 238.73828 511.76953 C 239.03214 512.78039 239.55958 513.97229 239.91016 514.41797 C 240.26073 514.86364 240.84102 515.91045 241.19922 516.74609 C 241.57709 517.62762 242.16399 518.3934 242.59766 518.57031 C 243.02977 518.74668 249.97582 518.84682 259.0625 518.80859 L 274.7793 518.74414 L 276.2168 517.10156 C 277.07823 516.11661 277.84912 514.80136 278.14258 513.81641 C 278.41168 512.91323 278.99403 511.6457 279.4375 510.99805 C 279.88097 510.35039 280.48058 509.00567 280.76953 508.01172 C 281.05848 507.01774 281.65665 505.71367 282.09961 505.11328 C 282.54256 504.51288 283.14421 503.19693 283.43555 502.1875 C 283.72689 501.17809 284.29892 499.90714 284.70703 499.36523 C 285.11513 498.82333 285.63757 497.78894 285.86914 497.06641 C 286.10069 496.34387 286.77998 494.94076 287.37695 493.94727 C 287.97394 492.95378 288.61625 491.54567 288.80469 490.81836 C 288.99313 490.09107 289.51562 488.9963 289.9668 488.38477 C 290.41799 487.7732 291.02232 486.46718 291.30859 485.48242 C 291.59488 484.49767 292.18825 483.14925 292.62695 482.48633 C 293.06567 481.82339 293.65046 480.5177 293.92773 479.58398 C 294.20502 478.65027 294.80858 477.43649 295.26953 476.88867 C 295.7305 476.34086 296.25609 475.33626 296.4375 474.65625 C 296.61892 473.97621 297.34932 472.4463 298.06055 471.25586 C 299.30551 469.17208 299.45583 469.04815 302.05859 467.91797 C 303.54553 467.27232 305.98082 466.51294 307.4707 466.23047 C 308.96058 465.94796 310.77668 465.41206 311.50781 465.03906 C 312.23894 464.66608 314.41994 464.00833 316.35352 463.57812 C 318.28711 463.14798 320.72807 462.40122 321.77734 461.91797 C 324.00151 460.89361 325.36453 460.98734 326.89062 462.27148 C 327.42173 462.71834 328.36953 463.29873 328.99609 463.56055 C 329.62265 463.82234 330.55958 464.39017 331.07812 464.82422 C 331.59671 465.25827 332.76908 465.99138 333.68359 466.45312 C 334.59812 466.91488 335.54774 467.53459 335.79297 467.83008 C 336.0382 468.12553 336.76746 468.58925 337.41406 468.85938 C 338.06067 469.12947 338.95857 469.7024 339.41016 470.13281 C 339.86174 470.56318 340.89943 471.20063 341.71484 471.54883 C 342.53026 471.89703 343.40701 472.43439 343.66406 472.74414 C 343.9211 473.05385 344.82242 473.6565 345.66602 474.08398 C 346.50965 474.51146 347.62594 475.21938 348.14844 475.65625 C 348.67096 476.09312 349.44106 476.55848 349.85938 476.68945 C 350.27767 476.82043 351.11119 477.35823 351.71094 477.88477 C 352.31064 478.41134 353.31619 479.05665 353.94727 479.32031 C 354.5783 479.58397 355.52052 480.15502 356.03906 480.58789 C 356.55762 481.02076 357.49864 481.63719 358.13086 481.95898 C 358.76308 482.28078 359.70411 482.89917 360.22266 483.33203 C 360.74122 483.7649 361.70186 484.34335 362.35742 484.61719 C 363.013 484.89103 363.91951 485.46798 364.37109 485.90039 C 364.82268 486.3328 365.72725 486.9117 366.38281 487.18555 C 367.03839 487.45939 367.99903 488.03538 368.51758 488.4668 C 370.14074 489.81735 370.90872 490.08531 372.48047 489.84961 C 373.46953 489.70132 374.33867 489.27688 375.15234 488.54688 C 375.81565 487.95178 376.70084 487.3587 377.11914 487.22852 C 377.53741 487.09829 378.37096 486.56169 378.9707 486.03516 C 379.57041 485.5086 380.55821 484.86999 381.16797 484.61523 C 381.77773 484.36044 382.75455 483.69419 383.33789 483.13672 C 383.92126 482.57922 384.61038 482.12305 384.86914 482.12305 C 385.12791 482.12305 386.0416 481.58958 386.89844 480.93555 C 387.75526 480.28152 388.91401 479.55455 389.47461 479.32031 C 390.03519 479.08608 390.78695 478.5645 391.14453 478.16211 C 391.50212 477.75968 392.39714 477.16135 393.13281 476.83203 C 393.86846 476.50269 395.00749 475.80456 395.66602 475.28125 C 396.32455 474.75791 397.29224 474.1527 397.81641 473.93555 C 398.99287 473.44825 399.51172 472.36977 399.51172 470.41016 C 399.51172 467.17056 398.45303 457.54637 397.67969 453.76172 C 397.23139 451.5679 396.65178 447.26219 396.39062 444.19141 C 395.92612 438.72875 395.7758 437.69538 394.77734 433.04102 C 394.17895 430.25153 393.13132 418.35546 393.39258 417.31445 C 393.56314 416.63503 394.6117 415.29226 398.05273 411.34766 C 398.68302 410.62512 399.7507 409.39934 400.42383 408.62305 C 401.60377 407.26231 402.34077 406.42498 405.33398 403.05664 C 406.09754 402.19737 407.60377 400.5335 408.68164 399.35938 L 410.64258 397.22461 L 437.3457 397.06055 C 462.09308 396.90835 464.12692 396.85538 465.11328 396.31641 C 466.3304 395.6513 466.91939 394.82398 467.51172 392.95508 C 467.7407 392.23254 468.28492 391.10321 468.7207 390.44336 C 469.15646 389.78348 469.72749 388.52925 469.99023 387.65625 C 470.25294 386.78329 470.82531 385.52858 471.26172 384.86914 C 471.69809 384.20969 472.28792 382.86561 472.57422 381.88086 C 472.86048 380.89611 473.45744 379.59844 473.90039 378.99805 C 474.34335 378.39764 474.9356 377.11383 475.2168 376.14648 C 475.49802 375.17914 476.15967 373.71011 476.68555 372.88086 C 477.21142 372.05165 477.74111 370.90934 477.86328 370.3418 C 477.98543 369.77421 478.30503 368.88207 478.57227 368.35938 C 479.2746 366.98571 479.17045 365.39469 478.29883 364.15039 C 477.63291 363.19975 475.72424 360.95983 471.08203 355.67969 C 467.38437 351.47394 463.72725 347.14981 461.0918 343.86719 C 460.18862 342.74222 458.85926 341.17079 458.13672 340.375 C 457.41418 339.57921 456.27877 338.3005 455.61328 337.5332 C 454.94782 336.76591 453.88967 335.54676 453.26172 334.82422 C 451.49669 332.79343 449.42916 330.32376 447.62695 328.0918 C 446.72378 326.97325 445.5419 325.53041 445 324.88477 C 443.75314 323.3992 443.74268 321.79691 444.94922 316.73047 C 445.41854 314.75984 445.9559 311.37465 446.14258 309.20703 C 446.75153 302.13645 447.16265 299.79144 448.13477 297.85547 C 448.85838 296.41435 449.33316 295.90302 450.38281 295.42969 C 451.11459 295.09971 451.97538 294.53937 452.29688 294.18359 C 452.61834 293.82782 453.55667 293.19336 454.38086 292.77539 C 455.20508 292.35742 456.08061 291.77285 456.32812 291.47461 C 456.57568 291.17636 457.38061 290.62666 458.11523 290.25391 C 458.84986 289.88116 459.86241 289.2306 460.36719 288.80859 C 460.87199 288.38659 461.90638 287.76155 462.66602 287.41992 C 463.42568 287.07829 464.40583 286.40971 464.84375 285.93359 C 465.28169 285.45747 465.82515 285.06836 466.05078 285.06836 C 466.2764 285.06836 467.13036 284.55716 467.94727 283.93359 C 468.76417 283.31004 470.00388 282.50908 470.70312 282.15234 C 471.40241 281.79562 472.17705 281.26025 472.42383 280.96289 C 472.67061 280.66553 473.44332 280.13017 474.14258 279.77344 C 474.84182 279.41671 476.08349 278.61379 476.90039 277.99023 C 477.71728 277.36667 478.56372 276.85742 478.7832 276.85742 C 479.00267 276.85742 479.73205 276.33925 480.40234 275.70703 C 481.0726 275.07481 481.83118 274.55859 482.08789 274.55859 C 482.34459 274.55859 483.22216 274.04739 484.03906 273.42383 C 484.85596 272.80028 486.09568 271.99932 486.79492 271.64258 C 487.49418 271.28585 488.27005 270.74941 488.51758 270.45117 C 488.76509 270.15292 489.66408 269.55651 490.51562 269.125 C 492.17388 268.28471 493.33666 267.04876 493.65234 265.79102 C 493.94182 264.63767 493.19294 258.17187 492.2793 253.93945 C 491.83934 251.90145 491.25889 247.8357 490.99023 244.90625 C 490.37907 238.24198 490.0611 236.56713 489.01953 234.51172 C 488.145 232.78594 487.82605 232.61368 484.42969 232.03125 C 483.71713 231.90906 482.4457 231.46093 481.60547 231.03516 C 480.76525 230.60938 478.76888 230.01483 477.16797 229.71484 C 475.56701 229.41486 473.58595 228.8195 472.76562 228.39062 C 471.94539 227.96178 470.02767 227.37457 468.50586 227.08594 C 466.9841 226.7973 465.02433 226.19874 464.15039 225.75586 C 463.27641 225.31298 461.35513 224.72107 459.88086 224.44141 C 458.40655 224.16174 456.51392 223.58585 455.67383 223.16016 C 454.83374 222.73446 452.90839 222.15009 451.39648 221.86328 C 449.88461 221.57649 447.85432 220.97902 446.88477 220.53516 C 445.91522 220.09129 443.93145 219.50256 442.47656 219.22656 C 439.64789 218.68998 436.78939 217.35414 436.14844 216.26953 C 435.93253 215.9042 435.29002 214.82282 434.71875 213.86719 C 434.14748 212.91156 433.45201 211.34761 433.17383 210.39062 C 432.89562 209.43368 432.30624 208.15898 431.86328 207.55859 C 431.42033 206.9582 430.83608 205.71596 430.56641 204.79688 C 430.2967 203.87775 429.71301 202.59492 429.26953 201.94727 C 428.82606 201.29961 428.22734 199.97024 427.93945 198.99219 C 427.65154 198.01413 426.97616 196.56245 426.4375 195.76758 C 425.06453 193.74138 425.06885 191.55805 426.45117 189.49609 C 426.99608 188.68324 427.66407 187.26675 427.93555 186.34766 C 428.20702 185.42857 428.79139 184.18437 429.23438 183.58398 C 429.67733 182.98359 430.26958 181.70174 430.55078 180.73438 C 430.83201 179.767 431.4851 178.30715 432.00195 177.49219 C 432.51877 176.67724 433.04176 175.46125 433.16406 174.78906 C 433.28647 174.11689 433.83504 172.76607 434.38281 171.78711 C 434.93059 170.80814 435.59954 169.26527 435.86914 168.35742 C 436.13875 167.44957 436.71851 166.18112 437.1582 165.53906 C 437.59786 164.897 438.17951 163.61831 438.44922 162.69922 C 438.7189 161.78014 439.30119 160.53789 439.74414 159.9375 C 440.1871 159.33711 440.78406 158.03943 441.07031 157.05469 C 441.35661 156.06993 441.96106 154.70404 442.41406 154.01953 C 442.86703 153.33504 443.45406 152.06242 443.7168 151.18945 C 443.9795 150.31648 444.54784 149.06586 444.98047 148.41211 C 445.93967 146.96264 446.80664 144.15753 446.80664 142.5 C 446.80664 141.49882 446.49006 140.89918 445.08203 139.23438 C 440.94799 134.34639 438.18701 131.13257 437.35547 130.24023 C 436.86349 129.71226 435.67103 128.38289 434.70703 127.28516 C 433.74303 126.18742 432.41367 124.6795 431.75195 123.93555 C 431.09024 123.1916 430.25385 122.22196 429.89258 121.78125 C 425.49517 116.41698 424.78027 116.12832 420.83594 118.10742 C 420.00975 118.52199 418.02698 119.08863 416.42969 119.36719 C 414.83234 119.64573 412.77372 120.22792 411.85547 120.66016 C 410.93727 121.09238 408.95697 121.6756 407.45508 121.95703 C 405.95321 122.23848 403.74104 122.86289 402.53906 123.34375 C 401.33711 123.82461 399.17835 124.42277 397.74023 124.67383 C 396.30213 124.92489 394.31543 125.50022 393.32617 125.95312 C 392.33689 126.40607 390.47859 126.94562 389.19727 127.15234 C 387.91598 127.35907 385.8328 127.93659 384.56836 128.43555 C 383.30392 128.93452 381.07599 129.56865 379.61719 129.84375 C 378.15834 130.11884 376.19518 130.64657 375.25391 131.01758 C 372.91636 131.93896 371.91628 131.87446 370.44727 130.70703 C 369.76536 130.16513 369.03789 129.72266 368.83203 129.72266 C 368.62617 129.72266 367.9689 129.27453 367.37109 128.72852 C 366.77327 128.1825 365.76219 127.5182 365.125 127.25195 C 364.48779 126.98572 363.47666 126.33711 362.87695 125.81055 C 362.27721 125.28399 361.44366 124.74582 361.02539 124.61523 C 360.60709 124.4846 359.77932 123.95542 359.18555 123.4375 C 358.59175 122.91957 357.55737 122.26648 356.88672 121.98633 C 356.21603 121.70618 355.29729 121.13232 354.8457 120.71094 C 354.39412 120.28955 353.50722 119.6877 352.875 119.375 C 350.0569 117.98113 349.40246 116.7756 348.9375 112.11719 C 348.7411 110.1494 348.2191 106.98651 347.77734 105.08984 C 347.33557 103.19318 346.74732 99.276872 346.46875 96.386719 C 346.19022 93.496565 345.60783 89.654002 345.17578 87.847656 C 344.74374 86.04131 344.15258 82.125002 343.86133 79.144531 C 343.57011 76.16406 343.10631 72.837714 342.83008 71.753906 C 342.55385 70.670099 342.04505 68.232601 341.70117 66.335938 C 341.24867 63.840208 340.90059 62.742885 340.4375 62.365234 C 340.08556 62.078229 338.73765 61.668818 337.44336 61.455078 C 336.14907 61.241325 334.39878 60.71669 333.55469 60.289062 C 332.71059 59.861438 330.81805 59.285047 329.34766 59.007812 C 327.87724 58.730568 325.65902 58.096335 324.41992 57.599609 C 323.18081 57.102884 320.98609 56.443579 319.54102 56.134766 C 318.09594 55.82594 315.95342 55.161642 314.7793 54.658203 C 311.86981 53.410681 308.40758 53.308471 307.59766 54.445312 C 307.30235 54.859816 306.12042 56.18918 304.97266 57.400391 C 303.82491 58.611615 302.49796 60.119732 302.02344 60.751953 C 301.18944 61.863138 294.5742 69.542281 292.375 71.951172 C 291.78178 72.600944 290.1601 74.374735 288.77148 75.892578 C 285.72736 79.219999 278.78941 87.18506 276.51758 89.960938 C 275.61441 91.06449 274.08236 92.628743 273.11328 93.4375 L 271.34961 94.908203 L 259.64648 94.908203 C 252.16277 94.907034 247.46894 94.775727 246.62891 94.544922 C 245.31954 94.185163 243.2902 92.319298 240.06055 88.507812 C 239.33801 87.655112 238.15613 86.32109 237.43359 85.542969 C 235.25821 83.200263 233.56574 81.316101 232.17969 79.695312 C 231.45715 78.850402 230.08352 77.326755 229.12695 76.308594 C 228.17038 75.290419 226.84091 73.774611 226.17383 72.941406 C 224.76356 71.179989 215.73818 60.877783 213.91406 58.947266 C 213.23134 58.224727 211.78032 56.678956 210.68945 55.513672 L 208.70508 53.396484 z M 255.36328 195.4668 C 256.32591 195.45935 257.33652 195.46008 258.39648 195.46875 C 259.60787 195.47865 260.88462 195.49883 262.23047 195.5293 C 271.58374 195.74103 274.31983 196.01989 277.26367 197.05469 C 278.29825 197.41836 280.4739 197.94428 282.09961 198.22461 C 283.81313 198.52008 285.61782 199.06207 286.39258 199.51367 C 287.12764 199.94212 288.75394 200.53044 290.00586 200.82031 C 291.25778 201.11018 292.80538 201.70955 293.44531 202.15234 C 294.08525 202.59515 295.41461 203.19314 296.40039 203.48242 C 297.38617 203.77169 298.48834 204.27815 298.84961 204.60742 C 299.21088 204.93668 300.39263 205.59444 301.47461 206.07031 C 302.55659 206.54619 303.7399 207.21713 304.10547 207.56055 C 304.47102 207.90398 305.28626 208.40521 305.91602 208.67383 C 307.05217 209.15844 309.64886 210.94652 311.78516 212.71484 C 312.39695 213.22125 313.16658 213.78551 313.49609 213.96875 C 315.4919 215.07852 326.95734 226.53143 328.05859 228.51562 C 328.25104 228.86239 328.82139 229.64603 329.32617 230.25781 C 331.41182 232.78563 332.55211 234.41976 333.36914 236.05078 C 333.8442 236.99911 334.36719 237.77539 334.53125 237.77539 C 334.69529 237.77539 335.31819 238.84664 335.91602 240.15625 C 336.51384 241.46584 337.24278 242.73369 337.53516 242.97461 C 337.82752 243.21553 338.29779 244.20862 338.58008 245.17969 C 338.86238 246.15075 339.52237 247.65227 340.04688 248.51758 C 340.57135 249.38289 341.16089 250.88005 341.35742 251.84375 C 341.55397 252.80745 342.09211 254.24191 342.55469 255.03125 C 343.07912 255.92609 343.56652 257.52062 343.84961 259.26953 C 344.09936 260.8122 344.60808 262.76023 344.97852 263.59766 C 345.82404 265.50913 346.1875 267.83807 346.61719 274.06641 C 346.8041 276.77593 347.03214 279.97025 347.12305 281.16406 C 347.29613 283.43679 346.88728 291.23034 346.27148 297.38477 C 346.04388 299.65959 345.60929 301.78859 345.09961 303.13281 C 344.65438 304.30694 344.09188 306.47334 343.84961 307.94922 C 343.5836 309.56961 343.07804 311.19946 342.57227 312.0625 C 342.1116 312.84857 341.49851 314.50609 341.21094 315.74609 C 340.92337 316.9861 340.34497 318.46113 339.92578 319.02344 C 339.50659 319.58576 338.9116 320.82536 338.60156 321.7793 C 338.29151 322.73323 337.70663 323.91706 337.30273 324.4082 C 336.89885 324.89935 336.31134 325.95791 335.99609 326.76172 C 335.68086 327.56551 335.00321 328.7009 334.49023 329.28516 C 333.97725 329.86941 333.44984 330.69105 333.32031 331.10938 C 332.98612 332.18877 329.33014 337.2216 326.76562 340.13281 C 325.03282 342.09992 316.89032 350.24928 315.06445 351.84375 C 312.68905 353.91809 310.78528 355.36296 309.71484 355.90234 C 309.15806 356.18289 308.33245 356.75636 307.88086 357.17773 C 307.42927 357.59911 306.52471 358.16756 305.86914 358.44141 C 305.21356 358.71525 304.24157 359.30545 303.71094 359.75195 C 303.18031 360.19844 302.09179 360.82072 301.29102 361.13477 C 300.49025 361.44881 299.4302 362.03848 298.93555 362.44531 C 298.44091 362.85217 297.25903 363.4126 296.30859 363.69141 C 295.35817 363.9702 294.03387 364.57353 293.36523 365.03125 C 292.6966 365.48898 291.15496 366.09312 289.93945 366.375 C 288.72395 366.6569 287.12764 367.23995 286.39258 367.66992 C 285.65752 368.09994 284.0203 368.61242 282.75586 368.80859 C 281.49142 369.00476 279.20141 369.52638 277.66602 369.9668 C 276.13062 370.40719 273.91436 370.92763 272.74023 371.12305 C 269.98282 371.58199 252.63325 371.8072 247.94336 371.44531 C 245.71563 371.27341 243.26049 370.84026 241.53906 370.31445 C 240.00367 369.8455 237.34743 369.23647 235.63672 368.96289 C 233.64807 368.64488 232.02865 368.17517 231.14648 367.6582 C 230.38762 367.21347 228.77611 366.61885 227.56445 366.33789 C 226.35281 366.05689 224.83073 365.46647 224.18164 365.02539 C 223.53255 364.58435 222.25771 363.97759 221.34961 363.67773 C 220.44152 363.37788 219.24159 362.78639 218.68359 362.36328 C 218.12562 361.9402 217.16498 361.4283 216.54883 361.22461 C 215.9327 361.02092 214.87882 360.42596 214.20703 359.90234 C 213.53523 359.37874 212.35335 358.67532 211.58008 358.33984 C 210.80679 358.00439 209.81682 357.34251 209.37891 356.86914 C 208.941 356.39579 208.41203 356.00781 208.20508 356.00781 C 207.99813 356.00781 207.24895 355.5214 206.53906 354.92578 C 205.82918 354.33017 204.7649 353.5442 204.17383 353.17969 C 202.25541 351.9966 196.53177 346.55657 192.93164 342.49414 C 192.11878 341.5769 191.07374 340.43737 190.60938 339.96094 C 190.14498 339.48451 189.21696 338.28255 188.54688 337.28906 C 186.11884 333.68922 185.07812 332.25448 184.74219 332.04688 C 184.55383 331.93042 183.97065 330.9496 183.44727 329.86914 C 182.9239 328.7887 182.26568 327.71393 181.98438 327.48047 C 181.70305 327.24701 181.23498 326.33893 180.94336 325.46094 C 180.65174 324.58296 179.9784 323.31679 179.44727 322.64844 C 178.91612 321.98009 178.48047 321.16901 178.48047 320.8457 C 178.48047 320.5224 177.95566 319.24999 177.3125 318.01758 C 176.66934 316.78518 175.98787 315.03794 175.79883 314.13477 C 175.6098 313.23159 175.03852 311.53155 174.5293 310.35742 C 174.02008 309.1833 173.35966 306.81759 173.0625 305.10156 C 172.76534 303.38553 172.15529 300.57931 171.70508 298.86328 C 169.94802 292.16603 169.96901 274.13549 171.74219 267.76367 C 172.20415 266.10366 172.85695 263.22174 173.19336 261.35938 C 173.52977 259.497 174.11299 257.45317 174.48828 256.81836 C 174.86358 256.18355 175.39533 254.69579 175.66992 253.51172 C 175.94454 252.32765 176.69032 250.36054 177.32617 249.14062 C 177.96201 247.92076 178.48047 246.65405 178.48047 246.32617 C 178.48047 245.9983 178.97445 245.01306 179.57812 244.13477 C 180.18183 243.25649 180.8558 241.99495 181.07422 241.33203 C 181.29265 240.6691 181.7046 239.93237 181.99023 239.69531 C 182.27586 239.45825 182.94447 238.35221 183.47656 237.23828 C 184.00864 236.12436 184.80274 234.87778 185.24023 234.4668 C 185.67771 234.0558 186.03516 233.54411 186.03516 233.33008 C 186.03516 233.11604 186.60423 232.29117 187.29883 231.49805 C 187.99341 230.70491 188.75471 229.68791 188.99219 229.23633 C 190.29117 226.76625 201.1675 215.86348 204.21094 213.98047 C 204.78102 213.62775 205.82918 212.85147 206.53906 212.25586 C 207.24895 211.66024 207.99813 211.17188 208.20508 211.17188 C 208.41203 211.17184 208.941 210.78805 209.37891 210.31836 C 209.81682 209.84867 210.9957 209.04812 212 208.53906 C 213.0043 208.03 214.01471 207.38777 214.24414 207.11133 C 214.47358 206.83487 215.2023 206.43232 215.86523 206.2168 C 216.52816 206.00126 217.66223 205.40519 218.38477 204.89258 C 219.1073 204.37997 220.41543 203.74658 221.29102 203.48438 C 222.16659 203.22214 223.42221 202.63635 224.08203 202.18359 C 224.74184 201.73084 226.29195 201.12856 227.52539 200.8457 C 228.75884 200.56285 230.38318 199.97124 231.13672 199.53125 C 231.95373 199.05422 233.70023 198.52765 235.46289 198.22656 C 237.0886 197.94888 239.67554 197.3417 241.21094 196.87695 C 244.20741 195.96996 248.62486 195.51893 255.36328 195.4668 z M 523.94336 364.7207 C 523.62645 364.74519 523.33994 364.89384 522.87109 365.18359 C 521.21793 366.20533 520.46467 367.21516 519.90039 369.17383 C 519.60958 370.18325 519.00936 371.50116 518.56641 372.10156 C 518.12345 372.70195 517.52526 374.00602 517.23633 375 C 516.94737 375.99395 516.34776 377.33669 515.9043 377.98438 C 515.46082 378.63203 514.87713 379.91489 514.60742 380.83398 C 514.33774 381.75309 513.75546 382.9953 513.3125 383.5957 C 512.86954 384.19609 512.27258 385.49376 511.98633 386.47852 C 511.70003 387.46327 511.09558 388.82917 510.64258 389.51367 C 510.18961 390.19818 509.60454 391.47272 509.3418 392.3457 C 509.07908 393.21866 508.50673 394.47141 508.07031 395.13086 C 507.63394 395.7903 507.04216 397.13634 506.75586 398.12109 C 506.4696 399.10585 505.87264 400.4035 505.42969 401.00391 C 504.98673 401.6043 504.38977 402.90001 504.10352 403.88477 C 503.81722 404.86952 503.21277 406.23542 502.75977 406.91992 C 502.3068 407.60443 501.72884 408.85639 501.47461 409.70117 C 500.9215 411.53901 498.24423 415.67636 497.45312 415.91602 C 497.14436 416.00955 496.18203 416.2419 495.31641 416.43164 C 494.45079 416.62137 493.19517 417.13324 492.52539 417.57031 C 491.85562 418.00738 490.36701 418.60499 489.2168 418.89844 C 488.06658 419.19192 486.36655 419.85313 485.43945 420.36719 C 484.51238 420.88124 482.97713 421.46373 482.02734 421.66016 C 481.07753 421.85659 479.74526 422.38474 479.06641 422.83398 C 477.08149 424.14753 476.13923 424.1849 473.96094 423.03906 C 472.9115 422.487 471.29205 421.80961 470.36133 421.5332 C 469.43063 421.25684 468.12588 420.67113 467.46289 420.23242 C 466.79992 419.79367 465.41386 419.2146 464.38281 418.94531 C 463.35174 418.67607 461.94857 418.08413 461.26367 417.63086 C 460.57873 417.1776 459.1531 416.55682 458.09766 416.25 C 457.0422 415.94316 455.63841 415.33252 454.97656 414.89453 C 454.31472 414.45654 453.00217 413.89487 452.06055 413.64648 C 451.11891 413.39809 449.79026 412.82688 449.10742 412.375 C 448.42456 411.92311 447.02128 411.33178 445.99023 411.0625 C 444.95916 410.79326 443.56008 410.20534 442.88086 409.75586 C 442.20163 409.30637 440.87576 408.70948 439.93359 408.42969 C 438.99142 408.14991 437.45506 407.48613 436.51953 406.95312 C 435.58398 406.42015 434.2679 405.88222 433.5957 405.75781 C 432.92355 405.6335 431.69407 405.10111 430.86328 404.57422 C 428.96772 403.37211 426.9185 402.81163 425.43555 403.08984 C 424.52274 403.26109 423.62553 404.01975 421.01562 406.82422 C 419.21418 408.76003 416.54947 411.60375 415.09375 413.14453 C 413.63807 414.68531 411.04357 417.49787 409.32812 419.39453 C 407.61273 421.29119 405.2205 423.87814 404.01172 425.14258 C 401.43628 427.83666 401.25029 428.68328 402.77734 430.75977 C 403.30821 431.48165 404.05253 432.90077 404.43164 433.91406 C 404.81076 434.92732 405.33057 435.93099 405.58789 436.14453 C 405.84522 436.35807 406.36045 437.34566 406.73242 438.33984 C 407.1044 439.33399 407.7838 440.63928 408.24219 441.24023 C 408.70054 441.84119 409.22829 442.89835 409.41602 443.58984 C 409.60374 444.28138 410.12833 445.33709 410.58008 445.93555 C 411.0318 446.53405 411.75413 447.92457 412.18555 449.02539 C 412.61693 450.12617 413.20146 451.28311 413.48438 451.5957 C 413.76728 451.9083 414.29747 452.95719 414.66406 453.92578 C 415.03069 454.89438 415.68448 456.1527 416.11719 456.72266 C 416.54991 457.29257 417.21004 458.57226 417.58203 459.56641 C 417.95399 460.56058 418.46729 461.54818 418.72461 461.76172 C 418.98194 461.97526 419.50482 462.98562 419.88672 464.00781 C 420.26861 465.03001 420.94651 466.34575 421.39258 466.93164 C 421.83865 467.51749 422.39918 468.64771 422.63867 469.44336 C 422.87813 470.23903 423.47483 471.41613 423.96484 472.05859 C 424.997 473.41178 425.78711 475.78645 425.78711 477.53906 C 425.78711 479.38709 424.8055 483.40805 423.92773 485.16211 C 423.49839 486.02009 422.93405 487.84442 422.67188 489.21484 C 422.40963 490.58528 421.81033 492.51546 421.3418 493.50586 C 420.87322 494.49626 420.32933 496.22021 420.13281 497.33594 C 419.81785 499.12405 419.59723 499.52982 418.26562 500.76172 C 417.43473 501.53039 415.95578 502.46086 414.97852 502.83008 C 414.00125 503.19933 412.78669 503.85237 412.2793 504.2793 C 411.77194 504.70621 410.62337 505.29848 409.72852 505.5957 C 408.83365 505.89293 407.90809 506.36777 407.67188 506.65234 C 407.43568 506.93696 406.20542 507.67964 404.9375 508.30273 C 400.72125 510.37471 397.98547 511.84005 397.01953 512.54102 C 396.49398 512.92238 395.5196 513.41098 394.85352 513.62695 C 394.1874 513.84297 393.28884 514.29739 392.85742 514.63672 C 392.42603 514.97609 391.19917 515.63885 390.13086 516.11133 C 389.06258 516.58378 387.89043 517.24893 387.52734 517.58789 C 387.16425 517.92687 386.03753 518.5125 385.02344 518.89062 C 384.00935 519.26877 382.92028 519.86481 382.60352 520.21484 C 382.28674 520.56485 381.30156 521.09192 380.41406 521.38672 C 379.52652 521.68151 378.3753 522.28133 377.85547 522.71875 C 377.33565 523.15615 376.33351 523.71818 375.62891 523.9668 C 374.92426 524.21542 373.50835 525.04773 372.48047 525.81641 C 370.76247 527.10121 370.61133 527.31699 370.61133 528.50195 C 370.61133 529.21093 370.97233 531.22192 371.41406 532.9707 C 371.87467 534.79413 372.43805 538.59472 372.73633 541.88086 C 373.02236 545.03244 373.53333 548.72751 373.87109 550.0918 C 374.64539 553.2196 374.87632 554.55274 375.20508 557.8125 C 375.41737 559.91735 375.60833 560.53957 376.19141 561.01172 C 377.32209 561.92731 380.83319 562.87406 385.02148 563.39258 C 387.12896 563.65352 390.05556 564.24663 391.52539 564.71094 C 392.99523 565.17527 395.90795 565.76613 397.99805 566.02539 C 400.08817 566.28469 402.96873 566.86673 404.39844 567.31836 C 405.82816 567.77001 408.726 568.36561 410.83789 568.64258 C 412.94978 568.91953 415.83169 569.51145 417.24219 569.95703 C 418.65267 570.4026 421.53036 570.99329 423.63672 571.26953 C 425.74309 571.54576 427.94648 571.9989 428.5332 572.27734 C 429.58929 572.77846 433.33984 577.37537 433.33984 578.16797 C 433.33984 578.38798 433.72387 578.92536 434.19336 579.36328 C 434.66281 579.80121 435.39091 580.83401 435.81055 581.6582 C 436.23014 582.48242 436.80732 583.3521 437.09375 583.58984 C 437.38019 583.82756 438.00746 584.7412 438.48633 585.62109 C 438.96524 586.50101 439.47032 587.2207 439.60938 587.2207 C 439.74837 587.2207 440.70066 588.62841 441.72656 590.34766 C 443.83263 593.87706 443.81558 593.64138 442.36328 598.71484 C 441.92375 600.25024 441.33434 603.48977 441.05469 605.91211 C 440.77505 608.33445 440.185 611.5851 439.74219 613.13672 C 439.29936 614.68834 438.70986 617.95401 438.43164 620.39258 C 438.15346 622.83115 437.56161 626.08179 437.11719 627.61719 C 436.67276 629.15258 436.08034 632.40323 435.80078 634.8418 C 435.52126 637.28036 434.92706 640.47998 434.48047 641.95117 C 433.28376 645.89363 433.3429 646.26008 435.4668 648.09375 C 436.45558 648.9474 437.87546 649.86123 438.62305 650.125 C 439.37064 650.38879 440.4893 651.04907 441.10742 651.5918 C 441.72556 652.13452 442.42618 652.57812 442.66406 652.57812 C 442.90194 652.57813 444.10813 653.24183 445.3457 654.05469 C 446.58331 654.86754 447.78181 655.5332 448.00977 655.5332 C 448.23776 655.5332 448.93069 655.9768 449.54883 656.51953 C 450.16697 657.06225 451.31606 657.73459 452.10156 658.01172 C 452.88709 658.28887 453.90132 658.86171 454.35547 659.28516 C 454.80962 659.70856 455.91745 660.37436 456.81836 660.76562 C 457.7193 661.15688 458.75367 661.74866 459.11719 662.08008 C 459.48072 662.41149 460.60809 663.08291 461.62109 663.57227 L 463.46289 664.46289 L 464.9043 663.74414 C 465.69764 663.34961 466.79013 662.60296 467.33203 662.08398 C 468.37616 661.08399 470.40099 659.37672 473.73633 656.68359 C 477.12635 653.94632 479.097 652.32481 480.30469 651.2793 C 480.93691 650.73198 482.04504 649.77696 482.76758 649.1582 C 483.49012 648.53949 484.91231 647.32009 485.92773 646.44727 C 486.94312 645.57441 488.62406 644.19372 489.66211 643.38086 C 493.10005 640.68871 495.90345 638.34394 498.58594 635.91602 C 500.28913 634.37445 502.1928 632.79852 504.57422 630.95703 L 506.41602 629.5332 L 511.26562 629.75 C 513.9334 629.86898 516.59405 630.10997 517.17773 630.28516 C 517.76145 630.46037 519.93833 630.75548 522.01562 630.94141 C 529.8633 631.64381 530.73851 631.75593 531.45117 632.15234 C 531.85345 632.37613 532.34817 632.86755 532.55078 633.24609 C 532.75334 633.62464 534.05997 635.2104 535.45508 636.76953 C 536.85016 638.32868 538.13396 639.86394 538.30859 640.17969 C 538.48321 640.4954 539.7284 641.94995 541.07617 643.41211 C 546.25828 649.03388 551.73944 655.28218 555.63086 660.00391 C 557.32965 662.06515 561.19595 666.41185 563.02734 668.32031 C 563.63664 668.95525 564.36025 669.81831 564.63672 670.24023 C 564.91316 670.66213 565.82013 671.36238 566.65039 671.79492 C 568.4884 672.75248 568.12078 672.72887 569.58398 671.98242 C 570.26255 671.63623 571.40109 671.25006 572.11523 671.125 C 572.82937 670.99996 574.17254 670.47862 575.09961 669.9668 C 576.0267 669.45498 577.72674 668.79739 578.87695 668.50391 C 580.02717 668.21046 581.52173 667.60818 582.19922 667.16602 C 582.87666 666.72389 584.40416 666.13721 585.59375 665.86133 C 586.78335 665.58545 588.32022 665.00436 589.00781 664.57031 C 589.69543 664.13622 591.165 663.54503 592.27344 663.25781 C 594.22843 662.75122 598.09134 660.87543 599.29492 659.84766 C 599.81843 659.40058 599.8652 658.95786 599.69727 656.04102 C 599.35045 650.01685 598.87519 628.60422 598.82812 616.86914 C 598.78854 606.98133 598.85626 605.19014 599.28516 604.55273 C 599.77931 603.81831 601.51827 601.92008 606.74805 596.41602 C 608.20692 594.88062 610.76364 592.18767 612.42773 590.43164 L 615.45312 587.24023 L 625.79883 586.87695 C 642.05621 586.30684 647.55063 586.0125 648.78906 585.64844 C 649.96378 585.30313 661.29619 584.78277 665.28516 584.89062 C 670.03017 585.01887 671.35171 583.99002 672.25 579.4668 C 672.56689 577.87121 673.16989 575.88737 673.58984 575.05859 C 674.00984 574.2298 674.58129 572.44364 674.86133 571.08789 C 675.14134 569.73217 675.74202 567.81243 676.19531 566.82227 C 676.64865 565.83213 677.26268 563.84693 677.55859 562.41016 C 677.85448 560.97342 678.45749 559.08015 678.90039 558.20312 C 679.80923 556.40364 680.70079 552.28029 680.37109 551.39844 C 680.12911 550.7512 676.51109 547.48047 676.03711 547.48047 C 675.87135 547.48047 675.26475 546.96425 674.68945 546.33203 C 674.11414 545.69981 673.48127 545.18164 673.2832 545.18164 C 673.08516 545.18164 672.11202 544.51793 671.12109 543.70508 C 670.13017 542.89222 669.2157 542.22656 669.08984 542.22656 C 668.96408 542.22656 668.15027 541.63997 667.28125 540.92383 C 666.41226 540.2077 664.99673 539.06269 664.13477 538.37891 C 663.27284 537.69512 662.01723 536.68246 661.34375 536.12891 C 660.67032 535.57534 659.4166 534.71927 658.55859 534.22656 C 657.70059 533.73388 656.99805 533.20127 656.99805 533.04297 C 656.99805 532.88467 656.44495 532.41729 655.76758 532.00391 C 655.0902 531.59048 654.15013 530.87731 653.67969 530.41797 C 653.20925 529.95859 652.19513 529.13956 651.42578 528.59766 C 650.65645 528.05575 649.19393 526.98915 648.17578 526.22852 C 647.15762 525.46785 645.95549 524.58797 645.50391 524.27344 C 645.05232 523.9589 644.06569 523.17796 643.31055 522.53711 C 642.55539 521.89624 641.01881 520.63169 639.89648 519.72852 C 636.93338 517.34397 636.30683 515.487 635.49023 506.67188 C 635.20171 503.55727 634.59183 499.47176 634.13672 497.59375 L 633.31055 494.17969 L 634.31641 492.7793 C 634.8699 492.00858 635.32227 491.22631 635.32227 491.04102 C 635.32227 490.85576 635.91418 490.02037 636.63672 489.18555 C 637.35926 488.35071 637.94922 487.52849 637.94922 487.35938 C 637.94922 487.19021 638.4471 486.49822 639.05469 485.82031 C 639.66232 485.14241 640.38854 484.14347 640.66797 483.60156 C 640.94742 483.05966 641.63142 482.18288 642.18945 481.65234 C 642.74748 481.1218 643.20508 480.52106 643.20508 480.31641 C 643.20508 480.11177 643.701 479.36223 644.30664 478.65234 C 644.91232 477.94244 645.63676 476.91886 645.91602 476.37695 C 646.19524 475.83505 646.88124 474.91358 647.44141 474.32812 C 648.00153 473.74271 648.45898 473.12248 648.45898 472.95117 C 648.45898 472.7799 649.01403 471.97486 649.69141 471.16211 C 651.07428 469.50286 652.56984 467.45167 653.55078 465.86914 C 653.91205 465.28635 654.7252 464.22208 655.35742 463.50391 C 655.98964 462.78577 656.7667 461.76879 657.08398 461.24219 C 657.40131 460.71559 658.32349 459.39631 659.13477 458.3125 C 659.94604 457.22869 661.1123 455.59654 661.72656 454.68555 C 662.34081 453.77453 663.09205 452.82523 663.39453 452.57422 C 664.13014 451.9637 665.20898 449.80454 665.20898 448.94531 C 665.20898 448.0803 663.62434 444.68359 663.2207 444.68359 C 663.05623 444.68359 662.56145 443.97249 662.12109 443.10352 C 661.68074 442.23453 660.79105 440.89099 660.14453 440.11719 C 659.49806 439.34338 658.96875 438.52707 658.96875 438.30469 C 658.96875 438.08232 658.57963 437.54339 658.10352 437.10547 C 657.6274 436.66754 656.96165 435.69234 656.62305 434.93945 C 656.28441 434.18659 655.49164 432.95368 654.86133 432.19922 C 654.231 431.44478 653.71484 430.64621 653.71484 430.42383 C 653.71484 430.20146 653.33082 429.66058 652.86133 429.22266 C 652.39188 428.78473 651.66809 427.76207 651.25391 426.94922 C 650.83973 426.13636 650.20929 425.20818 649.85352 424.88672 C 649.49772 424.56525 648.94576 423.72263 648.62695 423.01562 C 648.19038 422.04749 647.62083 421.50809 646.31836 420.82617 C 644.61011 419.93177 644.57383 419.92658 643.32227 420.48047 C 642.62542 420.7889 640.75278 421.26438 639.16016 421.53711 C 637.56752 421.80986 635.21598 422.39836 633.93555 422.8457 C 632.65514 423.29306 630.33765 423.88176 628.78516 424.15234 C 627.23266 424.42294 624.55783 425.07783 622.8418 425.60742 C 621.12577 426.13698 618.45566 426.80083 616.90625 427.08203 C 615.35686 427.36327 613.43363 427.88133 612.63477 428.23438 C 611.83593 428.58743 609.77197 429.10358 608.04688 429.38086 C 606.32178 429.65818 603.9377 430.25021 602.75 430.69727 C 600.47901 431.55205 595.58955 432.52994 593.57227 432.53125 C 591.98346 432.53266 589.70881 431.70007 588.69141 430.74609 C 588.23726 430.32026 587.09953 429.64865 586.16406 429.25195 C 585.22861 428.85524 584.21386 428.25377 583.9082 427.91602 C 583.60254 427.57822 582.8157 427.12972 582.16016 426.91992 C 581.50462 426.71012 580.46108 426.15019 579.8418 425.67578 C 579.22248 425.2014 578.01375 424.44377 577.15625 423.99219 C 572.00596 421.27991 570.68966 419.59128 569.82031 414.58008 C 569.53329 412.92553 568.93726 410.75544 568.49609 409.75781 C 568.05491 408.76021 567.4565 406.56786 567.16602 404.88477 C 566.87548 403.20171 566.27648 401.01107 565.83398 400.01758 C 565.3915 399.02409 564.82065 396.91885 564.56641 395.33984 C 564.3122 393.76083 563.72636 391.64345 563.26367 390.63281 C 562.80098 389.62218 562.18916 387.45042 561.9043 385.80859 C 561.61945 384.16675 561.03587 381.99067 560.60742 380.97266 C 560.17892 379.95463 559.60902 377.86035 559.33984 376.31836 C 558.80301 373.24267 557.53986 369.90225 556.28711 368.24219 C 555.61807 367.35563 555.26361 367.17578 554.19141 367.17578 C 553.48141 367.17578 551.90036 367.03237 550.67773 366.85742 C 549.45511 366.68246 543.51214 366.29644 537.47266 366 C 530.21623 365.64385 526.05341 365.30595 525.19727 365.00391 C 524.60776 364.79591 524.26027 364.69622 523.94336 364.7207 z M 526.43945 477.12109 C 529.82403 477.03904 533.20427 477.33025 535.16602 478.0293 C 535.97175 478.31641 538.03126 478.84217 539.74414 479.19727 C 541.57761 479.57732 543.33361 480.16177 544.01367 480.61914 C 544.64905 481.04642 545.93473 481.6408 546.86914 481.94141 C 547.80358 482.24198 548.75406 482.71315 548.98242 482.98828 C 549.21078 483.26344 550.14601 483.86721 551.06055 484.32812 C 553.1588 485.38573 554.38846 486.40264 558.56445 490.53906 C 561.68838 493.63341 562.46248 494.56343 563.96875 497.03125 C 564.28706 497.55273 565.04426 498.7346 565.65234 499.6582 C 566.26039 500.5818 566.97841 502.07534 567.24805 502.97852 C 567.51769 503.88169 568.09123 505.22586 568.52344 505.96484 C 568.99995 506.77958 569.57286 508.71815 569.97656 510.89062 C 571.81752 520.79742 571.90333 521.99012 571.08789 526.29688 C 570.81427 527.74195 570.30635 530.53767 569.95898 532.50781 C 569.51468 535.02779 569.08753 536.4393 568.51758 537.26953 C 568.07201 537.91859 567.52606 539.1732 567.30664 540.05664 C 567.08721 540.94007 566.48431 542.14498 565.9668 542.73438 C 565.44933 543.32377 564.84036 544.34211 564.61328 544.99805 C 564.38622 545.65395 563.71656 546.73908 563.125 547.41016 C 562.53344 548.08126 561.28094 549.53475 560.3418 550.64062 C 558.15021 553.22137 553.43862 557.38022 551.7168 558.25195 C 550.98217 558.6239 550.19305 559.15432 549.96289 559.43164 C 549.73273 559.709 548.70774 560.24586 547.68555 560.625 C 546.66337 561.0041 545.29808 561.67788 544.65234 562.12109 C 543.98241 562.58085 542.4304 563.13223 541.03906 563.4043 C 539.69782 563.66655 537.86216 564.16584 536.95898 564.51367 C 536.05581 564.86148 534.28202 565.28877 533.01758 565.46484 C 528.1124 566.14791 520.63306 565.78605 518.23828 564.75 C 517.51574 564.4374 515.6011 563.89606 513.98242 563.54688 C 512.36378 563.1977 510.51624 562.5732 509.87695 562.1582 C 509.2377 561.7432 508.00578 561.13844 507.14062 560.81445 C 506.27547 560.49045 505.16734 559.89424 504.67773 559.49023 C 504.18812 559.08624 503.29213 558.51457 502.6875 558.21875 C 502.08287 557.92297 500.9893 557.19564 500.25586 556.60352 C 497.67493 554.51985 492.10333 548.70314 491.24609 547.19727 C 490.76922 546.35949 490.04491 545.3051 489.63672 544.85352 C 489.22851 544.40193 488.59387 543.23531 488.22656 542.26172 C 487.85921 541.28809 487.24191 540.15363 486.85352 539.74023 C 486.43214 539.29171 485.96018 538.08494 485.68555 536.74805 C 485.43242 535.51586 484.84357 533.64323 484.375 532.58594 C 483.66288 530.97901 483.46742 529.85822 483.18359 525.75 C 482.70694 518.85098 483.18672 512.97177 484.49609 509.67188 C 485.0249 508.33922 485.63743 506.51059 485.85742 505.60742 C 486.07736 504.70425 486.6117 503.44667 487.04492 502.81445 C 487.47816 502.18223 488.06619 501.00365 488.35156 500.19336 C 488.63697 499.38307 489.20919 498.34673 489.625 497.89258 C 490.04083 497.43843 490.71243 496.51331 491.11719 495.83594 C 491.52194 495.15855 491.97402 494.60547 492.12109 494.60547 C 492.26816 494.60547 492.84039 493.90293 493.39258 493.04492 C 493.94477 492.1869 495.59749 490.44999 497.06641 489.18555 C 498.53535 487.9211 500.29844 486.40542 500.98242 485.81836 C 501.66638 485.23129 502.38026 484.75195 502.57031 484.75195 C 502.76037 484.75195 503.62663 484.20909 504.49414 483.54688 C 505.36165 482.88467 506.73613 482.14302 507.54883 481.89844 C 508.36149 481.65386 509.55078 481.09041 510.19141 480.64648 C 510.91222 480.14695 512.39494 479.64228 514.08203 479.32227 C 515.58147 479.03781 517.20383 478.64745 517.6875 478.45312 C 519.66537 477.65856 523.05488 477.20315 526.43945 477.12109 z "
           transform="matrix(0.76120521,0,0,0.76120521,-11.610912,66.473744)"
           id="path2248" />
      </g>
    </g>
  </g>
</svg>
