<?xml version="1.0" encoding="UTF-8" standalone="no"?>
<!-- Created with Inkscape (http://www.inkscape.org/) -->

<svg
   xmlns:dc="http://purl.org/dc/elements/1.1/"
   xmlns:cc="http://creativecommons.org/ns#"
   xmlns:rdf="http://www.w3.org/1999/02/22-rdf-syntax-ns#"
   xmlns:svg="http://www.w3.org/2000/svg"
   xmlns="http://www.w3.org/2000/svg"
   xmlns:sodipodi="http://sodipodi.sourceforge.net/DTD/sodipodi-0.dtd"
   xmlns:inkscape="http://www.inkscape.org/namespaces/inkscape"
   width="200mm"
   height="200mm"
   viewBox="0 0 708.66142 708.66141"
   id="svg2"
   version="1.1"
   inkscape:version="0.91 r13725"
   sodipodi:docname="right.svg">
  <defs
     id="defs4" />
  <sodipodi:namedview
     id="base"
     pagecolor="#ffffff"
     bordercolor="#666666"
     borderopacity="1.0"
     inkscape:pageopacity="0.0"
     inkscape:pageshadow="2"
     inkscape:zoom="0.53763333"
     inkscape:cx="51.150102"
     inkscape:cy="485.85283"
     inkscape:document-units="px"
     inkscape:current-layer="layer1"
     showgrid="false"
     inkscape:window-width="1280"
     inkscape:window-height="961"
     inkscape:window-x="-8"
     inkscape:window-y="-8"
     inkscape:window-maximized="1" />
  <metadata
     id="metadata7">
    <rdf:RDF>
      <cc:Work
         rdf:about="">
        <dc:format>image/svg+xml</dc:format>
        <dc:type
           rdf:resource="http://purl.org/dc/dcmitype/StillImage" />
        <dc:title />
      </cc:Work>
    </rdf:RDF>
  </metadata>
  <g
     inkscape:label="Ebene 1"
     inkscape:groupmode="layer"
     id="layer1"
     transform="translate(0,-343.70079)">
    <rect
       style="fill:#ffffff;fill-opacity:1;stroke:none;stroke-width:5.80000019;stroke-linejoin:bevel;stroke-miterlimit:4;stroke-dasharray:none;stroke-dashoffset:0;stroke-opacity:1"
       id="rect4211"
       width="735.20862"
       height="389.30545"
       x="-737.83917"
       y="598.6109"
       transform="scale(-1,1)" />
    <g
       id="g4185"
       transform="matrix(0,0.11416701,0.11416701,0,-44.123546,563.99789)"
       style="fill:#000000;stroke:none">
      <path
         id="path4187"
         d="M 456,7054 C 308,7018 147,6891 83,6759 15,6617 20,6891 20,3547 20,1402 23,506 31,468 71,275 228,102 422,39 l 73,-24 1465,0 1465,0 72,23 c 86,27 207,105 263,170 52,61 105,162 127,243 17,60 18,232 18,3099 l 0,3035 -27,80 c -67,197 -226,344 -420,390 -92,22 -2912,21 -3002,-1 z m 1912,-226 c 16,-16 15,-23 -4,-42 -13,-14 -64,-16 -399,-16 -211,0 -390,3 -399,6 -16,6 -22,45 -9,57 3,4 185,7 403,7 295,0 399,-3 408,-12 z m 1067,-303 25,-24 0,-2768 c -1,-2160 -3,-2771 -13,-2784 -7,-9 -22,-21 -34,-27 -16,-9 -385,-12 -1458,-12 l -1437,0 -29,29 -29,29 0,2757 c 0,2076 3,2762 12,2778 6,12 18,27 27,34 12,10 342,12 1464,13 l 1448,0 24,-25 z M 2050,650 c 22,-11 52,-39 67,-62 39,-59 40,-147 1,-205 -76,-115 -252,-108 -320,12 -28,50 -29,125 -3,179 41,86 164,122 255,76 z"
         inkscape:connector-curvature="0" />
    </g>
    <path
       style="fill:none;fill-rule:evenodd;stroke:#000000;stroke-width:7;stroke-linecap:butt;stroke-linejoin:miter;stroke-miterlimit:4;stroke-dasharray:56, 7;stroke-dashoffset:0;stroke-opacity:1"
       d="m 399.05547,617.06718 0,347.21841 -3.94567,0"
       id="path4195"
       inkscape:connector-curvature="0" />
    <path
       style="fill:none;fill-rule:evenodd;stroke:#000000;stroke-width:5;stroke-linecap:butt;stroke-linejoin:miter;stroke-miterlimit:4;stroke-dasharray:15, 15;stroke-dashoffset:0;stroke-opacity:1"
       d="m 702.87157,785.4155 -303.8161,0"
       id="path4197"
       inkscape:connector-curvature="0" />
    <g
       transform="scale(1,-1)"
       style="font-style:normal;font-weight:normal;font-size:112.1423645px;line-height:125%;font-family:sans-serif;letter-spacing:0px;word-spacing:0px;fill:#000000;fill-opacity:1;stroke:#000000;stroke-width:5.80000019;stroke-linecap:butt;stroke-linejoin:miter;stroke-miterlimit:4;stroke-dasharray:none;stroke-opacity:1"
       id="text4203">
      <path
         d="m 546.56349,-881.62352 q -2.24503,-9.25394 -3.77823,-11.44422 l -2.35455,2.57358 q -7.93977,10.13005 -7.93977,22.39562 0,14.45585 10.29432,24.75017 10.29432,10.23956 24.80493,10.23956 14.56536,0 24.85968,-10.23956 10.29432,-10.29432 10.29432,-24.85969 0,-13.96304 -10.29432,-24.85968 l 3.83299,-3.83299 q 11.82752,12.59411 11.82752,28.74743 0,16.75565 -11.88227,28.63792 -11.82752,11.82751 -28.63792,11.82751 -16.75565,0 -28.63792,-11.82751 -11.88227,-11.88227 -11.88227,-28.69268 0,-16.0438 11.88227,-28.69267 l -11.44422,-3.83299 26.06434,-6.95414 -7.0089,26.06434 z"
         style=""
         id="path4147" />
    </g>
    <g
       transform="scale(-1,1)"
       style="font-style:normal;font-weight:normal;font-size:112.1423645px;line-height:125%;font-family:sans-serif;letter-spacing:0px;word-spacing:0px;fill:#000000;fill-opacity:1;stroke:#000000;stroke-width:5.80000019;stroke-linecap:butt;stroke-linejoin:miter;stroke-miterlimit:4;stroke-dasharray:none;stroke-opacity:1"
       id="text4207">
      <path
         d="m -548.86896,693.40382 -7.0089,-26.06434 26.1191,6.95414 -11.44422,3.83299 q 11.82752,12.64887 11.82752,28.69268 0,16.8104 -11.88227,28.69267 -11.82752,11.82752 -28.63792,11.82752 -16.75565,0 -28.63792,-11.82752 -11.88227,-11.88227 -11.88227,-28.63792 0,-16.15331 11.88227,-28.74743 l 3.77823,3.83299 q -10.23956,10.89665 -10.23956,24.85969 0,14.56536 10.23956,24.85968 10.29432,10.23956 24.85969,10.23956 14.51061,0 24.80493,-10.23956 10.34907,-10.29432 10.34907,-24.75017 0,-10.29432 -5.58521,-19.05544 -3.88775,-6.07803 -4.70911,-5.91376 l -3.83299,11.44422 z"
         style=""
         id="path4144" />
    </g>
    <path
       style="fill:#faffff;fill-opacity:1;fill-rule:evenodd;stroke:#000000;stroke-width:15;stroke-linecap:round;stroke-linejoin:round;stroke-miterlimit:4;stroke-dasharray:none;stroke-opacity:1"
       d="m 650.26273,438.94736 -198.59841,0 97.32637,100.61442 101.27203,-99.95681"
       id="path4213"
       inkscape:connector-curvature="0"
       sodipodi:nodetypes="cccc" />
  </g>
</svg>
