<?xml version="1.0" encoding="UTF-8" standalone="no"?>
<!-- Created with Inkscape (http://www.inkscape.org/) -->

<svg
   xmlns:dc="http://purl.org/dc/elements/1.1/"
   xmlns:cc="http://creativecommons.org/ns#"
   xmlns:rdf="http://www.w3.org/1999/02/22-rdf-syntax-ns#"
   xmlns:svg="http://www.w3.org/2000/svg"
   xmlns="http://www.w3.org/2000/svg"
   xmlns:sodipodi="http://sodipodi.sourceforge.net/DTD/sodipodi-0.dtd"
   xmlns:inkscape="http://www.inkscape.org/namespaces/inkscape"
   width="200mm"
   height="200mm"
   viewBox="0 0 708.66142 708.66141"
   id="svg2"
   version="1.1"
   inkscape:version="0.91 r13725"
   sodipodi:docname="uhjk.svg">
  <defs
     id="defs4" />
  <sodipodi:namedview
     id="base"
     pagecolor="#ffffff"
     bordercolor="#666666"
     borderopacity="1.0"
     inkscape:pageopacity="0.0"
     inkscape:pageshadow="2"
     inkscape:zoom="0.76032835"
     inkscape:cx="391.00137"
     inkscape:cy="354.33071"
     inkscape:document-units="px"
     inkscape:current-layer="layer1"
     showgrid="false"
     inkscape:window-width="1280"
     inkscape:window-height="961"
     inkscape:window-x="-8"
     inkscape:window-y="-8"
     inkscape:window-maximized="1" />
  <metadata
     id="metadata7">
    <rdf:RDF>
      <cc:Work
         rdf:about="">
        <dc:format>image/svg+xml</dc:format>
        <dc:type
           rdf:resource="http://purl.org/dc/dcmitype/StillImage" />
        <dc:title />
      </cc:Work>
    </rdf:RDF>
  </metadata>
  <g
     inkscape:label="Ebene 1"
     inkscape:groupmode="layer"
     id="layer1"
     transform="translate(0,-343.70079)">
    <rect
       style="fill:#fcffff;fill-opacity:0;stroke:#000000;stroke-width:18.51795769;stroke-linejoin:bevel;stroke-miterlimit:4;stroke-dasharray:none;stroke-opacity:1"
       id="rect3336"
       width="231.48204"
       height="231.48204"
       x="241.7764"
       y="425.35361" />
    <rect
       style="fill:#fcffff;fill-opacity:0;stroke:#000000;stroke-width:18.51795769;stroke-linejoin:bevel;stroke-miterlimit:4;stroke-dasharray:none;stroke-opacity:1"
       id="rect3336-5"
       width="231.48204"
       height="231.48204"
       x="243.7997"
       y="694.82074" />
    <rect
       style="fill:#fcffff;fill-opacity:0;stroke:#000000;stroke-width:18.51795769;stroke-linejoin:bevel;stroke-miterlimit:4;stroke-dasharray:none;stroke-opacity:1"
       id="rect3336-59"
       width="231.48204"
       height="231.48204"
       x="515.67383"
       y="693.30524" />
    <rect
       style="fill:#fcffff;fill-opacity:0;stroke:#000000;stroke-width:18.51795769;stroke-linejoin:bevel;stroke-miterlimit:4;stroke-dasharray:none;stroke-opacity:1"
       id="rect3336-4"
       width="231.48204"
       height="231.48204"
       x="-27.512516"
       y="697.25098" />
    <g
       style="font-style:normal;font-variant:normal;font-weight:normal;font-stretch:normal;font-size:189.12928772px;line-height:125%;font-family:'Arial Rounded MT Bold';-inkscape-font-specification:'Arial Rounded MT Bold, ';letter-spacing:0px;word-spacing:0px;fill:#e6e6e6;fill-opacity:1;stroke:#000000;stroke-width:10;stroke-linecap:butt;stroke-linejoin:miter;stroke-miterlimit:4;stroke-dasharray:none;stroke-opacity:1"
       id="text3365">
      <path
         d="m 299.51041,553.29481 0,-65.10554 q 0,-8.31134 3.69393,-12.46702 3.78628,-4.15567 9.88127,-4.15567 6.37203,0 10.06596,4.15567 3.78628,4.15568 3.78628,12.46702 l 0,66.58312 q 0,11.35883 2.4934,19.02374 2.58576,7.57256 9.05014,11.82058 6.46438,4.15568 18.10026,4.15568 16.0686,0 22.71768,-8.49605 6.64907,-8.58839 6.64907,-25.94986 l 0,-67.13721 q 0,-8.40369 3.69394,-12.46702 3.69393,-4.15567 9.88126,-4.15567 6.18734,0 9.97362,4.15567 3.87863,4.06333 3.87863,12.46702 l 0,65.10554 q 0,15.88391 -3.13985,26.50396 -3.04749,10.62005 -11.63588,18.65435 -7.38786,6.83378 -17.17678,9.97362 -9.78892,3.13984 -22.90238,3.13984 -15.60686,0 -26.87335,-3.32454 -11.26649,-3.41688 -18.37731,-10.43535 -7.11081,-7.11082 -10.43535,-18.10027 -3.32454,-11.08179 -3.32454,-26.41161 z"
         style="fill:#e6e6e6;fill-opacity:1"
         id="path4155" />
    </g>
    <g
       style="font-style:normal;font-variant:normal;font-weight:normal;font-stretch:normal;font-size:189.12928772px;line-height:125%;font-family:'Arial Rounded MT Bold';-inkscape-font-specification:'Arial Rounded MT Bold, ';letter-spacing:0px;word-spacing:0px;fill:#e6e6e6;fill-opacity:1;stroke:#000000;stroke-width:10;stroke-linecap:butt;stroke-linejoin:miter;stroke-miterlimit:4;stroke-dasharray:none;stroke-opacity:1"
       id="text3369">
      <path
         d="m 52.850362,757.17914 0,38.78628 59.195248,0 0,-38.78628 q 0,-8.31135 3.69393,-12.46702 3.78628,-4.15567 9.88127,-4.15567 6.18734,0 9.97362,4.15567 3.87862,4.06333 3.87862,12.46702 l 0,106.66227 q 0,8.40369 -3.87862,12.55937 -3.87863,4.15567 -9.97362,4.15567 -6.18733,0 -9.88127,-4.15567 -3.69393,-4.24803 -3.69393,-12.55937 l 0,-45.52771 -59.195248,0 0,45.52771 q 0,8.40369 -3.878628,12.55937 -3.878627,4.15567 -9.973614,4.15567 -6.187335,0 -9.881267,-4.15567 -3.693931,-4.24803 -3.693931,-12.55937 l 0,-106.66227 q 0,-8.31135 3.601583,-12.46702 3.693931,-4.15567 9.973615,-4.15567 6.187335,0 9.973614,4.15567 3.878628,4.06333 3.878628,12.46702 z"
         style="fill:#e6e6e6;fill-opacity:1"
         id="path4146" />
    </g>
    <g
       style="font-style:normal;font-variant:normal;font-weight:normal;font-stretch:normal;font-size:189.12928772px;line-height:125%;font-family:'Arial Rounded MT Bold';-inkscape-font-specification:'Arial Rounded MT Bold, ';letter-spacing:0px;word-spacing:0px;fill:#e6e6e6;fill-opacity:1;stroke:#000000;stroke-width:10;stroke-linecap:butt;stroke-linejoin:miter;stroke-miterlimit:4;stroke-dasharray:none;stroke-opacity:1"
       id="text3373">
      <path
         d="m 396.07466,753.86395 0,70.92349 q 0,9.23483 -0.83114,15.69921 -0.73878,6.46438 -3.50923,13.11345 -4.61741,11.17414 -15.23747,17.45383 -10.62005,6.18733 -25.85752,6.18733 -13.75989,0 -22.99472,-4.34037 -9.14248,-4.34037 -14.77573,-14.03694 -2.95514,-5.1715 -4.80211,-11.91292 -1.84696,-6.74143 -1.84696,-12.83642 0,-6.46438 3.60158,-9.88126 3.60158,-3.41689 9.23483,-3.41689 5.44855,0 8.219,3.13984 2.77045,3.13984 4.24802,9.78892 1.56992,7.11082 3.13984,11.35884 1.56992,4.24802 5.26385,7.29551 3.69393,3.0475 10.52771,3.0475 18.19261,0 18.19261,-26.68866 l 0,-74.89446 q 0,-8.31134 3.60158,-12.46701 3.69393,-4.15568 9.97362,-4.15568 6.37203,0 10.06596,4.15568 3.78628,4.15567 3.78628,12.46701 z"
         style="fill:#e6e6e6;fill-opacity:1"
         id="path4152" />
    </g>
    <g
       style="font-style:normal;font-variant:normal;font-weight:normal;font-stretch:normal;font-size:195.57980347px;line-height:125%;font-family:'Arial Rounded MT Bold';-inkscape-font-specification:'Arial Rounded MT Bold, ';letter-spacing:0px;word-spacing:0px;fill:#e6e6e6;fill-opacity:1;stroke:#000000;stroke-width:10;stroke-linecap:butt;stroke-linejoin:miter;stroke-miterlimit:4;stroke-dasharray:none;stroke-opacity:1"
       id="text3377">
      <path
         d="m 602.38727,754.7381 0,49.08595 55.67531,-58.06276 q 4.01091,-4.20191 6.78035,-6.20736 2.86494,-2.00546 7.54434,-2.00546 6.11187,0 9.83629,3.62892 3.81992,3.53342 3.81992,8.69031 0,6.20737 -6.39837,12.31924 l -34.47476,32.6603 39.72715,56.91678 q 4.20191,5.92087 6.30286,10.40927 2.10096,4.39291 2.10096,8.59482 0,4.6794 -3.72442,8.11733 -3.62892,3.43792 -9.93179,3.43792 -5.92087,0 -9.64529,-2.48294 -3.72442,-2.57845 -6.30287,-6.78036 -2.57844,-4.20191 -4.5839,-7.63984 l -33.51978,-51.56889 -23.206,22.25102 0,28.93588 q 0,8.78581 -4.01091,13.08322 -4.01092,4.20191 -10.31378,4.20191 -3.62892,0 -6.97135,-1.90996 -3.34243,-1.90996 -5.15689,-5.15689 -1.33697,-2.67394 -1.62347,-6.20736 -0.28649,-3.53343 -0.28649,-10.21828 l 0,-104.09277 q 0,-8.59482 3.72442,-12.89222 3.81992,-4.29741 10.31378,-4.29741 6.39836,0 10.31378,4.29741 4.01091,4.20191 4.01091,12.89222 z"
         style="fill:#e6e6e6;fill-opacity:1"
         id="path4149" />
    </g>
  </g>
</svg>
