<?xml version="1.0" encoding="UTF-8" standalone="no"?>
<!-- Created with Inkscape (http://www.inkscape.org/) -->

<svg
   xmlns:dc="http://purl.org/dc/elements/1.1/"
   xmlns:cc="http://creativecommons.org/ns#"
   xmlns:rdf="http://www.w3.org/1999/02/22-rdf-syntax-ns#"
   xmlns:svg="http://www.w3.org/2000/svg"
   xmlns="http://www.w3.org/2000/svg"
   xmlns:sodipodi="http://sodipodi.sourceforge.net/DTD/sodipodi-0.dtd"
   xmlns:inkscape="http://www.inkscape.org/namespaces/inkscape"
   width="200mm"
   height="200mm"
   viewBox="0 0 708.66142 708.66141"
   id="svg2"
   version="1.1"
   inkscape:version="0.91 r13725"
   sodipodi:docname="upleftdownright.svg">
  <defs
     id="defs4" />
  <sodipodi:namedview
     id="base"
     pagecolor="#ffffff"
     bordercolor="#666666"
     borderopacity="1.0"
     inkscape:pageopacity="0.0"
     inkscape:pageshadow="2"
     inkscape:zoom="0.76032835"
     inkscape:cx="514.42345"
     inkscape:cy="406.93956"
     inkscape:document-units="px"
     inkscape:current-layer="layer1"
     showgrid="false"
     inkscape:window-width="1280"
     inkscape:window-height="961"
     inkscape:window-x="-8"
     inkscape:window-y="-8"
     inkscape:window-maximized="1" />
  <metadata
     id="metadata7">
    <rdf:RDF>
      <cc:Work
         rdf:about="">
        <dc:format>image/svg+xml</dc:format>
        <dc:type
           rdf:resource="http://purl.org/dc/dcmitype/StillImage" />
        <dc:title />
      </cc:Work>
    </rdf:RDF>
  </metadata>
  <g
     inkscape:label="Ebene 1"
     inkscape:groupmode="layer"
     id="layer1"
     transform="translate(0,-343.70079)">
    <rect
       style="fill:#fcffff;fill-opacity:0;stroke:#000000;stroke-width:18.51795769;stroke-linejoin:bevel;stroke-miterlimit:4;stroke-dasharray:none;stroke-opacity:1"
       id="rect3336"
       width="231.48204"
       height="231.48204"
       x="241.7764"
       y="425.35361" />
    <rect
       style="fill:#fcffff;fill-opacity:0;stroke:#000000;stroke-width:18.51795769;stroke-linejoin:bevel;stroke-miterlimit:4;stroke-dasharray:none;stroke-opacity:1"
       id="rect3336-5"
       width="231.48204"
       height="231.48204"
       x="243.7997"
       y="694.82074" />
    <rect
       style="fill:#fcffff;fill-opacity:0;stroke:#000000;stroke-width:18.51795769;stroke-linejoin:bevel;stroke-miterlimit:4;stroke-dasharray:none;stroke-opacity:1"
       id="rect3336-59"
       width="231.48204"
       height="231.48204"
       x="515.67383"
       y="693.30524" />
    <rect
       style="fill:#fcffff;fill-opacity:0;stroke:#000000;stroke-width:18.51795769;stroke-linejoin:bevel;stroke-miterlimit:4;stroke-dasharray:none;stroke-opacity:1"
       id="rect3336-4"
       width="231.48204"
       height="231.48204"
       x="-27.512516"
       y="697.25098" />
    <g
       style="font-style:normal;font-variant:normal;font-weight:normal;font-stretch:normal;font-size:189.12928772px;line-height:125%;font-family:'Arial Rounded MT Bold';-inkscape-font-specification:'Arial Rounded MT Bold, ';letter-spacing:0px;word-spacing:0px;fill:#e6e6e6;fill-opacity:1;stroke:#000000;stroke-width:6;stroke-linecap:butt;stroke-linejoin:miter;stroke-miterlimit:4;stroke-dasharray:none;stroke-opacity:1"
       id="text3365">
      <path
         d="m 294.67928,501.74336 q 13.3905,-12.28232 20.31662,-21.2401 7.01847,-8.95779 10.43535,-16.89974 l 4.24803,0 q 4.34036,9.14248 11.17414,17.73087 6.92612,8.58839 20.22427,20.50132 l 0,7.11082 q -18.562,-8.68074 -28.53562,-18.19261 l 0,136.12137 -9.32717,0 0,-136.12137 q -8.86544,7.01847 -13.29816,9.78891 -4.34037,2.77045 -15.23746,8.219 l 0,-7.01847 z"
         style="fill:#e6e6e6;fill-opacity:1"
         id="path4155" />
    </g>
    <g
       style="font-style:normal;font-variant:normal;font-weight:normal;font-stretch:normal;font-size:189.12928772px;line-height:125%;font-family:'Arial Rounded MT Bold';-inkscape-font-specification:'Arial Rounded MT Bold, ';letter-spacing:0px;word-spacing:0px;fill:#e6e6e6;fill-opacity:1;stroke:#000000;stroke-width:6;stroke-linecap:butt;stroke-linejoin:miter;stroke-miterlimit:4;stroke-dasharray:none;stroke-opacity:1"
       id="text3369">
      <path
         d="m 43.897856,781.35064 7.01847,0 q -5.448549,10.8971 -8.218998,15.32982 -2.6781,4.34037 -9.788918,13.2058 l 147.29551,0 0,9.32718 -147.29551,0 q 9.604222,9.97362 18.28496,28.53562 l -7.203166,0 Q 32.077275,834.45091 23.488885,827.61713 14.900494,820.69101 5.7580141,816.2583 l 0,-4.15568 q 8.0343009,-3.41688 16.9920849,-10.43535 8.957783,-7.01847 21.147757,-20.31663 z"
         style="fill:#e6e6e6;fill-opacity:1"
         id="path4146" />
    </g>
    <g
       style="font-style:normal;font-variant:normal;font-weight:normal;font-stretch:normal;font-size:189.12928772px;line-height:125%;font-family:'Arial Rounded MT Bold';-inkscape-font-specification:'Arial Rounded MT Bold, ';letter-spacing:0px;word-spacing:0px;fill:#e6e6e6;fill-opacity:1;stroke:#000000;stroke-width:6;stroke-linecap:butt;stroke-linejoin:miter;stroke-miterlimit:4;stroke-dasharray:none;stroke-opacity:1"
       id="text3373">
      <path
         d="m 294.74748,854.41013 0,-7.01847 q 10.98945,5.44855 15.32982,8.219 4.34037,2.77044 13.2058,9.78891 l 0,-136.12137 9.32718,0 0,136.12137 q 9.97361,-9.51187 28.53562,-18.19261 l 0,7.11082 q -13.29815,11.91293 -20.22428,20.50132 -6.83377,8.58839 -11.17414,17.73087 l -4.24802,0 q -3.41689,-7.94195 -10.43536,-16.89974 -6.92612,-8.95778 -20.31662,-21.2401 z"
         style="fill:#e6e6e6;fill-opacity:1"
         id="path4152" />
    </g>
    <g
       style="font-style:normal;font-variant:normal;font-weight:normal;font-stretch:normal;font-size:195.57980347px;line-height:125%;font-family:'Arial Rounded MT Bold';-inkscape-font-specification:'Arial Rounded MT Bold, ';letter-spacing:0px;word-spacing:0px;fill:#e6e6e6;fill-opacity:1;stroke:#000000;stroke-width:6;stroke-linecap:butt;stroke-linejoin:miter;stroke-miterlimit:4;stroke-dasharray:none;stroke-opacity:1"
       id="text3377">
      <path
         d="m 679.05302,776.27971 q 12.70123,13.8472 21.96453,21.10505 9.2633,7.16234 17.47613,10.69577 l 0,4.2974 q -9.4543,4.58391 -18.33561,11.74625 -8.88131,7.06685 -21.20054,20.81855 l -7.35335,0 q 8.97681,-19.19508 18.8131,-29.50886 l -152.31923,0 0,-9.6453 152.31923,0 q -7.25784,-9.2633 -10.12278,-13.7517 -2.86494,-4.4884 -8.49932,-15.75716 l 7.25784,0 z"
         style="fill:#e6e6e6;fill-opacity:1"
         id="path4149" />
    </g>
  </g>
</svg>
