<?xml version="1.0" encoding="UTF-8" standalone="no"?>
<!-- Created with Inkscape (http://www.inkscape.org/) -->

<svg
   xmlns:dc="http://purl.org/dc/elements/1.1/"
   xmlns:cc="http://creativecommons.org/ns#"
   xmlns:rdf="http://www.w3.org/1999/02/22-rdf-syntax-ns#"
   xmlns:svg="http://www.w3.org/2000/svg"
   xmlns="http://www.w3.org/2000/svg"
   xmlns:sodipodi="http://sodipodi.sourceforge.net/DTD/sodipodi-0.dtd"
   xmlns:inkscape="http://www.inkscape.org/namespaces/inkscape"
   width="200mm"
   height="200mm"
   viewBox="0 0 708.66142 708.66141"
   id="svg2"
   version="1.1"
   inkscape:version="0.91 r13725"
   sodipodi:docname="wasd.svg">
  <defs
     id="defs4" />
  <sodipodi:namedview
     id="base"
     pagecolor="#ffffff"
     bordercolor="#666666"
     borderopacity="1.0"
     inkscape:pageopacity="0.0"
     inkscape:pageshadow="2"
     inkscape:zoom="0.76032835"
     inkscape:cx="447.10232"
     inkscape:cy="354.33071"
     inkscape:document-units="px"
     inkscape:current-layer="layer1"
     showgrid="false"
     inkscape:window-width="1280"
     inkscape:window-height="961"
     inkscape:window-x="-8"
     inkscape:window-y="-8"
     inkscape:window-maximized="1" />
  <metadata
     id="metadata7">
    <rdf:RDF>
      <cc:Work
         rdf:about="">
        <dc:format>image/svg+xml</dc:format>
        <dc:type
           rdf:resource="http://purl.org/dc/dcmitype/StillImage" />
        <dc:title />
      </cc:Work>
    </rdf:RDF>
  </metadata>
  <g
     inkscape:label="Ebene 1"
     inkscape:groupmode="layer"
     id="layer1"
     transform="translate(0,-343.70079)">
    <rect
       style="fill:#fcffff;fill-opacity:0;stroke:#000000;stroke-width:18.51795769;stroke-linejoin:bevel;stroke-miterlimit:4;stroke-dasharray:none;stroke-opacity:1"
       id="rect3336"
       width="231.48204"
       height="231.48204"
       x="241.7764"
       y="425.35361" />
    <rect
       style="fill:#fcffff;fill-opacity:0;stroke:#000000;stroke-width:18.51795769;stroke-linejoin:bevel;stroke-miterlimit:4;stroke-dasharray:none;stroke-opacity:1"
       id="rect3336-5"
       width="231.48204"
       height="231.48204"
       x="243.7997"
       y="694.82074" />
    <rect
       style="fill:#fcffff;fill-opacity:0;stroke:#000000;stroke-width:18.51795769;stroke-linejoin:bevel;stroke-miterlimit:4;stroke-dasharray:none;stroke-opacity:1"
       id="rect3336-59"
       width="231.48204"
       height="231.48204"
       x="515.67383"
       y="693.30524" />
    <rect
       style="fill:#fcffff;fill-opacity:0;stroke:#000000;stroke-width:18.51795769;stroke-linejoin:bevel;stroke-miterlimit:4;stroke-dasharray:none;stroke-opacity:1"
       id="rect3336-4"
       width="231.48204"
       height="231.48204"
       x="-27.512516"
       y="697.25098" />
    <g
       style="font-style:normal;font-variant:normal;font-weight:normal;font-stretch:normal;font-size:189.12928772px;line-height:125%;font-family:'Arial Rounded MT Bold';-inkscape-font-specification:'Arial Rounded MT Bold, ';letter-spacing:0px;word-spacing:0px;fill:#e6e6e6;fill-opacity:1;stroke:#000000;stroke-width:10;stroke-linecap:butt;stroke-linejoin:miter;stroke-miterlimit:4;stroke-dasharray:none;stroke-opacity:1"
       id="text3365">
      <path
         d="m 375.18323,589.92542 -21.88654,-81.17414 -22.16359,81.17414 q -2.58575,9.23483 -4.15567,13.29815 -1.47757,3.97098 -5.26385,7.20317 -3.78628,3.13984 -10.06597,3.13984 -5.07915,0 -8.40369,-1.93931 -3.23219,-1.84697 -5.26385,-5.26386 -2.03167,-3.50923 -3.32454,-8.21899 -1.29288,-4.80211 -2.30871,-8.86544 l -22.53298,-91.14776 q -2.03166,-7.94195 -2.03166,-12.09762 0,-5.26385 3.69393,-8.86544 3.69393,-3.60158 9.14248,-3.60158 7.48021,0 10.06596,4.80211 2.58575,4.80211 4.52507,13.94459 l 17.73087,79.05013 19.85488,-73.97097 q 2.21636,-8.49604 3.97098,-12.92876 1.75461,-4.43272 5.72559,-7.66491 3.97098,-3.23219 10.80475,-3.23219 6.92612,0 10.7124,3.41689 3.87863,3.32454 5.3562,7.29551 1.47757,3.97098 3.97098,13.11346 l 20.03958,73.97097 17.73087,-79.05013 q 1.29287,-6.18733 2.40105,-9.69657 1.20053,-3.50923 3.97098,-6.27968 2.86279,-2.77045 8.219,-2.77045 5.3562,0 9.05013,3.60158 3.78628,3.50924 3.78628,8.86544 0,3.78628 -2.03167,12.09762 l -22.53298,91.14776 q -2.3087,9.23483 -3.87863,13.5752 -1.47757,4.24802 -5.1715,7.48021 -3.60158,3.23219 -10.25066,3.23219 -6.27968,0 -10.06596,-3.13984 -3.78628,-3.13984 -5.26385,-7.01847 -1.47758,-3.97098 -4.15568,-13.48285 z"
         style="fill:#e6e6e6;fill-opacity:1"
         id="path4155" />
    </g>
    <g
       style="font-style:normal;font-variant:normal;font-weight:normal;font-stretch:normal;font-size:189.12928772px;line-height:125%;font-family:'Arial Rounded MT Bold';-inkscape-font-specification:'Arial Rounded MT Bold, ';letter-spacing:0px;word-spacing:0px;fill:#e6e6e6;fill-opacity:1;stroke:#000000;stroke-width:10;stroke-linecap:butt;stroke-linejoin:miter;stroke-miterlimit:4;stroke-dasharray:none;stroke-opacity:1"
       id="text3369">
      <path
         d="m 119.86092,862.91793 -6.46438,-16.99209 -55.039581,0 -6.46438,17.36148 q -3.78628,10.15831 -6.46438,13.75989 -2.6781,3.50924 -8.773087,3.50924 -5.171504,0 -9.14248,-3.78628 -3.970977,-3.78628 -3.970977,-8.58839 0,-2.77045 0.923483,-5.7256 0.923483,-2.95514 3.047494,-8.21899 l 34.630606,-87.91557 q 1.477573,-3.78628 3.509235,-9.05013 2.124011,-5.3562 4.432718,-8.86544 2.401055,-3.50923 6.187335,-5.63324 3.878628,-2.21636 9.511873,-2.21636 5.725594,0 9.511874,2.21636 3.878628,2.12401 6.187337,5.54089 2.40105,3.41689 3.97097,7.38787 1.66227,3.87863 4.15568,10.43535 l 35.36939,87.36148 q 4.15567,9.97362 4.15567,14.49868 0,4.70976 -3.97097,8.68074 -3.87863,3.87863 -9.41953,3.87863 -3.23219,0 -5.5409,-1.20053 -2.3087,-1.10818 -3.87862,-3.04749 -1.56992,-2.03166 -3.41689,-6.09499 -1.75462,-4.15567 -3.04749,-7.29551 z m -54.300795,-37.58576 40.448545,0 -20.408967,-55.87071 -20.039578,55.87071 z"
         style="fill:#e6e6e6;fill-opacity:1"
         id="path4152" />
    </g>
    <g
       style="font-style:normal;font-variant:normal;font-weight:normal;font-stretch:normal;font-size:189.12928772px;line-height:125%;font-family:'Arial Rounded MT Bold';-inkscape-font-specification:'Arial Rounded MT Bold, ';letter-spacing:0px;word-spacing:0px;fill:#e6e6e6;fill-opacity:1;stroke:#000000;stroke-width:10;stroke-linecap:butt;stroke-linejoin:miter;stroke-miterlimit:4;stroke-dasharray:none;stroke-opacity:1"
       id="text3373">
      <path
         d="m 416.26991,836.29931 q 0,12.28232 -6.37203,22.07124 -6.27969,9.78892 -18.46966,15.32982 -12.18997,5.54089 -28.90501,5.54089 -20.03958,0 -33.06069,-7.57256 -9.23483,-5.44854 -15.05277,-14.49868 -5.72559,-9.14248 -5.72559,-17.73087 0,-4.9868 3.41688,-8.49604 3.50924,-3.60158 8.86544,-3.60158 4.34037,0 7.29551,2.77045 3.0475,2.77044 5.17151,8.21899 2.58575,6.46438 5.5409,10.80475 3.04749,4.34037 8.49604,7.20317 5.44855,2.77045 14.31398,2.77045 12.18998,0 19.76253,-5.63325 7.66491,-5.72559 7.66491,-14.22163 0,-6.74143 -4.15567,-10.8971 -4.06333,-4.24802 -10.62005,-6.46438 -6.46438,-2.21636 -17.36148,-4.70976 -14.59103,-3.41689 -24.4723,-7.94196 -9.78891,-4.61741 -15.60686,-12.46702 -5.72559,-7.94195 -5.72559,-19.67018 0,-11.17414 6.09499,-19.85488 6.09498,-8.68074 17.63852,-13.29815 11.54353,-4.70977 27.15039,-4.70977 12.46702,0 21.51716,3.13984 9.14248,3.0475 15.14511,8.219 6.00264,5.07916 8.77309,10.7124 2.77045,5.63325 2.77045,10.98945 0,4.89446 -3.50924,8.86543 -3.41688,3.87863 -8.58839,3.87863 -4.70976,0 -7.20316,-2.3087 -2.40106,-2.40106 -5.26385,-7.75726 -3.69394,-7.66491 -8.86544,-11.91293 -5.1715,-4.34037 -16.62269,-4.34037 -10.62005,0 -17.17678,4.70976 -6.46438,4.61742 -6.46438,11.17415 0,4.06332 2.21636,7.01847 2.21636,2.95514 6.09498,5.07915 3.87863,2.12401 7.84961,3.32454 3.97097,1.20053 13.11345,3.50923 11.45119,2.67811 20.68602,5.9103 9.32718,3.23218 15.79156,7.8496 6.55673,4.61741 10.15831,11.72823 3.69393,7.01847 3.69393,17.26913 z"
         style="fill:#e6e6e6;fill-opacity:1"
         id="path4149" />
    </g>
    <g
       style="font-style:normal;font-variant:normal;font-weight:normal;font-stretch:normal;font-size:195.57980347px;line-height:125%;font-family:'Arial Rounded MT Bold';-inkscape-font-specification:'Arial Rounded MT Bold, ';letter-spacing:0px;word-spacing:0px;fill:#e6e6e6;fill-opacity:1;stroke:#000000;stroke-width:10;stroke-linecap:butt;stroke-linejoin:miter;stroke-miterlimit:4;stroke-dasharray:none;stroke-opacity:1"
       id="text3377">
      <path
         d="m 595.40501,739.93592 36.9577,0 q 14.42019,0 24.73397,2.67394 10.31378,2.67394 18.7176,10.02728 21.86903,18.7176 21.86903,56.91678 0,12.60573 -2.19645,23.01501 -2.19645,10.40928 -6.78036,18.8131 -4.5839,8.30832 -11.74624,14.89768 -5.63438,5.06139 -12.31924,8.11732 -6.68486,3.05594 -14.42019,4.29741 -7.63984,1.24147 -17.28513,1.24147 l -36.95771,0 q -7.73533,0 -11.65075,-2.29195 -3.91541,-2.38745 -5.15689,-6.58936 -1.14597,-4.2974 -1.14597,-11.07776 l 0,-102.6603 q 0,-9.1678 4.10641,-13.27421 4.10641,-4.10641 13.27422,-4.10641 z m 10.98226,22.44202 0,95.02046 21.48704,0 q 7.06685,0 11.07776,-0.382 4.01092,-0.38199 8.30832,-1.90995 4.29741,-1.52797 7.44884,-4.29741 14.2292,-12.03274 14.2292,-41.44611 0,-20.72306 -6.30287,-31.03684 -6.20736,-10.31378 -15.37517,-13.08322 -9.1678,-2.86493 -22.15552,-2.86493 l -18.7176,0 z"
         style="fill:#e6e6e6;fill-opacity:1"
         id="path4146" />
    </g>
  </g>
</svg>
