<?xml version="1.0" encoding="UTF-8" standalone="no"?>
<!-- Created with Inkscape (http://www.inkscape.org/) -->

<svg
   xmlns:dc="http://purl.org/dc/elements/1.1/"
   xmlns:cc="http://creativecommons.org/ns#"
   xmlns:rdf="http://www.w3.org/1999/02/22-rdf-syntax-ns#"
   xmlns:svg="http://www.w3.org/2000/svg"
   xmlns="http://www.w3.org/2000/svg"
   xmlns:sodipodi="http://sodipodi.sourceforge.net/DTD/sodipodi-0.dtd"
   xmlns:inkscape="http://www.inkscape.org/namespaces/inkscape"
   width="200mm"
   height="200mm"
   viewBox="0 0 708.66142 708.66141"
   id="svg4374"
   version="1.1"
   inkscape:version="0.91 r13725"
   sodipodi:docname="frame0.svg">
  <defs
     id="defs4376">
    <inkscape:path-effect
       effect="spiro"
       id="path-effect4401"
       is_visible="true" />
    <inkscape:path-effect
       effect="spiro"
       id="path-effect4397"
       is_visible="true" />
  </defs>
  <sodipodi:namedview
     id="base"
     pagecolor="#ffffff"
     bordercolor="#666666"
     borderopacity="1.0"
     inkscape:pageopacity="0.0"
     inkscape:pageshadow="2"
     inkscape:zoom="0.0875"
     inkscape:cx="1057.739"
     inkscape:cy="-242.34603"
     inkscape:document-units="px"
     inkscape:current-layer="layer1"
     showgrid="false"
     inkscape:window-width="1280"
     inkscape:window-height="961"
     inkscape:window-x="-8"
     inkscape:window-y="-8"
     inkscape:window-maximized="1" />
  <metadata
     id="metadata4379">
    <rdf:RDF>
      <cc:Work
         rdf:about="">
        <dc:format>image/svg+xml</dc:format>
        <dc:type
           rdf:resource="http://purl.org/dc/dcmitype/StillImage" />
        <dc:title></dc:title>
      </cc:Work>
    </rdf:RDF>
  </metadata>
  <g
     inkscape:label="Ebene 1"
     inkscape:groupmode="layer"
     id="layer1"
     transform="translate(0,-343.70079)">
    <path
       style="fill:#e5a700;fill-opacity:1"
       inkscape:connector-curvature="0"
       d="m 782.66621,816.20784 c 14.98896,-1.39667 14.79407,-7.37529 29.83902,-7.06273 15.04298,0.31265 14.89774,8.01519 29.94063,8.32809 15.04324,0.31265 15.18848,-7.39005 30.23206,-7.07707 15.04255,0.31265 14.89765,8.01519 29.9402,8.32775 15.04255,0.31265 15.18779,-7.38963 30.23034,-7.07706 15.04049,0.31265 14.89559,8.01518 29.936,8.32808 15.04255,0.31265 15.18779,-7.38997 30.23,-7.07707 15.04294,0.31265 14.89764,8.01519 29.94064,8.32776 15.0425,0.31265 15.1878,-7.38964 30.2303,-7.07707 15.0418,0.31265 14.8962,8.01518 29.9381,8.32808 15.0418,0.31265 15.1871,-7.38996 30.2283,-7.0774 15.0411,0.31265 14.8958,8.01519 29.9373,8.32809 15.0419,0.31265 15.1871,-7.38997 30.2287,-7.07707 15.0407,0.31265 14.8959,8.01519 29.9367,8.32775 15.0422,0.31265 15.1874,-7.38963 30.2296,-7.07707 15.0408,0.31265 14.8959,8.01519 29.9367,8.32776 15.0401,0.31265 15.1854,-7.39005 30.2251,-7.07707 15.0402,0.31265 14.8949,8.01518 29.9346,8.32775 15.0401,0.31265 15.1847,-7.39005 30.2248,-7.07748 15.0401,0.31265 14.8948,8.01518 29.9346,8.32775 15.0418,0.31265 15.187,-7.38964 30.2286,-7.07707 15.0411,0.31265 14.8959,8.01519 29.9374,8.32775 15.0418,0.31265 15.187,-7.38963 30.2286,-7.07706 15.0408,0.31265 14.8959,8.01518 29.9374,8.32775 15.0408,0.31265 15.1857,-7.38964 30.2268,-7.07707 15.0412,0.31265 14.896,8.01519 29.9374,8.32775 15.0415,0.31265 15.1864,-7.38972 30.228,-7.07715 15.0418,0.31265 14.8969,8.01519 29.9381,8.32817 10.0423,0.20843 13.448,-3.15335 19.0768,-5.31931 -5.333,-2.89114 -8.3096,-6.67921 -18.3058,-7.79524 -14.9617,-1.67064 -15.737,5.99004 -30.6983,4.31941 -14.9621,-1.67064 -14.1872,-9.33166 -29.1496,-11.00229 -14.9614,-1.67064 -15.7362,5.99004 -30.6976,4.31941 -14.9613,-1.67064 -14.1865,-9.33165 -29.1479,-11.00229 -14.9592,-1.67064 -15.7341,5.99038 -30.6933,4.31974 -14.9613,-1.67055 -14.1865,-9.33165 -29.1472,-11.00229 -14.9613,-1.67063 -15.7362,5.99005 -30.6982,4.3195 -14.961,-1.67064 -14.1865,-9.33132 -29.1472,-11.00237 -14.9607,-1.67056 -15.7355,5.99046 -30.6962,4.31982 -14.9599,-1.67063 -14.185,-9.33165 -29.145,-11.00229 -14.9599,-1.6703 -15.7352,5.99038 -30.6948,4.31983 -14.9606,-1.67064 -14.1854,-9.33132 -29.1461,-11.00237 -14.9595,-1.67022 -15.7345,5.99046 -30.6944,4.31983 -14.961,-1.67064 -14.1858,-9.33132 -29.1468,-11.00229 -14.9596,-1.67064 -15.7345,5.99038 -30.6937,4.31982 -14.9593,-1.67063 -14.1844,-9.33131 -29.143,-11.00195 -14.9588,-1.67064 -15.7334,5.99038 -30.6923,4.31974 -14.9582,-1.67022 -14.1833,-9.33123 -29.1419,-11.00154 -14.9589,-1.67022 -15.7337,5.99047 -30.6923,4.31983 -14.9606,-1.67064 -14.1855,-9.33132 -29.1461,-11.00195 -14.9599,-1.67064 -15.7345,5.99046 -30.69475,4.31982 -14.96066,-1.67063 -14.18549,-9.33132 -29.14616,-11.00195 -14.95956,-1.67064 -15.73447,5.99038 -30.69437,4.31982 -14.95964,-1.6703 -14.18515,-9.33131 -29.14471,-11.00195 -14.95964,-1.67064 -15.73446,5.99038 -30.69479,4.31983 -14.96032,-1.67064 -14.18507,-9.33132 -29.14505,-11.00196 -14.95998,-1.67064 -15.73515,5.99038 -30.69548,4.31974 -14.95998,-1.67055 -14.18507,-9.33165 -29.14505,-11.00187 -9.85618,-1.10069 -13.38367,1.26644 -18.94378,2.92199 l -5.19967,86.84132 c 5.51013,0.46856 9.20173,0.31182 19.20872,-0.6203 z"
       id="path4408" />
    <path
       style="fill:#b08100;fill-opacity:1"
       inkscape:connector-curvature="0"
       d="m 636.17272,1179.3904 c 11.83915,11.0961 16.07116,6.6233 26.70079,18.9984 10.62757,12.3732 4.88921,17.815 15.51712,30.1882 10.62791,12.3736 16.36654,6.9318 26.99479,19.3054 10.62749,12.3729 4.88886,17.8146 15.51643,30.1878 10.62749,12.3729 16.3662,6.9311 26.99334,19.304 10.62646,12.3713 4.88783,17.8131 15.5136,30.1845 10.62757,12.3729 16.3662,6.9312 26.99343,19.3036 10.62782,12.3732 4.8892,17.815 15.51711,30.1882 10.62714,12.3728 16.36551,6.9311 26.99334,19.3039 10.62688,12.3721 4.88817,17.8139 15.5154,30.1865 10.6268,12.3721 16.36508,6.9303 26.99197,19.3024 10.62645,12.3718 4.88783,17.8135 15.51428,30.1853 10.62723,12.3721 16.36551,6.9303 26.99231,19.3025 10.62654,12.3717 4.88792,17.8135 15.51438,30.1848 10.62714,12.3729 16.3655,6.9311 26.99333,19.3036 10.62577,12.3714 4.88749,17.8132 15.51369,30.185 10.62577,12.3706 16.36439,6.9292 26.99017,19.2998 10.6254,12.3706 4.8871,17.8128 15.5126,30.1834 10.6254,12.3703 16.3641,6.929 26.9895,19.2996 10.6258,12.3707 4.8875,17.8124 15.5129,30.1834 10.6268,12.3721 16.3651,6.93 26.9924,19.3025 10.6264,12.3717 4.8878,17.8135 15.5142,30.1853 10.6273,12.3721 16.3656,6.9303 26.9924,19.3024 10.6265,12.3721 4.8879,17.8135 15.5147,30.1853 10.6264,12.3718 16.3648,6.93 26.9912,19.3018 10.6265,12.3717 4.8879,17.8134 15.5147,30.1852 10.6265,12.3721 16.3651,6.93 26.9916,19.3021 10.6269,12.3721 4.8883,17.8139 15.5151,30.186 7.0948,8.2601 12.0117,8.5837 17.6582,11.5657 -1.7341,-6.3931 -1.1115,-11.5304 -7.5091,-20.4083 -9.5759,-13.2878 -15.7383,-8.3844 -25.3142,-21.6721 -9.5762,-13.2878 -3.4134,-18.1913 -12.9895,-31.479 -9.5759,-13.2878 -15.738,-8.3844 -25.3138,-21.6718 -9.5759,-13.2874 -3.413,-18.1908 -12.9886,-31.4775 -9.5744,-13.2859 -15.7372,-8.3826 -25.3113,-21.6681 -9.5755,-13.2871 -3.413,-18.1901 -12.9886,-31.4775 -9.5758,-13.2875 -15.7382,-8.384 -25.3138,-21.6718 -9.5758,-13.2871 -3.413,-18.1901 -12.9885,-31.4775 -9.5754,-13.2863 -15.7379,-8.3837 -25.3131,-21.67 -9.5751,-13.2863 -3.4123,-18.1893 -12.9871,-31.4756 -9.5744,-13.286 -15.7373,-8.3826 -25.3117,-21.6689 -9.5748,-13.2867 -3.4126,-18.1897 -12.9875,-31.4763 -9.5744,-13.286 -15.73717,-8.3826 -25.31161,-21.6685 -9.57555,-13.2871 -3.41268,-18.1901 -12.98823,-31.4776 -9.57443,-13.2859 -15.73721,-8.3825 -25.31165,-21.6681 -9.57409,-13.2852 -3.41131,-18.1882 -12.9854,-31.4734 -9.57375,-13.2848 -15.73618,-8.3818 -25.30993,-21.6667 -9.57375,-13.2845 -3.41131,-18.1878 -12.98497,-31.4727 -9.57418,-13.2852 -15.73696,-8.3818 -25.31036,-21.667 -9.57478,-13.2863 -3.41234,-18.1897 -12.98746,-31.476 -9.57444,-13.286 -15.7373,-8.3829 -25.31173,-21.6689 -9.57478,-13.2867 -3.4126,-18.1897 -12.98747,-31.4763 -9.57443,-13.286 -15.73721,-8.3826 -25.31164,-21.669 -9.57443,-13.2863 -3.41234,-18.1889 -12.98678,-31.4748 -9.57443,-13.2863 -15.73729,-8.383 -25.31172,-21.6693 -9.57478,-13.2863 -3.41235,-18.1893 -12.98712,-31.4756 -9.57478,-13.2863 -15.73721,-8.3833 -25.31242,-21.67 -9.57478,-13.2863 -3.41226,-18.1897 -12.98746,-31.4756 -6.30768,-8.7529 -10.58513,-9.8936 -15.80863,-13.1885 l -67.27062,58.4741 c 3.63389,4.7861 6.41305,7.6541 14.31702,15.0617 z"
       id="path4434" />
    <path
       style="fill:#e5a700;fill-opacity:1"
       inkscape:connector-curvature="0"
       d="m 414.14307,1178.6634 c 5.80276,14.3164 11.06887,12.306 15.36562,27.1974 4.29606,14.8893 -2.60914,17.0887 1.68726,31.978 4.29641,14.8897 11.20186,12.6899 15.49826,27.5794 4.29597,14.889 -2.60914,17.0888 1.68692,31.9781 4.29597,14.8889 11.20151,12.6891 15.49748,27.5776 4.29572,14.8867 -2.60982,17.0865 1.68556,31.9736 4.29597,14.8885 11.20151,12.6888 15.49748,27.5777 4.29606,14.8889 -2.60914,17.0886 1.68692,31.9779 4.29606,14.8889 11.20151,12.6891 15.49757,27.5777 4.29597,14.8881 -2.60948,17.0879 1.68649,31.9757 4.29572,14.8878 11.20117,12.688 15.49689,27.5758 4.29563,14.8874 -2.60983,17.0872 1.68615,31.9747 4.29606,14.8878 11.20116,12.688 15.49722,27.5758 4.29563,14.887 -2.60982,17.0869 1.68581,31.9739 4.29606,14.8886 11.20151,12.6891 15.49757,27.5777 4.29563,14.8871 -2.60982,17.0869 1.68589,31.9739 4.29529,14.8864 11.20074,12.6869 15.49612,27.5729 4.29528,14.886 -2.61017,17.0858 1.68512,31.9717 4.29537,14.8863 11.20082,12.6862 15.49611,27.5722 4.29537,14.8863 -2.61017,17.0864 1.68521,31.9727 4.29597,14.8879 11.20151,12.6881 15.49714,27.5762 4.29571,14.8871 -2.60982,17.0869 1.68623,31.9744 4.29606,14.8881 11.20151,12.6879 15.49714,27.5761 4.29572,14.8871 -2.60982,17.0873 1.68624,31.9743 4.29606,14.8871 11.20083,12.6876 15.4968,27.5747 4.29606,14.8871 -2.60974,17.0872 1.68623,31.9743 4.29572,14.8878 11.20117,12.688 15.4968,27.5758 4.29572,14.8878 -2.60973,17.0877 1.68624,31.9755 2.86807,9.9395 6.89851,12.2665 10.53969,17.1435 0.95333,-6.1243 3.4228,-10.2036 1.3768,-20.3737 -3.06158,-15.2221 -10.12145,-13.6544 -13.18338,-28.8766 -3.06201,-15.2227 3.99777,-16.7904 0.93619,-32.0129 -3.06167,-15.222 -10.12145,-13.6544 -13.18312,-28.8764 -3.06167,-15.2218 3.9982,-16.7894 0.93619,-32.0108 -3.06124,-15.2202 -10.12111,-13.6522 -13.18243,-28.872 -3.06158,-15.2217 3.9982,-16.7897 0.93661,-32.0107 -3.06201,-15.2225 -10.12187,-13.6545 -13.18346,-28.8766 -3.06167,-15.2216 3.99786,-16.7897 0.93653,-32.0114 -3.06166,-15.2214 -10.12145,-13.6533 -13.18312,-28.8742 -3.06158,-15.2207 3.99855,-16.7884 0.93697,-32.0089 -3.06167,-15.2203 -10.12154,-13.6526 -13.18278,-28.8732 -3.06167,-15.2214 3.99854,-16.7886 0.93653,-32.01 -3.06124,-15.2198 -10.12111,-13.6522 -13.18278,-28.8725 -3.06158,-15.2213 3.9982,-16.7893 0.93662,-32.0106 -3.06132,-15.2202 -10.12111,-13.6522 -13.18278,-28.8725 -3.06098,-15.2194 3.99889,-16.7871 0.93722,-32.0067 -3.06089,-15.219 -10.12076,-13.6515 -13.182,-28.8702 -3.06133,-15.2187 3.99854,-16.7868 0.93756,-32.0055 -3.06124,-15.2192 -10.12111,-13.6515 -13.18201,-28.871 -3.06166,-15.2206 3.9982,-16.7887 0.93653,-32.0096 -3.06166,-15.2203 -10.12145,-13.6526 -13.18277,-28.8732 -3.06158,-15.2209 3.99854,-16.7886 0.93653,-32.0096 -3.06158,-15.2202 -10.12145,-13.6526 -13.18269,-28.8732 -3.06167,-15.2202 3.99854,-16.7879 0.93687,-32.0081 -3.06124,-15.2203 -10.1211,-13.6526 -13.18277,-28.8732 -3.06158,-15.2206 3.99854,-16.7883 0.93696,-32.0089 -3.06167,-15.2206 -10.12145,-13.6529 -13.18278,-28.8739 -3.06167,-15.2206 3.9982,-16.7886 0.93653,-32.0092 -2.01693,-10.0271 -5.19863,-12.7767 -8.36388,-17.7415 l -78.93795,21.296 c 1.2596,5.5609 2.52237,9.1442 6.3959,18.7016 z"
       id="path4448" />
    <path
       style="fill:#e5a700;fill-opacity:1"
       inkscape:connector-curvature="0"
       d="m 46.493194,1160.8308 c -6.365465,15.2132 -1.025786,18.0514 -8.917841,32.4531 -7.891369,14.3998 -14.569354,10.3591 -22.460723,24.7586 -7.8914551,14.4001 -1.213041,18.4404 -9.1040675,32.8407 -7.891026,14.3994 -14.5694397,10.359 -22.4601225,24.7581 -7.891026,14.3991 -1.212613,18.4398 -9.103296,32.8393 -7.889654,14.3976 -14.567982,10.3569 -22.457979,24.7545 -7.890683,14.3991 -1.212355,18.4394 -9.103381,32.8385 -7.890683,14.3994 -14.569011,10.3591 -22.460037,24.7586 -7.890683,14.3991 -1.212355,18.4394 -9.103382,32.8388 -7.890683,14.3987 -14.569015,10.358 -22.459355,24.7568 -7.89034,14.3979 -1.21201,18.4386 -9.10235,32.8369 -7.89034,14.3977 -14.56867,10.3573 -22.45866,24.7554 -7.89034,14.3983 -1.21193,18.439 -9.10227,32.8373 -7.89,14.3976 -14.56832,10.3573 -22.45832,24.7549 -7.89069,14.3991 -1.21236,18.4394 -9.10338,32.8385 -7.88966,14.398 -14.56799,10.3573 -22.45798,24.7549 -7.88957,14.3969 -1.21124,18.4376 -9.1009,32.8344 -7.88965,14.3965 -14.56764,10.3562 -22.45729,24.7527 -7.88923,14.3965 -1.2109,18.4372 -9.10055,32.8337 -7.88957,14.3969 -14.56764,10.3566 -22.45721,24.7531 -7.89034,14.3983 -1.21201,18.439 -9.1027,32.8374 -7.89034,14.398 -14.56832,10.3573 -22.45866,24.7556 -7.89034,14.3984 -1.21201,18.439 -9.1027,32.8374 -7.88991,14.398 -14.56832,10.3573 -22.45858,24.7553 -7.88999,14.3979 -1.21166,18.4383 -9.10166,32.8359 -7.89034,14.398 -14.56833,10.3573 -22.45867,24.7552 -7.89034,14.3984 -1.21192,18.4391 -9.10226,32.8367 -7.89034,14.3983 -14.56867,10.358 -22.45901,24.7564 -5.26757,9.6126 -4.0451,14.6112 -4.99638,21.1551 5.23465,-3.6972 10.06195,-4.6596 16.10195,-13.7684 9.04036,-13.6335 2.71725,-18.2622 11.75761,-31.8957 9.04036,-13.6338 15.36347,-9.0047 24.40427,-22.6389 9.04036,-13.6331 2.71725,-18.2621 11.75727,-31.8948 9.04002,-13.6331 15.36278,-9.004 24.4028,-22.6372 9.03891,-13.6312 2.71614,-18.2603 11.75479,-31.8916 9.04002,-13.633 15.36279,-9.004 24.40281,-22.637 9.04036,-13.6331 2.71725,-18.2622 11.75727,-31.8957 9.04002,-13.633 15.36279,-9.004 24.40315,-22.637 9.03968,-13.6321 2.71657,-18.2611 11.75624,-31.8934 9.03934,-13.632 15.36245,-9.0029 24.40178,-22.6353 9.03891,-13.6317 2.71614,-18.2607 11.75513,-31.8924 9.03968,-13.6319 15.36244,-9.0035 24.40212,-22.6356 9.03899,-13.6315 2.71623,-18.2603 11.75522,-31.8919 9.03959,-13.633 15.36278,-9.004 24.4028,-22.6364 9.03891,-13.6312 2.71614,-18.2602 11.75479,-31.8919 9.03865,-13.6309 15.36176,-9.0018 24.400319,-22.6327 9.038305,-13.6305 2.715538,-18.2592 11.753843,-31.8897 9.038219,-13.6305 15.361329,-9.0014 24.399634,-22.632 9.038648,-13.6308 2.715453,-18.2599 11.754101,-31.8904 9.039333,-13.6324 15.362443,-9.0033 24.40212,-22.6356 9.039334,-13.6317 2.716224,-18.2607 11.755558,-31.8924 9.0392482,-13.6323 15.3623577,-9.0032 24.402035,-22.6356 9.039333,-13.6316 2.716224,-18.2607 11.755215,-31.8919 9.039334,-13.6316 15.3621,-9.0029 24.401091,-22.6342 9.039248,-13.6316 2.716139,-18.2606 11.755473,-31.8923 9.039334,-13.6319 15.3621,-9.0029 24.401434,-22.6353 9.039334,-13.6319 2.716567,-18.261 11.755815,-31.893 9.039332,-13.6319 15.362442,-9.0029 24.401782,-22.6353 5.95494,-8.9804 5.6666,-13.5933 7.0308,-19.8121 l -73.489131,-49.0038 c -3.199194,5.0972 -4.931216,8.7496 -9.180375,18.9057 z"
       id="path4474" />
    <path
       style="fill:#e50b00;fill-opacity:1"
       inkscape:connector-curvature="0"
       d="m 40.737079,1027.601 c -8.337986,12.7321 -3.93098,16.3025 -13.529249,28.0138 -9.596812,11.7098 -15.027803,6.7958 -24.6247001,18.5056 -9.5971545,11.7099 -4.1665064,16.6239 -13.7636609,28.3341 -9.596897,11.7095 -15.027545,6.7954 -24.624357,18.5048 -9.596811,11.7091 -4.16582,16.6232 -13.762717,28.3326 -9.59544,11.7081 -15.026431,6.794 -24.621871,18.5019 -9.596468,11.7092 -4.165477,16.6232 -13.762289,28.3323 -9.596897,11.7098 -15.027545,6.7958 -24.624355,18.5052 -9.59681,11.7095 -4.16616,16.6235 -13.76263,28.333 -9.59621,11.7087 -15.02686,6.7947 -24.62333,18.5034 -9.59578,11.7087 -4.16514,16.6224 -13.76126,28.3311 -9.59578,11.7084 -15.02643,6.7943 -24.6223,18.5026 -9.59613,11.7088 -4.16548,16.6229 -13.7616,28.3316 -9.59579,11.7079 -15.02643,6.7939 -24.62222,18.5023 -9.59647,11.709 -4.16582,16.6231 -13.76229,28.3322 -9.59586,11.708 -15.02651,6.7939 -24.62195,18.502 -9.5951,11.7075 -4.16436,16.6216 -13.75946,28.3292 -9.5951,11.7073 -15.02575,6.7932 -24.62084,18.5004 -9.59476,11.7073 -4.16411,16.6214 -13.75886,28.3282 -9.5951,11.7077 -15.02575,6.7936 -24.62119,18.5008 -9.59612,11.7088 -4.16547,16.6229 -13.7616,28.3316 -9.59578,11.7079 -15.02686,6.7939 -24.62264,18.5023 -9.59613,11.7087 -4.16548,16.6227 -13.76161,28.3314 -9.59578,11.7081 -15.02677,6.7944 -24.62221,18.5023 -9.59578,11.708 -4.16513,16.6221 -13.76092,28.3305 -9.59578,11.7083 -15.02643,6.7938 -24.62229,18.5026 -9.59579,11.7087 -4.16514,16.622 -13.76126,28.3307 -9.59613,11.7088 -15.02678,6.7947 -24.6229,18.5031 -6.40645,7.817 -6.11871,12.6071 -8.07305,18.4111 5.39532,-2.419 9.96471,-2.4142 16.99337,-9.6292 10.51971,-10.7997 5.51116,-16.1859 16.03087,-26.9848 10.52014,-10.7997 15.52869,-5.4131 26.04875,-16.2128 10.51945,-10.799 5.51081,-16.1855 16.03061,-26.9845 10.51937,-10.7986 15.52792,-5.4123 26.04703,-16.2109 10.51834,-10.7979 5.5097,-16.1841 16.02804,-26.9819 10.51902,-10.799 15.52766,-5.4124 26.04703,-16.211 10.51971,-10.7993 5.51116,-16.1855 16.03052,-26.9848 10.51946,-10.7989 15.52801,-5.4127 26.04772,-16.2113 10.51868,-10.7982 5.51047,-16.1848 16.02915,-26.983 10.51868,-10.7979 15.52732,-5.4116 26.046,-16.2098 10.51834,-10.7979 5.50979,-16.1845 16.02847,-26.9827 10.51903,-10.7981 15.52724,-5.4116 26.04626,-16.2102 10.51834,-10.7978 5.50979,-16.184 16.02812,-26.9818 10.51937,-10.799 15.52801,-5.4124 26.04704,-16.2113 10.51833,-10.7976 5.50978,-16.1842 16.02812,-26.9819 10.518,-10.7971 15.52621,-5.4105 26.0442,-16.2081 10.51765,-10.7967 5.50901,-16.1832 16.02667,-26.9804 10.51731,-10.7967 15.52586,-5.4105 26.04317,-16.2072 10.517653,-10.7971 5.50944,-16.1837 16.026752,-26.9804 10.519025,-10.7986 15.527235,-5.412 26.046259,-16.2102 10.518339,-10.7979 5.509786,-16.1845 16.028468,-26.9823 10.519024,-10.7982 15.52732,-5.412 26.046344,-16.2102 10.518339,-10.7978 5.5097,-16.1845 16.0283818,-26.9823 10.5184243,-10.7978 15.5269773,-5.4112 26.0449732,-16.2091 10.518681,-10.7978 5.510128,-16.1844 16.028467,-26.9823 10.518681,-10.7978 15.527235,-5.4116 26.045573,-16.2098 10.519025,-10.7982 5.510472,-16.1848 16.029153,-26.9829 10.518682,-10.7979 15.527321,-5.4117 26.045999,-16.2099 6.92963,-7.1135 7.43078,-11.3803 9.70845,-16.8118 L 52.259855,1012.012 c -3.76859,4.0693 -5.956317,7.0888 -11.522776,15.589 z"
       id="path4480" />
    <path
       style="fill:#e5e700;fill-opacity:1"
       inkscape:connector-curvature="0"
       d="m -69.493443,812.38375 c -13.693011,6.1272 -11.769877,11.68812 -26.012649,16.22563 -14.240798,4.53635 -16.344848,-2.75549 -30.585988,1.78128 -14.2414,4.53676 -12.13736,11.8286 -26.37841,16.36536 -14.24072,4.53643 -16.34451,-2.75507 -30.58522,1.78136 -14.24046,4.53635 -12.13633,11.8286 -26.3767,16.36461 -14.23866,4.53602 -16.34279,-2.75582 -30.58136,1.78019 -14.24011,4.53643 -12.13633,11.82827 -26.37636,16.3647 -14.2408,4.53635 -16.34484,-2.75549 -30.5853,1.78128 -14.24037,4.53643 -12.13658,11.8286 -26.37704,16.36461 -14.23969,4.53643 -16.34373,-2.75541 -30.58307,1.78094 -14.23969,4.53643 -12.13565,11.82793 -26.37499,16.36428 -14.239,4.53602 -16.34304,-2.75582 -30.58239,1.78019 -14.23968,4.53643 -12.13564,11.82827 -26.37532,16.3647 -14.239,4.53601 -16.34271,-2.75624 -30.58171,1.78019 -14.24002,4.53635 -12.13632,11.82818 -26.37669,16.36461 -14.23866,4.53602 -16.34279,-2.75582 -30.58136,1.78019 -14.23797,4.53568 -12.13427,11.82752 -26.37216,16.3632 -14.23797,4.53601 -16.3421,-2.75616 -30.57964,1.77944 -14.23763,4.53568 -12.13384,11.82752 -26.37147,16.3632 -14.23797,4.53568 -16.34202,-2.75616 -30.57999,1.77944 -14.23968,4.53601 -12.13555,11.82795 -26.37533,16.36425 -14.23891,4.536 -16.34304,-2.7558 -30.58238,1.7806 -14.23969,4.536 -12.13564,11.8279 -26.37533,16.3643 -14.239,4.536 -16.34305,-2.7558 -30.58205,1.7802 -14.239,4.536 -12.13486,11.8279 -26.37386,16.3639 -14.239,4.536 -16.34314,-2.7554 -30.58248,1.7806 -14.23934,4.536 -12.13521,11.8278 -26.37455,16.3643 -14.23969,4.536 -16.34382,-2.7559 -30.58316,1.7805 -9.50687,3.0284 -11.73241,7.2849 -16.39698,11.1299 5.85729,1.0065 9.75886,3.6142 19.48625,1.454 14.55924,-3.2331 13.05991,-10.6882 27.61915,-13.921 14.55992,-3.2335 16.05925,4.2213 30.61917,0.9882 14.55924,-3.2332 13.05991,-10.6879 27.61881,-13.9211 14.55889,-3.2331 16.05813,4.222 30.61702,0.9888 14.55718,-3.2323 13.05786,-10.6875 27.61495,-13.9199 14.55889,-3.2331 16.05822,4.222 30.61711,0.9889 14.55924,-3.2331 13.05957,-10.6879 27.61872,-13.921 14.5589,-3.2332 16.05822,4.2216 30.61746,0.9888 14.55821,-3.2332 13.05854,-10.6879 27.61666,-13.9207 14.55787,-3.2331 16.05753,4.222 30.6154,0.9892 14.55743,-3.2327 13.05811,-10.6879 27.61563,-13.9206 14.55812,-3.23279 16.05745,4.222 30.616,0.9892 14.55709,-3.23277 13.05777,-10.68785 27.61495,-13.92066 14.5588,-3.23313 16.05813,4.22195 30.61702,0.98881 14.55718,-3.23238 13.05786,-10.68747 27.61495,-13.92027 14.55641,-3.23239 16.05608,4.22269 30.61257,0.98997 14.55641,-3.23238 13.05674,-10.68713 27.61315,-13.91994 14.55606,-3.23238 16.05573,4.2227 30.61179,0.98998 14.5565,-3.23247 13.05717,-10.68755 27.61358,-13.91994 14.55821,-3.23314 16.05744,4.22195 30.61565,0.98922 14.55752,-3.2328 13.0582,-10.68755 27.61564,-13.92027 14.5582,-3.23314 16.05753,4.22195 30.61599,0.98881 14.55753,-3.2328 13.05786,-10.68755 27.61564,-13.92027 14.55752,-3.23281 16.05684,4.22194 30.61428,0.98922 14.55752,-3.2328 13.0582,-10.68755 27.61598,-13.92036 14.55786,-3.23272 16.05719,4.22203 30.61505,0.98923 14.558123,-3.23272 13.058455,-10.68747 27.616663,-13.92061 14.557779,-3.2328 16.057447,4.22195 30.615312,0.98914 9.590895,-2.12985 12.220608,-5.48913 16.9692,-8.83191 l -20.368596,-83.35514 c -5.318673,1.33047 -8.745677,2.66353 -17.887212,6.75424 z"
       id="path4498" />
    <path
       style="fill:#e5f400;fill-opacity:1"
       inkscape:connector-curvature="0"
       d="m -54.775674,674.23811 c -14.646348,1.36507 -14.455578,7.20688 -29.156542,6.90131 -14.699249,-0.30514 -14.557522,-7.83209 -29.256344,-8.13799 -14.69959,-0.30598 -14.84166,7.2208 -29.54091,6.91566 -14.69925,-0.30598 -14.55709,-7.8321 -29.256,-8.13808 -14.69891,-0.30598 -14.84063,7.22088 -29.53911,6.91532 -14.69676,-0.30598 -14.55504,-7.83201 -29.25214,-8.13766 -14.69856,-0.30598 -14.84063,7.22089 -29.53885,6.91532 -14.69917,-0.30598 -14.55744,-7.83209 -29.25635,-8.13766 -14.69882,-0.30514 -14.84054,7.22089 -29.53911,6.91533 -14.69779,-0.30598 -14.55641,-7.8321 -29.2542,-8.13766 -14.69753,-0.30599 -14.8396,7.22088 -29.53705,6.91524 -14.69745,-0.30598 -14.55572,-7.83202 -29.25317,-8.13758 -14.69788,-0.30598 -14.8396,7.2208 -29.53774,6.91524 -14.69719,-0.30598 -14.55538,-7.83202 -29.25257,-8.13766 -14.69848,-0.30598 -14.8402,7.22088 -29.53877,6.91532 -14.6971,-0.30598 -14.55538,-7.83201 -29.25248,-8.13724 -14.69642,-0.30598 -14.83815,7.2208 -29.53457,6.91524 -14.69607,-0.30598 -14.55435,-7.83202 -29.25042,-8.13766 -14.69574,-0.30599 -14.83781,7.2213 -29.53354,6.91565 -14.69642,-0.30598 -14.55461,-7.83201 -29.25069,-8.13758 -14.69787,-0.30598 -14.8396,7.22081 -29.53739,6.91524 -14.69745,-0.30598 -14.55572,-7.83201 -29.25326,-8.13766 -14.69779,-0.30598 -14.83986,7.22089 -29.53765,6.91566 -14.69754,-0.30598 -14.55538,-7.83201 -29.25291,-8.13758 -14.69745,-0.30598 -14.83884,7.22081 -29.53629,6.91524 -14.69744,-0.30598 -14.55537,-7.83201 -29.25282,-8.13766 -14.69788,-0.30598 -14.83961,7.22089 -29.53706,6.91533 -14.69787,-0.30598 -14.55606,-7.8321 -29.25394,-8.13767 -9.81279,-0.20426 -13.14042,3.08132 -18.64069,5.198 5.21124,2.82494 8.11961,6.52656 17.88756,7.61725 14.61942,1.63237 15.37676,-5.85323 29.99653,-4.22086 14.62011,1.63236 13.86277,9.11838 28.48289,10.75075 14.61942,1.63278 15.37684,-5.85323 29.99627,-4.22053 14.619,1.63245 13.862,9.11838 28.48109,10.75083 14.61736,1.63195 15.3747,-5.85365 29.99198,-4.22128 14.61908,1.63237 13.86209,9.11838 28.48117,10.75075 14.61943,1.63279 15.37677,-5.85323 29.99619,-4.22086 14.61943,1.63279 13.86209,9.11838 28.48152,10.75075 14.61839,1.63245 15.37573,-5.85323 29.99447,-4.22086 14.61797,1.63237 13.86098,9.11838 28.47937,10.75075 14.61806,1.63245 15.37505,-5.85323 29.99302,-4.22086 14.61839,1.63237 13.8614,9.11838 28.4798,10.75075 14.61762,1.63245 15.37505,-5.85323 29.99267,-4.2212 14.61908,1.6327 13.86209,9.11839 28.48117,10.75075 14.61763,1.63237 15.37462,-5.85323 29.99233,-4.22119 14.61694,1.63237 13.85961,9.11796 28.47697,10.75 14.6166,1.63237 15.37394,-5.85323 29.99062,-4.22128 14.61659,1.63203 13.85926,9.11805 28.47586,10.75008 14.61693,1.63195 15.37401,-5.85364 29.99095,-4.22128 14.6184,1.63237 13.86132,9.11805 28.47972,10.75075 14.61805,1.63204 15.37504,-5.85356 29.9931,-4.22119 14.61831,1.63237 13.86132,9.11838 28.48006,10.75075 14.61771,1.63237 15.37504,-5.85323 29.99267,-4.22086 14.61771,1.63203 13.86072,9.11805 28.47834,10.75041 14.61806,1.63237 15.37505,-5.85331 29.9931,-4.22094 14.61806,1.63245 13.86098,9.11805 28.47903,10.75042 14.6184,1.63236 15.37539,-5.85323 29.993789,-4.22087 14.618311,1.63279 13.860975,9.11839 28.479372,10.75075 9.630421,1.07527 13.077745,-1.23742 18.51088,-2.85503 l 5.081003,-84.85629 c -5.385121,-0.45605 -8.992778,-0.30264 -18.770928,0.60779 z"
       id="path4508" />
    <path
       style="fill:#e5a700;fill-opacity:1"
       inkscape:connector-curvature="0"
       d="m -24.531957,571.01491 c -14.495532,-2.5032 -15.69254,3.20004 -29.8458,-0.9337 -14.151461,-4.13298 -12.234585,-11.37922 -26.386473,-15.5122 -14.151804,-4.13299 -16.069022,3.11324 -30.22091,-1.02008 -14.15146,-4.13298 -12.23424,-11.3793 -26.38579,-15.51229 -14.15146,-4.13298 -16.06799,3.11325 -30.21911,-1.01974 -14.14974,-4.13223 -12.23252,-11.37847 -26.38193,-15.51103 -14.15086,-4.13266 -16.06799,3.11324 -30.21885,-1.01974 -14.15146,-4.13299 -12.23467,-11.37931 -26.38613,-15.51229 -14.15112,-4.13299 -16.06799,3.11333 -30.21911,-1.01966 -14.15052,-4.13265 -12.23364,-11.37855 -26.38407,-15.51154 -14.15043,-4.13257 -16.06697,3.11366 -30.2174,-1.01899 -14.14974,-4.13257 -12.2333,-11.37847 -26.38304,-15.51145 -14.15043,-4.13266 -16.06731,3.11358 -30.21774,-1.01941 -14.14975,-4.13257 -12.23253,-11.37847 -26.38261,-15.51112 -14.15078,-4.13257 -16.06765,3.11324 -30.21877,-1.01974 -14.14983,-4.13224 -12.23261,-11.37847 -26.38236,-15.51104 -14.14872,-4.13232 -16.06585,3.11358 -30.21457,-1.01866 -14.14871,-4.13223 -12.23184,-11.37813 -26.38055,-15.51037 -14.14872,-4.13223 -16.06559,3.114 -30.21388,-1.01832 -14.14906,-4.13224 -12.23219,-11.37847 -26.3809,-15.51071 -14.15043,-4.13265 -16.06731,3.11358 -30.21774,-1.0194 -14.14975,-4.13257 -12.23296,-11.37881 -26.3827,-15.51146 -14.15043,-4.13257 -16.06731,3.11366 -30.21808,-1.01932 -14.14975,-4.13265 -12.23287,-11.37855 -26.38262,-15.51112 -14.14974,-4.13266 -16.06662,3.11358 -30.21636,-1.01899 -14.15009,-4.13266 -12.2333,-11.37856 -26.38305,-15.51112 -14.15043,-4.13266 -16.06688,3.11357 -30.21696,-1.01941 -14.15052,-4.13257 -12.23365,-11.37889 -26.38373,-15.51146 -9.44703,-2.75916 -13.4442,-0.44938 -19.26685,0.16342 4.37477,4.09405 6.31368,8.43513 15.50769,12.04045 13.76092,5.39651 16.26365,-1.64971 30.02457,3.74647 13.76126,5.39651 11.25852,12.44273 25.02013,17.83924 13.76057,5.39659 16.2633,-1.64963 30.02422,3.74688 13.76057,5.39618 11.2575,12.44198 25.01807,17.83816 13.75886,5.39576 16.26151,-1.65038 30.02037,3.74505 13.76057,5.39617 11.25784,12.44198 25.01807,17.83815 13.76092,5.39652 16.26365,-1.6497 30.02457,3.74647 13.76091,5.39618 11.25784,12.4424 25.01841,17.83891 13.75989,5.39576 16.26262,-1.65046 30.02243,3.74572 13.75954,5.39584 11.25681,12.44198 25.01635,17.83782 13.75955,5.39576 16.26185,-1.65038 30.0214,3.74538 13.75989,5.39576 11.25715,12.44198 25.01704,17.83816 13.75878,5.39543 16.26185,-1.65079 30.02071,3.74505 13.76058,5.39609 11.25784,12.44198 25.01807,17.83816 13.75878,5.39576 16.26185,-1.65046 30.02071,3.74496 13.75843,5.39543 11.2557,12.44132 25.01387,17.83674 13.75809,5.39543 16.26083,-1.65079 30.01891,3.74422 13.75783,5.39543 11.2551,12.44131 25.01319,17.83632 13.75851,5.39543 16.26082,-1.65071 30.01934,3.74472 13.75988,5.39576 11.25681,12.44198 25.01661,17.83774 13.75955,5.39584 16.26194,-1.65038 30.02148,3.74538 13.7598,5.39585 11.25716,12.44198 25.01696,17.83783 13.7592,5.39576 16.26193,-1.65046 30.02105,3.74538 13.7592,5.39576 11.25613,12.44198 25.01533,17.83741 13.75946,5.39576 16.26185,-1.65038 30.02139,3.74538 13.75955,5.39584 11.25682,12.44198 25.01628,17.83741 13.759541,5.39584 16.262274,-1.65005 30.022162,3.7458 13.75946,5.39576 11.256812,12.44198 25.016272,17.83774 9.064884,3.55454 12.947593,2.21639 18.587188,2.06924 l 24.9817187,-80.78574 c -5.1020947,-1.84497 -8.6291567,-2.63811 -18.3064777,-4.30949 z"
       id="path4516" />
    <path
       style="fill:#e5a700;fill-opacity:1"
       inkscape:connector-curvature="0"
       d="M 67.59469,183.2076 C 56.355026,169.65392 51.251902,173.83843 41.471351,159.08884 31.691829,144.34117 38.531861,139.33368 28.752682,124.58601 18.97316,109.83792 12.133128,114.84508 2.3536055,100.09699 -7.4252308,85.349319 -0.58554128,80.342163 -10.36472,65.594491 -20.143557,50.847153 -26.983589,55.854643 -36.762082,41.107305 -46.53989,26.361801 -39.7002,21.354311 -49.478008,6.6088909 c -9.778836,-14.747338 -16.618525,-9.7399313 -26.397276,-24.4868529 -9.779179,-14.747671 -2.939147,-19.755161 -12.718326,-34.502499 -9.778836,-14.747338 -16.61887,-9.740181 -26.3977,-24.487519 -9.7785,-14.746588 -2.93881,-19.753745 -12.7173,-34.50033 -9.77815,-14.74584 -16.61784,-9.73877 -26.39634,-24.48494 -9.77806,-14.74592 -2.93803,-19.75332 -12.71618,-34.49925 -9.77849,-14.74658 -16.61818,-9.73909 -26.39667,-24.48568 -9.77815,-14.7455 -2.93812,-19.75291 -12.71584,-34.49883 -9.77884,-14.74692 -16.61853,-9.73985 -26.39737,-24.48677 -9.7778,-14.7455 -2.93811,-19.75299 -12.71592,-34.4985 -9.77738,-14.74509 -16.61707,-9.7376 -26.39453,-24.48277 -9.77704,-14.74475 -2.93769,-19.75182 -12.71447,-34.49658 -9.77704,-14.74442 -16.61707,-9.73726 -26.39419,-24.48168 -9.77704,-14.74475 -2.93743,-19.75224 -12.71481,-34.497 -9.77849,-14.74658 -16.61818,-9.73909 -26.39633,-24.48568 -9.77815,-14.74584 -2.93804,-19.75333 -12.71619,-34.49917 -9.77849,-14.74658 -16.61852,-9.73918 -26.39702,-24.48576 -9.7778,-14.74584 -2.93811,-19.75333 -12.71618,-34.49917 -9.77815,-14.74584 -16.61784,-9.73835 -26.39565,-24.48427 -9.77815,-14.74583 -2.93811,-19.75332 -12.71618,-34.49916 -9.77815,-14.74617 -16.61818,-9.7391 -26.39633,-24.48535 -9.77815,-14.74617 -2.9388,-19.75366 -12.71695,-34.49992 -6.52855,-9.84498 -11.74742,-10.88973 -17.40528,-14.88223 1.03316,7.08624 -0.29322,12.49417 5.40973,22.9015 8.53605,15.57657 15.76036,11.20597 24.29641,26.78254 8.53638,15.57732 1.31207,19.94792 9.84845,35.52524 8.53605,15.57657 15.76002,11.20564 24.29606,26.78221 8.5357,15.57615 1.31173,19.94675 9.84743,35.52291 8.53502,15.5744 15.75933,11.20346 24.29392,26.77787 8.5357,15.57582 1.31173,19.94675 9.84743,35.5229 8.53604,15.57657 15.76036,11.20572 24.29606,26.78229 8.53604,15.57615 1.31172,19.94709 9.84742,35.52333 8.53536,15.57548 15.75968,11.20455 24.29504,26.78003 8.53501,15.57507 1.31104,19.94601 9.8464,35.52108 8.53501,15.57473 15.75933,11.2038 24.29426,26.77853 8.53535,15.57549 1.31104,19.94642 9.84674,35.52149 8.53501,15.5744 15.75899,11.20389 24.294,26.77821 8.5357,15.57623 1.31138,19.94675 9.84708,35.52299 8.53493,15.57431 15.75925,11.2038 24.29392,26.77812 8.53433,15.57365 1.31036,19.94458 9.8446,35.51823 8.53433,15.57357 15.75865,11.20272 24.29297,26.77629 8.53425,15.573652 1.30993,19.944253 9.84426,35.517487 8.53433,15.573652 15.75864,11.202718 24.29289,26.77637 8.53536,15.575069 1.31104,19.946003 9.8464,35.521489 8.53535,15.574736 15.75933,11.20413533 24.29469,26.778538 8.53535,15.575486 1.31104,19.946336 9.84665,35.521489 8.53502,15.574735 15.75933,11.204135 24.294005,26.778537 8.535014,15.574736 1.311041,19.945253 9.845713,35.51999 8.534929,15.57473 15.759245,11.20422 24.29426,26.77862 8.535358,15.57507 1.311041,19.946 9.846399,35.52107 8.535014,15.57507 15.759331,11.20455 24.294689,26.77971 8.534929,15.57507 1.310955,19.946 9.846313,35.52107 5.6232186,10.26093 10.0528591,12.08823 15.2175436,16.35578 L 80.976896,201.35574 C 77.703194,195.71903 75.09826,192.2557 67.59469,183.2076 Z"
       id="path4538" />
    <path
       style="fill:#e5a700;fill-opacity:1"
       inkscape:connector-curvature="0"
       d="M 279.08105,81.06551 C 273.25077,63.734847 266.89996,65.694539 262.8853,47.80344 258.87141,29.914842 267.16773,27.859605 263.15367,9.9710902 259.13943,-7.9181745 250.84312,-5.8625199 246.8288,-23.751785 c -4.01389,-17.888181 4.28242,-19.943502 0.26922,-37.832016 -4.01389,-17.887764 -12.31055,-15.83286 -16.32418,-33.720707 -4.01355,-17.885932 4.28311,-19.941172 0.27008,-37.826762 -4.01389,-17.88785 -12.31021,-15.83253 -16.32419,-33.72038 -4.01389,-17.88809 4.28243,-19.94375 0.26837,-37.83193 -4.01398,-17.88818 -12.31021,-15.83286 -16.32418,-33.72104 -4.01355,-17.8871 4.28311,-19.94233 0.26922,-37.82943 -4.01355,-17.88668 -12.30987,-15.83178 -16.3235,-33.71846 -4.01355,-17.88634 4.28311,-19.94192 0.26922,-37.82826 -4.01354,-17.8871 -12.30986,-15.83178 -16.32384,-33.71888 -4.01354,-17.88634 4.28312,-19.94158 0.27008,-37.82751 -4.01389,-17.88785 -12.31055,-15.83253 -16.32418,-33.72037 -4.01355,-17.88593 4.28311,-19.94117 0.26922,-37.82718 -4.01329,-17.88518 -12.3096,-15.82995 -16.32281,-33.71513 -4.01329,-17.88484 4.28337,-19.94016 0.27008,-37.82501 -4.0132,-17.88484 -12.30952,-15.82919 -16.32281,-33.71404 -4.0132,-17.88526 4.28311,-19.9405 0.27008,-37.82534 -4.01398,-17.8871 -12.30995,-15.83178 -16.32384,-33.71888 -4.013289,-17.88634 4.28303,-19.94158 0.26922,-37.82793 -4.013974,-17.88701 -12.31029,-15.83177 -16.323837,-33.71887 -4.01329,-17.88626 4.283026,-19.94158 0.269222,-37.82785 -4.013633,-17.88634 -12.309949,-15.83111 -16.323497,-33.71737 -4.013204,-17.88635 4.283112,-19.94167 0.269222,-37.82793 -4.013547,-17.88676 -12.309863,-15.83144 -16.323496,-33.71812 -4.013548,-17.8871 4.283112,-19.94234 0.269221,-37.82902 -2.679785,-11.9419 -7.267357,-14.99929 -11.216171,-21.03269 -1.555999,7.14585 -4.755193,11.7624 -3.061669,23.91241 2.535315,18.18491 10.969157,16.88678 13.504385,35.07177 2.535314,18.18566 -5.898528,19.48337 -3.363299,37.66936 2.534885,18.18457 10.969156,16.88645 13.504041,35.07144 2.535229,18.18415 -5.898956,19.48228 -3.363642,37.66685 2.534542,18.18232 10.968728,16.8842 13.50327,35.06619 2.535314,18.18424 -5.898871,19.48228 -3.363642,37.66652 2.535228,18.18491 10.969156,16.88678 13.504384,35.07135 2.535229,18.18458 -5.898956,19.4827 -3.363642,37.66728 2.534885,18.1834 10.968728,16.88528 13.503613,35.06877 2.534971,18.18307 -5.898871,19.48119 -3.363986,37.66427 2.534886,18.18274 10.969153,16.88461 13.504043,35.06735 2.53488,18.18341 -5.898957,19.48153 -3.36407,37.66502 2.53497,18.18232 10.96881,16.8842 13.5037,35.06694 2.53531,18.18424 -5.89887,19.48228 -3.36365,37.66652 2.53455,18.18232 10.96839,16.8842 13.50336,35.0666 2.53454,18.18157 -5.8993,19.4797 -3.36441,37.66135 2.53454,18.18124 10.96847,16.88312 13.50301,35.06436 2.53454,18.18123 -5.8993,19.47902 -3.36476,37.66026 2.53463,18.18158 10.96847,16.88345 13.50302,35.06477 2.53522,18.18308 -5.89896,19.48153 -3.36399,37.66502 2.53488,18.18266 10.96907,16.88453 13.50361,35.06727 2.53497,18.18383 -5.89887,19.48162 -3.36398,37.66544 2.53488,18.182656 10.96907,16.88462 13.5037,35.066938 2.53488,18.182739 -5.89896,19.480863 -3.36408,37.663185 2.53463,18.182739 10.96882,16.884615 13.50336,35.0676879 2.53489,18.1830726 -5.89896,19.4808631 -3.36398,37.6642691 2.53488,18.18349 10.96872,16.885032 13.50361,35.068438 2.53497,18.183073 -5.89887,19.481197 -3.36399,37.664272 1.67012,11.979 5.22659,15.46852 8.60815,21.56853 l 94.56774,-18.95503 c -1.09258,-6.654528 -2.328,-10.977272 -6.22057,-22.547 z"
       id="path4550" />
    <path
       style="fill:#e5a700;fill-opacity:1"
       inkscape:connector-curvature="0"
       d="m 521.16394,77.402166 c 0.66105,-18.657884 -6.034,-19.30211 -3.45856,-37.775739 2.57519,-18.471045 11.14167,-17.152327 13.71685,-35.6237053 2.57518,-18.4713777 -5.9913,-19.7900947 -3.4162,-38.2614727 2.57484,-18.470711 11.14166,-17.151994 13.7165,-35.623038 2.57519,-18.470628 -5.99164,-19.788928 -3.41654,-38.259641 2.5745,-18.46804 11.14098,-17.14974 13.71582,-35.61778 2.57518,-18.4703 -5.99173,-19.78868 -3.41689,-38.25898 2.57518,-18.47062 11.14167,-17.15232 13.71685,-35.62295 2.57475,-18.47063 -5.99173,-19.78901 -3.41689,-38.25964 2.57484,-18.46954 11.14167,-17.15083 13.71651,-35.62037 2.57475,-18.46921 -5.99173,-19.78793 -3.41723,-38.25714 2.57475,-18.46879 11.14132,-17.15049 13.71607,-35.61895 2.57484,-18.46954 -5.99164,-19.78784 -3.41723,-38.25739 2.57484,-18.46846 11.14132,-17.15016 13.71616,-35.61862 2.57519,-18.47021 -5.99172,-19.78859 -3.41654,-38.25888 2.5745,-18.46846 11.14098,-17.14975 13.71582,-35.61821 2.57441,-18.46771 -5.99207,-19.78601 -3.41758,-38.25372 2.57476,-18.46737 11.14098,-17.14866 13.71574,-35.61603 2.57415,-18.46696 -5.99233,-19.78534 -3.41792,-38.25264 2.57484,-18.46737 11.14098,-17.14866 13.71548,-35.61603 2.57475,-18.46954 -5.99173,-19.78785 -3.41689,-38.25739 2.57475,-18.46888 11.14098,-17.15016 13.71608,-35.61895 2.57484,-18.46955 -5.99165,-19.78793 -3.41681,-38.25747 2.57476,-18.46846 11.1409,-17.15008 13.71608,-35.61896 2.57484,-18.46837 -5.99198,-19.78709 -3.41723,-38.25555 2.57484,-18.46888 11.14132,-17.15049 13.71616,-35.61895 2.57476,-18.46921 -5.99173,-19.78793 -3.41723,-38.25672 2.57484,-18.46921 11.14167,-17.15083 13.71608,-35.62004 1.71882,-12.33059 -1.52556,-17.02068 -3.10746,-24.26983 -4.01251,6.13712 -8.67674,9.24011 -11.40068,21.37978 -4.07725,18.1699 4.34999,20.25748 0.27265,38.42738 -4.07725,18.17057 -12.50415,16.08256 -16.5814,34.25313 -4.07725,18.16948 4.3499,20.25715 0.27265,38.42697 -4.07691,18.16948 -12.5038,16.08148 -16.58071,34.25096 -4.07657,18.16732 4.35024,20.2549 0.27351,38.4218 -4.07691,18.16915 -12.50381,16.08148 -16.58072,34.25063 -4.07691,18.16982 4.34991,20.25749 0.27265,38.42697 -4.07699,18.16948 -12.5038,16.08181 -16.58105,34.2513 -4.077,18.16839 4.35024,20.25606 0.27351,38.42438 -4.07691,18.16807 -12.50373,16.0804 -16.58029,34.24879 -4.07665,18.16765 4.35059,20.25524 0.27351,38.42289 -4.077,18.1684 -12.50381,16.08073 -16.58037,34.24913 -4.07666,18.16731 4.35024,20.2549 0.2735,38.42255 -4.07699,18.16915 -12.5038,16.08148 -16.58071,34.25062 -4.07665,18.16724 4.35025,20.25491 0.27351,38.42214 -4.07622,18.16656 -12.50346,16.07889 -16.57969,34.24546 -4.07622,18.16615 4.35059,20.25382 0.27437,38.41996 -4.07622,18.16582 -12.50346,16.07856 -16.57934,34.24438 -4.07623,18.16656 4.35067,20.25415 0.27436,38.42038 -4.07699,18.16832 -12.5038,16.08073 -16.58037,34.24905 -4.07665,18.16764 4.35025,20.25531 0.27351,38.42296 -4.07699,18.1684 -12.50381,16.08073 -16.58037,34.24913 -4.07665,18.16765 4.35024,20.25524 0.27351,38.42288 -4.07657,18.16765 -12.50347,16.08007 -16.58003,34.247298 -4.07657,18.167649 4.35024,20.255319 0.27351,38.422967 -4.07657,18.167982 -12.50347,16.080312 -16.58003,34.248711 -4.07691,18.1683991 4.3499,20.2556523 0.27351,38.424051 -4.07657,18.168316 -12.50347,16.080729 -16.58038,34.248711 -2.68544,11.969086 -0.56845,16.661758 0.45442,23.750999 l 96.05489,19.252833 c 1.3359,-6.710805 1.70724,-11.278834 2.14888,-23.734404 z"
       id="path4562" />
    <path
       style="fill:#e5a700;fill-opacity:1"
       inkscape:connector-curvature="0"
       d="m 685.72692,277.77572 c 6.64789,-15.88805 1.07097,-18.85198 9.31336,-33.89279 8.24101,-15.03814 15.21583,-10.81878 23.45684,-25.85701 8.24136,-15.03856 1.26654,-19.25867 9.5079,-34.29765 8.24102,-15.03814 15.21549,-10.81837 23.45684,-25.85659 8.24068,-15.0379 1.2662,-19.25768 9.50688,-34.29549 8.23998,-15.03639 15.2148,-10.8162 23.4547,-25.85259 8.24067,-15.037811 1.26628,-19.257589 9.50695,-34.295067 8.24059,-15.038561 15.2154,-10.818783 23.45676,-25.857011 8.24067,-15.038227 1.26629,-19.258005 9.50687,-34.2958164 8.24067,-15.0374776 15.21514,-10.8176993 23.45547,-25.8548436 8.24024,-15.03706 1.26586,-19.256505 9.50619,-34.293566 8.24033,-15.036393 15.21471,-10.816948 23.45504,-25.853342 8.24033,-15.037477 1.26586,-19.256924 9.50618,-34.293984 8.23999,-15.03639 15.21472,-10.81661 23.4547,-25.85292 8.24102,-15.0379 1.2662,-19.25768 9.50688,-34.29515 8.23998,-15.03631 15.2148,-10.81654 23.4547,-25.85293 8.2393,-15.03564 1.26525,-19.25542 9.50447,-34.29106 8.2393,-15.03523 15.21437,-10.81545 23.45367,-25.85076 8.23887,-15.03523 1.26448,-19.25501 9.50412,-34.2899 8.23922,-15.03564 15.21366,-10.81586 23.45356,-25.85117 8.2404,-15.03707 1.2656,-19.25684 9.5063,-34.29399 8.2402,-15.03672 15.2147,-10.81695 23.455,-25.85367 8.2403,-15.03706 1.2659,-19.25684 9.5062,-34.29399 8.2404,-15.03672 15.2147,-10.81695 23.4551,-25.85334 8.24,-15.03631 1.2655,-19.25609 9.5051,-34.29248 8.2404,-15.03673 15.2147,-10.81695 23.4551,-25.85368 8.2403,-15.03714 1.2655,-19.2565 9.5058,-34.29365 8.2407,-15.03706 15.2151,-10.81736 23.4554,-25.85442 5.5014,-10.03924 4.225,-15.25925 5.2183,-22.09362 -5.4668,3.86127 -10.5086,4.86625 -16.8164,14.37924 -9.441,14.23835 -2.8379,19.07267 -12.279,33.31068 -9.4411,14.23834 -16.0449,9.4041 -25.4863,23.64286 -9.4411,14.2376 -2.8378,19.07192 -12.2788,33.30993 -9.4411,14.23759 -16.0446,9.40335 -25.4857,23.64103 -9.4401,14.23617 -2.8362,19.07041 -12.2762,33.30617 -9.4408,14.23768 -16.0446,9.40344 -25.4854,23.6407 -9.4411,14.23801 -2.838,19.07225 -12.2791,33.31026 -9.4407,14.23768 -16.04455,9.40344 -25.48557,23.64103 -9.44042,14.23734 -2.8366,19.07158 -12.27771,33.30851 -9.44042,14.23684 -16.0439,9.40227 -25.48424,23.63919 -9.44008,14.23618 -2.83626,19.07075 -12.27668,33.30734 -9.44042,14.23685 -16.04381,9.40261 -25.48458,23.63953 -9.44008,14.23618 -2.83626,19.07042 -12.27634,33.30659 -9.44111,14.23768 -16.0445,9.40344 -25.48527,23.64103 -9.44042,14.23618 -2.8366,19.07042 -12.27668,33.30626 -9.43931,14.23543 -16.04313,9.40119 -25.48243,23.63661 -9.4394,14.23509 -2.83592,19.069751 -12.27497,33.304759 -9.43931,14.235092 -16.04313,9.400852 -25.4821,23.635944 -9.43939,14.235425 -2.83591,19.069665 -12.27522,33.30509 -9.44042,14.236926 -16.0439,9.402686 -25.48432,23.6395289 -9.44034,14.2361761 -2.83661,19.0708331 -12.27694,33.3070081 -9.44043,14.236926 -16.0439,9.402686 -25.48458,23.639946 -9.44008,14.236175 -2.83661,19.070749 -12.27669,33.306925 -9.44008,14.236179 -16.04347,9.401935 -25.48355,23.638109 -9.44008,14.23618 -2.8366,19.07083 -12.27702,33.30701 -9.44034,14.23693 -16.04382,9.4026 -25.48424,23.6392 -9.44042,14.23692 -2.83694,19.07116 -12.27737,33.30809 -9.44033,14.23684 -16.04381,9.40227 -25.48423,23.63919 -6.21911,9.37909 -5.91782,14.19641 -7.34256,20.69103 l 76.74912,51.17751 c 3.33989,-5.3223 5.14822,-9.1368 9.58669,-19.74382 z"
       id="path4574" />
    <path
       style="fill:#e56a00;fill-opacity:1"
       inkscape:connector-curvature="0"
       d="m 779.68788,385.44339 c 10.13997,-13.57278 5.46777,-17.87568 16.94365,-30.21794 11.47484,-12.34052 17.19838,-6.46519 28.67288,-18.80571 11.47485,-12.34118 5.75132,-18.2165 17.22651,-30.55744 11.47441,-12.34043 17.19769,-6.4651 28.6722,-18.80528 11.4745,-12.3401 5.75088,-18.21543 17.22539,-30.55552 11.47304,-12.33868 17.19632,-6.46336 28.66937,-18.80204 11.4745,-12.3401 5.75097,-18.21542 17.22538,-30.55552 11.47451,-12.34051 17.19779,-6.46519 28.67229,-18.8057 11.4745,-12.3401 5.75089,-18.21543 17.22539,-30.55594 11.47373,-12.33943 17.19735,-6.46411 28.67086,-18.80345 11.4734,-12.33944 5.7505,-18.21476 17.2239,-30.55411 11.4731,-12.339011 17.1968,-6.46369 28.6698,-18.802701 11.4738,-12.339764 5.7505,-18.215088 17.2244,-30.554518 11.473,-12.339014 17.1963,-6.463273 28.6694,-18.802371 11.4744,-12.340097 5.7509,-18.215421 17.2253,-30.5555188 11.4732,-12.3386803 17.1964,-6.4633565 28.6695,-18.8020368 11.4728,-12.3382634 5.7491,-18.2135874 17.2218,-30.5522674 11.4725,-12.33793 17.1957,-6.462606 28.6681,-18.800453 11.4724,-12.338347 5.7488,-18.213671 17.2209,-30.551184 11.4723,-12.33826 17.1956,-6.462606 28.668,-18.80087 11.4738,-12.33976 5.7505,-18.21509 17.2243,-30.55452 11.4731,-12.33901 17.1967,-6.46327 28.6698,-18.8027 11.4738,-12.33935 5.7505,-18.21509 17.2243,-30.55444 11.4731,-12.33909 17.1967,-6.46377 28.6698,-18.80278 11.4731,-12.33902 5.7495,-18.21434 17.2229,-30.55336 11.4731,-12.33901 17.1967,-6.46369 28.6698,-18.8027 11.4735,-12.33943 5.7506,-18.21475 17.224,-30.5541 11.4734,-12.33943 17.197,-6.46411 28.6704,-18.80346 7.6601,-8.23837 7.659,-13.5967 10.2233,-19.9199 -6.1729,2.29835 -11.2641,1.95635 -19.5772,9.47805 -12.4421,11.25825 -7.2208,17.62889 -19.663,28.88672 -12.4425,11.25866 -17.6635,4.88802 -30.106,16.14626 -12.4423,11.25783 -7.2209,17.62856 -19.6628,28.88638 -12.4418,11.25791 -17.6631,4.88685 -30.1047,16.14476 -12.4404,11.25641 -7.2186,17.62739 -19.6591,28.88347 -12.4415,11.25749 -17.6632,4.88685 -30.1044,16.14468 -12.4421,11.25824 -7.2208,17.62897 -19.6629,28.8868 -12.4415,11.25749 -17.663,4.88684 -30.1048,16.14476 -12.4411,11.25716 -7.2197,17.6278 -19.6609,28.88529 -12.4408,11.257165 -17.6621,4.8861 -30.1029,16.143264 -12.4408,11.256743 -7.2191,17.627472 -19.6599,28.884216 -12.4408,11.25716 -17.6621,4.886515 -30.1033,16.143592 -12.4404,11.25641 -7.2187,17.627472 -19.6591,28.884216 -12.4415,11.2575775 -17.6632,4.886849 -30.1048,16.14434287 -12.4403,11.25641013 -7.2186,17.62747213 -19.6591,28.88421613 -12.4397,11.256076 -17.6611,4.885014 -30.1009,16.141091 -12.4394,11.25566 -7.2184,17.626305 -19.65769,28.882382 -12.43942,11.25566 -17.66043,4.885014 -30.10019,16.140674 -12.43933,11.255996 -7.21831,17.626726 -19.65773,28.882716 -12.44113,11.25716 -17.66215,4.88651 -30.10328,16.14368 -12.44078,11.25674 -7.21908,17.6278 -19.65987,28.88421 -12.44113,11.25708 -17.66215,4.88643 -30.10328,16.14393 -12.44044,11.25682 -7.21908,17.62747 -19.65953,28.88421 -12.44078,11.25683 -17.6618,4.8861 -30.10224,16.14251 -12.44079,11.25683 -7.21978,17.62747 -19.65988,28.88422 -12.44079,11.25716 -17.66214,4.88618 -30.10293,16.14326 -12.44079,11.25716 -7.21977,17.6278 -19.66056,28.88496 -12.44079,11.25716 -17.66249,4.8861 -30.10336,16.14326 -8.19618,7.41615 -9.03925,12.1335 -11.93956,18.01758 l 61.86484,69.22127 c 4.46891,-4.25805 7.10771,-7.46142 13.87744,-16.52244 z"
       id="path4582" />
    <path
       style="fill:#e5a700;fill-opacity:1"
       inkscape:connector-curvature="0"
       d="m 733.44939,539.65434 c 11.26761,-10.31646 7.78882,-15.00071 20.05144,-23.97786 12.26125,-8.97606 16.42433,-2.69813 28.68524,-11.67419 12.26125,-8.9764 8.09851,-15.25442 20.35976,-24.23082 12.26056,-8.97614 16.42355,-2.69771 28.68412,-11.67386 12.26056,-8.97564 8.09757,-15.25366 20.35848,-24.22973 12.25876,-8.97498 16.42218,-2.69663 28.6806,-11.67119 12.26056,-8.97573 8.09749,-15.25375 20.35805,-24.22939 12.2609,-8.97615 16.42355,-2.69772 28.68446,-11.67387 12.26056,-8.97606 8.09757,-15.25399 20.35813,-24.22972 12.26014,-8.97532 16.42287,-2.69738 28.68301,-11.6727 12.26022,-8.97531 8.09688,-15.25333 20.35668,-24.22864 12.25914,-8.97498 16.42254,-2.69663 28.68174,-11.67195 12.2602,-8.97539 8.0971,-15.25333 20.3573,-24.22872 12.2591,-8.97498 16.4222,-2.69663 28.6813,-11.67153 12.2606,-8.97573 8.0976,-15.25375 20.3582,-24.22948 12.2591,-8.9749 16.4221,-2.69655 28.6812,-11.67153 12.2589,-8.97423 8.0958,-15.25224 20.3542,-24.22689 12.2589,-8.97423 16.4215,-2.69621 28.68,-11.67044 12.2585,-8.97423 8.0954,-15.25225 20.3539,-24.22648 12.2584,-8.97423 16.4211,-2.69621 28.6799,-11.67044 12.2595,-8.9754 8.0968,-15.25333 20.3567,-24.22873 12.2594,-8.9749 16.4225,-2.69655 28.6816,-11.67194 12.2602,-8.97532 8.0972,-15.25333 20.3574,-24.22865 12.2595,-8.97498 16.4225,-2.69696 28.6817,-11.67194 12.2595,-8.97498 8.0965,-15.253 20.356,-24.227563 12.2594,-8.97498 16.4225,-2.696963 28.6816,-11.671943 12.2596,-8.975314 8.0968,-15.253331 20.3564,-24.228312 12.2602,-8.975314 16.4228,-2.69738 28.683,-11.67236 8.1847,-5.992213 9.0534,-10.782766 12.3729,-15.975928 -5.8912,0.948456 -10.3874,-0.269296 -19.04,4.965219 -12.95,7.834933 -9.3165,14.465953 -22.2666,22.301386 -12.9503,7.835349 -16.5838,1.204329 -29.5349,9.039261 -12.95,7.835016 -9.3161,14.465703 -22.2662,22.300635 -12.9496,7.835016 -16.5834,1.203995 -29.5331,9.038594 -12.9482,7.833515 -9.3144,14.464531 -22.2627,22.298471 -12.9497,7.8346 -16.5831,1.20357 -29.5328,9.03859 -12.9501,7.83493 -9.3165,14.46562 -22.2665,22.30064 -12.9497,7.83493 -16.5835,1.20391 -29.5332,9.03859 -12.9493,7.83418 -9.3152,14.4652 -22.2645,22.29947 -12.9486,7.83426 -16.5827,1.20324 -29.5314,9.03751 -12.9486,7.83385 -9.3147,14.46487 -22.2633,22.2988 -12.9493,7.83426 -16.5829,1.20358 -29.5318,9.03784 -12.9483,7.83385 -9.3148,14.46487 -22.263,22.2988 -12.9497,7.8346 -16.5832,1.20358 -29.5329,9.03818 -12.9482,7.83393 -9.3144,14.46495 -22.2627,22.2988 -12.9478,7.83352 -16.5814,1.2025 -29.52929,9.03643 -12.94751,7.8331 -9.31404,14.46412 -22.26086,22.29763 -12.9476,7.8336 -16.58149,1.20258 -29.52831,9.03609 -12.94794,7.83352 -9.31405,14.46412 -22.2613,22.29764 -12.9493,7.83426 -16.58277,1.20358 -29.53173,9.03784 -12.94862,7.83393 -9.31482,14.46495 -22.26335,22.2988 -12.94931,7.83427 -16.58286,1.20366 -29.53183,9.03826 -12.94828,7.83385 -9.31473,14.46487 -22.263,22.2988 -12.94863,7.83427 -16.58209,1.20325 -29.53037,9.0371 -12.94862,7.83426 -9.31516,14.46487 -22.26335,22.2988 -12.94862,7.83426 -16.58286,1.20358 -29.53148,9.03751 -12.94897,7.83418 -9.31507,14.4652 -22.26404,22.29947 -12.94862,7.83426 -16.58286,1.20366 -29.53148,9.03751 -8.53038,5.16156 -10.05003,9.22727 -13.59784,13.96771 l 44.07074,72.96732 c 4.68626,-3.00294 7.56556,-5.39359 15.08808,-12.2809 z"
       id="path4588" />
  </g>
</svg>
