<?xml version="1.0" encoding="UTF-8" standalone="no"?>
<!-- Created with Inkscape (http://www.inkscape.org/) -->

<svg
   xmlns:dc="http://purl.org/dc/elements/1.1/"
   xmlns:cc="http://creativecommons.org/ns#"
   xmlns:rdf="http://www.w3.org/1999/02/22-rdf-syntax-ns#"
   xmlns:svg="http://www.w3.org/2000/svg"
   xmlns="http://www.w3.org/2000/svg"
   xmlns:sodipodi="http://sodipodi.sourceforge.net/DTD/sodipodi-0.dtd"
   xmlns:inkscape="http://www.inkscape.org/namespaces/inkscape"
   width="200mm"
   height="200mm"
   viewBox="0 0 708.66142 708.66141"
   id="svg4374"
   version="1.1"
   inkscape:version="0.91 r13725"
   sodipodi:docname="frame9.svg">
  <defs
     id="defs4376">
    <inkscape:path-effect
       effect="spiro"
       id="path-effect4401"
       is_visible="true" />
    <inkscape:path-effect
       effect="spiro"
       id="path-effect4397"
       is_visible="true" />
  </defs>
  <sodipodi:namedview
     id="base"
     pagecolor="#ffffff"
     bordercolor="#666666"
     borderopacity="1.0"
     inkscape:pageopacity="0.0"
     inkscape:pageshadow="2"
     inkscape:zoom="0.0875"
     inkscape:cx="-805.11814"
     inkscape:cy="-242.34603"
     inkscape:document-units="px"
     inkscape:current-layer="layer1"
     showgrid="false"
     inkscape:window-width="1280"
     inkscape:window-height="961"
     inkscape:window-x="-8"
     inkscape:window-y="-8"
     inkscape:window-maximized="1" />
  <metadata
     id="metadata4379">
    <rdf:RDF>
      <cc:Work
         rdf:about="">
        <dc:format>image/svg+xml</dc:format>
        <dc:type
           rdf:resource="http://purl.org/dc/dcmitype/StillImage" />
        <dc:title></dc:title>
      </cc:Work>
    </rdf:RDF>
  </metadata>
  <g
     inkscape:label="Ebene 1"
     inkscape:groupmode="layer"
     id="layer1"
     transform="translate(0,-343.70079)">
    <path
       style="fill:#e5a700;fill-opacity:1"
       inkscape:connector-curvature="0"
       d="m 782.66621,816.20784 c 14.98896,-1.39667 14.79407,-7.37529 29.83902,-7.06273 15.04298,0.31265 14.89774,8.01519 29.94063,8.32809 15.04324,0.31265 15.18848,-7.39005 30.23206,-7.07707 15.04255,0.31265 14.89765,8.01519 29.9402,8.32775 15.04255,0.31265 15.18779,-7.38963 30.23034,-7.07706 15.04049,0.31265 14.89559,8.01518 29.936,8.32808 15.04255,0.31265 15.18779,-7.38997 30.23,-7.07707 15.04294,0.31265 14.89764,8.01519 29.94064,8.32776 15.0425,0.31265 15.1878,-7.38964 30.2303,-7.07707 15.0418,0.31265 14.8962,8.01518 29.9381,8.32808 15.0418,0.31265 15.1871,-7.38996 30.2283,-7.0774 15.0411,0.31265 14.8958,8.01519 29.9373,8.32809 15.0419,0.31265 15.1871,-7.38997 30.2287,-7.07707 15.0407,0.31265 14.8959,8.01519 29.9367,8.32775 15.0422,0.31265 15.1874,-7.38963 30.2296,-7.07707 15.0408,0.31265 14.8959,8.01519 29.9367,8.32776 15.0401,0.31265 15.1854,-7.39005 30.2251,-7.07707 15.0402,0.31265 14.8949,8.01518 29.9346,8.32775 15.0401,0.31265 15.1847,-7.39005 30.2248,-7.07748 15.0401,0.31265 14.8948,8.01518 29.9346,8.32775 15.0418,0.31265 15.187,-7.38964 30.2286,-7.07707 15.0411,0.31265 14.8959,8.01519 29.9374,8.32775 15.0418,0.31265 15.187,-7.38963 30.2286,-7.07706 15.0408,0.31265 14.8959,8.01518 29.9374,8.32775 15.0408,0.31265 15.1857,-7.38964 30.2268,-7.07707 15.0412,0.31265 14.896,8.01519 29.9374,8.32775 15.0415,0.31265 15.1864,-7.38972 30.228,-7.07715 15.0418,0.31265 14.8969,8.01519 29.9381,8.32817 10.0423,0.20843 13.448,-3.15335 19.0768,-5.31931 -5.333,-2.89114 -8.3096,-6.67921 -18.3058,-7.79524 -14.9617,-1.67064 -15.737,5.99004 -30.6983,4.31941 -14.9621,-1.67064 -14.1872,-9.33166 -29.1496,-11.00229 -14.9614,-1.67064 -15.7362,5.99004 -30.6976,4.31941 -14.9613,-1.67064 -14.1865,-9.33165 -29.1479,-11.00229 -14.9592,-1.67064 -15.7341,5.99038 -30.6933,4.31974 -14.9613,-1.67055 -14.1865,-9.33165 -29.1472,-11.00229 -14.9613,-1.67063 -15.7362,5.99005 -30.6982,4.3195 -14.961,-1.67064 -14.1865,-9.33132 -29.1472,-11.00237 -14.9607,-1.67056 -15.7355,5.99046 -30.6962,4.31982 -14.9599,-1.67063 -14.185,-9.33165 -29.145,-11.00229 -14.9599,-1.6703 -15.7352,5.99038 -30.6948,4.31983 -14.9606,-1.67064 -14.1854,-9.33132 -29.1461,-11.00237 -14.9595,-1.67022 -15.7345,5.99046 -30.6944,4.31983 -14.961,-1.67064 -14.1858,-9.33132 -29.1468,-11.00229 -14.9596,-1.67064 -15.7345,5.99038 -30.6937,4.31982 -14.9593,-1.67063 -14.1844,-9.33131 -29.143,-11.00195 -14.9588,-1.67064 -15.7334,5.99038 -30.6923,4.31974 -14.9582,-1.67022 -14.1833,-9.33123 -29.1419,-11.00154 -14.9589,-1.67022 -15.7337,5.99047 -30.6923,4.31983 -14.9606,-1.67064 -14.1855,-9.33132 -29.1461,-11.00195 -14.9599,-1.67064 -15.7345,5.99046 -30.69475,4.31982 -14.96066,-1.67063 -14.18549,-9.33132 -29.14616,-11.00195 -14.95956,-1.67064 -15.73447,5.99038 -30.69437,4.31982 -14.95964,-1.6703 -14.18515,-9.33131 -29.14471,-11.00195 -14.95964,-1.67064 -15.73446,5.99038 -30.69479,4.31983 -14.96032,-1.67064 -14.18507,-9.33132 -29.14505,-11.00196 -14.95998,-1.67064 -15.73515,5.99038 -30.69548,4.31974 -14.95998,-1.67055 -14.18507,-9.33165 -29.14505,-11.00187 -9.85618,-1.10069 -13.38367,1.26644 -18.94378,2.92199 l -5.19967,86.84132 c 5.51013,0.46856 9.20173,0.31182 19.20872,-0.6203 z"
       id="path4408" />
    <path
       style="fill:#b08100;fill-opacity:1"
       inkscape:connector-curvature="0"
       d="m 636.17272,1179.3904 c 11.83915,11.0961 16.07116,6.6233 26.70079,18.9984 10.62757,12.3732 4.88921,17.815 15.51712,30.1882 10.62791,12.3736 16.36654,6.9318 26.99479,19.3054 10.62749,12.3729 4.88886,17.8146 15.51643,30.1878 10.62749,12.3729 16.3662,6.9311 26.99334,19.304 10.62646,12.3713 4.88783,17.8131 15.5136,30.1845 10.62757,12.3729 16.3662,6.9312 26.99343,19.3036 10.62782,12.3732 4.8892,17.815 15.51711,30.1882 10.62714,12.3728 16.36551,6.9311 26.99334,19.3039 10.62688,12.3721 4.88817,17.8139 15.5154,30.1865 10.6268,12.3721 16.36508,6.9303 26.99197,19.3024 10.62645,12.3718 4.88783,17.8135 15.51428,30.1853 10.62723,12.3721 16.36551,6.9303 26.99231,19.3025 10.62654,12.3717 4.88792,17.8135 15.51438,30.1848 10.62714,12.3729 16.3655,6.9311 26.99333,19.3036 10.62577,12.3714 4.88749,17.8132 15.51369,30.185 10.62577,12.3706 16.36439,6.9292 26.99017,19.2998 10.6254,12.3706 4.8871,17.8128 15.5126,30.1834 10.6254,12.3703 16.3641,6.929 26.9895,19.2996 10.6258,12.3707 4.8875,17.8124 15.5129,30.1834 10.6268,12.3721 16.3651,6.93 26.9924,19.3025 10.6264,12.3717 4.8878,17.8135 15.5142,30.1853 10.6273,12.3721 16.3656,6.9303 26.9924,19.3024 10.6265,12.3721 4.8879,17.8135 15.5147,30.1853 10.6264,12.3718 16.3648,6.93 26.9912,19.3018 10.6265,12.3717 4.8879,17.8134 15.5147,30.1852 10.6265,12.3721 16.3651,6.93 26.9916,19.3021 10.6269,12.3721 4.8883,17.8139 15.5151,30.186 7.0948,8.2601 12.0117,8.5837 17.6582,11.5657 -1.7341,-6.3931 -1.1115,-11.5304 -7.5091,-20.4083 -9.5759,-13.2878 -15.7383,-8.3844 -25.3142,-21.6721 -9.5762,-13.2878 -3.4134,-18.1913 -12.9895,-31.479 -9.5759,-13.2878 -15.738,-8.3844 -25.3138,-21.6718 -9.5759,-13.2874 -3.413,-18.1908 -12.9886,-31.4775 -9.5744,-13.2859 -15.7372,-8.3826 -25.3113,-21.6681 -9.5755,-13.2871 -3.413,-18.1901 -12.9886,-31.4775 -9.5758,-13.2875 -15.7382,-8.384 -25.3138,-21.6718 -9.5758,-13.2871 -3.413,-18.1901 -12.9885,-31.4775 -9.5754,-13.2863 -15.7379,-8.3837 -25.3131,-21.67 -9.5751,-13.2863 -3.4123,-18.1893 -12.9871,-31.4756 -9.5744,-13.286 -15.7373,-8.3826 -25.3117,-21.6689 -9.5748,-13.2867 -3.4126,-18.1897 -12.9875,-31.4763 -9.5744,-13.286 -15.73717,-8.3826 -25.31161,-21.6685 -9.57555,-13.2871 -3.41268,-18.1901 -12.98823,-31.4776 -9.57443,-13.2859 -15.73721,-8.3825 -25.31165,-21.6681 -9.57409,-13.2852 -3.41131,-18.1882 -12.9854,-31.4734 -9.57375,-13.2848 -15.73618,-8.3818 -25.30993,-21.6667 -9.57375,-13.2845 -3.41131,-18.1878 -12.98497,-31.4727 -9.57418,-13.2852 -15.73696,-8.3818 -25.31036,-21.667 -9.57478,-13.2863 -3.41234,-18.1897 -12.98746,-31.476 -9.57444,-13.286 -15.7373,-8.3829 -25.31173,-21.6689 -9.57478,-13.2867 -3.4126,-18.1897 -12.98747,-31.4763 -9.57443,-13.286 -15.73721,-8.3826 -25.31164,-21.669 -9.57443,-13.2863 -3.41234,-18.1889 -12.98678,-31.4748 -9.57443,-13.2863 -15.73729,-8.383 -25.31172,-21.6693 -9.57478,-13.2863 -3.41235,-18.1893 -12.98712,-31.4756 -9.57478,-13.2863 -15.73721,-8.3833 -25.31242,-21.67 -9.57478,-13.2863 -3.41226,-18.1897 -12.98746,-31.4756 -6.30768,-8.7529 -10.58513,-9.8936 -15.80863,-13.1885 l -67.27062,58.4741 c 3.63389,4.7861 6.41305,7.6541 14.31702,15.0617 z"
       id="path4434" />
    <path
       style="fill:#e50000;fill-opacity:1"
       inkscape:connector-curvature="0"
       d="m 518.95203,1227.8599 c 8.751,13.7 13.85575,10.5066 21.14729,25.1197 7.29016,14.6113 0.51357,18.3438 7.80425,32.9551 7.29042,14.6113 14.06684,10.8787 21.35726,25.49 7.29008,14.6108 0.51358,18.3437 7.80357,32.9547 7.29008,14.6105 14.06641,10.8779 21.35657,25.4885 7.2894,14.6091 0.51272,18.3415 7.80177,32.9506 7.29008,14.6106 14.06641,10.8777 21.35623,25.4882 7.29042,14.6109 0.51358,18.3438 7.80417,32.9547 7.28983,14.6105 14.0665,10.878 21.35657,25.4886 7.28948,14.6101 0.51358,18.3426 7.80289,32.9528 7.28939,14.6094 14.06572,10.8769 21.35546,25.4863 7.28948,14.6094 0.51272,18.3423 7.80254,32.9514 7.28939,14.6102 14.06572,10.8769 21.35546,25.4866 7.28947,14.6091 0.51272,18.342 7.80185,32.9515 7.28974,14.6101 14.06641,10.8772 21.35657,25.4878 7.2894,14.609 0.51273,18.3416 7.80178,32.9506 7.2887,14.6079 14.06503,10.8754 21.35374,25.4837 7.2887,14.608 0.51272,18.3405 7.80108,32.9484 7.28871,14.6081 14.06504,10.8751 21.35374,25.4831 7.28871,14.6083 0.51273,18.3408 7.80109,32.9495 7.28982,14.6098 14.06581,10.8769 21.35554,25.4867 7.28939,14.6094 0.51272,18.3424 7.80246,32.9517 7.28982,14.6099 14.06581,10.8769 21.35554,25.4871 7.28939,14.6091 0.51272,18.342 7.80246,32.9514 7.28948,14.6091 14.06546,10.8762 21.35485,25.4852 7.2894,14.6095 0.51273,18.3423 7.80246,32.9518 7.28939,14.6094 14.06581,10.8769 21.3552,25.486 7.28974,14.6097 0.51272,18.3426 7.8028,32.9521 4.86683,9.7541 9.50481,11.3358 14.2198,15.6552 -0.16462,-6.5773 1.63547,-11.3413 -2.41837,-21.5074 -6.06735,-15.2158 -13.1243,-12.1088 -19.19165,-27.3243 -6.06795,-15.2161 0.98909,-18.3231 -5.07886,-33.539 -6.06692,-15.2158 -13.12396,-12.1088 -19.19122,-27.3242 -6.06735,-15.2152 0.98934,-18.3218 -5.07792,-33.5372 -6.06658,-15.2133 -13.12362,-12.1063 -19.19019,-27.3199 -6.06692,-15.2151 0.98943,-18.3217 -5.07749,-33.5368 -6.06735,-15.2155 -13.1243,-12.1085 -19.19165,-27.3243 -6.06726,-15.2151 0.98943,-18.3217 -5.07783,-33.5372 -6.06692,-15.2143 -13.12396,-12.1077 -19.19088,-27.3221 -6.06658,-15.2139 0.99046,-18.3209 -5.07689,-33.5349 -6.06726,-15.214 -13.12396,-12.1073 -19.19053,-27.3206 -6.06692,-15.2144 0.98977,-18.3213 -5.07715,-33.5357 -6.06658,-15.2136 -13.12362,-12.1066 -19.19019,-27.3203 -6.06727,-15.215 0.98943,-18.3217 -5.07783,-33.5367 -6.06658,-15.2137 -13.12362,-12.1067 -19.1902,-27.3203 -6.06623,-15.2125 0.99047,-18.3195 -5.07577,-33.532 -6.06623,-15.2126 -13.12293,-12.1059 -19.18951,-27.3185 -6.06623,-15.2121 0.99081,-18.3191 -5.07543,-33.5312 -6.06657,-15.2125 -13.12327,-12.1059 -19.1895,-27.3184 -6.06692,-15.2143 0.98977,-18.321 -5.07715,-33.5354 -6.06692,-15.2135 -13.12361,-12.1073 -19.19019,-27.321 -6.06692,-15.2143 0.98977,-18.3209 -5.07715,-33.5352 -6.067,-15.2137 -13.12361,-12.107 -19.19019,-27.3207 -6.06692,-15.2136 0.99003,-18.3202 -5.07689,-33.5338 -6.06692,-15.2137 -13.12353,-12.107 -19.1901,-27.321 -6.06658,-15.214 0.98969,-18.321 -5.07723,-33.535 -6.06693,-15.2143 -13.12362,-12.1074 -19.19054,-27.3217 -6.06692,-15.2139 0.98977,-18.3209 -5.07715,-33.5349 -3.99682,-10.0231 -7.83049,-12.2225 -12.06636,-16.7328 l -78.19142,38.6605 c 2.36375,5.5286 4.35625,8.9966 10.19844,18.143 z"
       id="path4442" />
    <path
       style="fill:#e55c00;fill-opacity:1"
       inkscape:connector-curvature="0"
       d="m 368.65112,1262.6206 c 4.30549,15.9144 10.11553,14.531 12.75965,30.8413 2.64377,16.3076 -4.91973,17.6612 -2.2763,33.9692 2.64378,16.3084 10.20719,14.9547 12.85097,31.2631 2.64343,16.3076 -4.91973,17.6613 -2.2763,33.9685 2.64343,16.3073 10.20685,14.9541 12.85062,31.2613 2.64309,16.3054 -4.91998,17.6591 -2.27698,33.9642 2.64378,16.3072 10.20685,14.9536 12.85063,31.2608 2.64377,16.3077 -4.91999,17.6613 -2.2763,33.9693 2.64377,16.3072 10.20685,14.9537 12.85062,31.2612 2.64343,16.3065 -4.91998,17.6602 -2.27664,33.9664 2.64309,16.3061 10.20651,14.9529 12.84994,31.2591 2.64309,16.3057 -4.91999,17.6594 -2.27698,33.9651 2.64343,16.3066 10.20685,14.9533 12.85028,31.2595 2.64309,16.3058 -4.92007,17.659 -2.27698,33.9649 2.64343,16.3068 10.20684,14.9536 12.85027,31.2608 2.64309,16.3058 -4.92007,17.6591 -2.27663,33.9645 2.64308,16.3047 10.2065,14.9515 12.84925,31.2561 2.643,16.3044 -4.92007,17.6584 -2.27699,33.9627 2.64301,16.3043 10.20651,14.9507 12.84917,31.255 2.64309,16.3047 -4.92033,17.6583 -2.27698,33.963 2.64343,16.3062 10.2065,14.9529 12.84993,31.259 2.64309,16.3062 -4.91998,17.6595 -2.27664,33.9653 2.64344,16.3066 10.20651,14.9532 12.84994,31.2597 2.64309,16.3059 -4.92007,17.6591 -2.27664,33.965 2.64343,16.3057 10.20651,14.9521 12.84994,31.2579 2.64343,16.3057 -4.92007,17.6594 -2.27664,33.9652 2.64309,16.3062 10.2065,14.9521 12.84994,31.2583 2.64343,16.3066 -4.92007,17.6602 -2.27664,33.9668 1.76494,10.886 5.72147,13.9056 8.94416,19.5599 1.78244,-6.327 4.90429,-10.2838 4.03627,-21.299 -1.29912,-16.4864 -8.94511,-15.8215 -10.24466,-32.3075 -1.29912,-16.4867 6.34695,-17.1519 5.04782,-33.6386 -1.29912,-16.4864 -8.94519,-15.8208 -10.24431,-32.3072 -1.29913,-16.4855 6.34694,-17.1508 5.04782,-33.6368 -1.29921,-16.4837 -8.94519,-15.8185 -10.24432,-32.3023 -1.29912,-16.4856 6.34686,-17.1509 5.04774,-33.6368 -1.29912,-16.4864 -8.94519,-15.8208 -10.24466,-32.3071 -1.29912,-16.4857 6.34695,-17.1509 5.04782,-33.6368 -1.29912,-16.485 -8.94519,-15.8197 -10.24431,-32.305 -1.29913,-16.4845 6.34686,-17.1497 5.04808,-33.6346 -1.29913,-16.4845 -8.94545,-15.8186 -10.24423,-32.3031 -1.29913,-16.4852 6.34686,-17.1505 5.04773,-33.6353 -1.29912,-16.4838 -8.94519,-15.8185 -10.24431,-32.3027 -1.29913,-16.4856 6.34694,-17.1508 5.04782,-33.6368 -1.29913,-16.4838 -8.94485,-15.8186 -10.24432,-32.3027 -1.29912,-16.4831 6.34729,-17.1484 5.04817,-33.6314 -1.29887,-16.483 -8.94485,-15.8177 -10.24398,-32.3008 -1.29912,-16.4827 6.34721,-17.1479 5.04808,-33.6306 -1.29912,-16.483 -8.9451,-15.8178 -10.24388,-32.3009 -1.29921,-16.4848 6.34686,-17.15 5.04773,-33.635 -1.29912,-16.484 -8.94519,-15.8189 -10.24431,-32.3034 -1.29913,-16.4848 6.34694,-17.1505 5.04782,-33.635 -1.29912,-16.4845 -8.94519,-15.8193 -10.24432,-32.3034 -1.29912,-16.4841 6.34686,-17.1494 5.04774,-33.6335 -1.29912,-16.4845 -8.94476,-15.8193 -10.24432,-32.3035 -1.29912,-16.4845 6.34695,-17.1497 5.04783,-33.6346 -1.29913,-16.4845 -8.9452,-15.8192 -10.24432,-32.3042 -1.29912,-16.4845 6.34695,-17.1497 5.04782,-33.6345 -0.85653,-10.86 -3.8635,-14.2057 -6.57304,-19.8861 l -85.97047,11.4112 c 0.62418,6.0438 1.50138,10.0002 4.3758,20.6249 z"
       id="path4452" />
    <path
       style="fill:#e50b00;fill-opacity:1"
       inkscape:connector-curvature="0"
       d="m 40.737079,1027.601 c -8.337986,12.7321 -3.93098,16.3025 -13.529249,28.0138 -9.596812,11.7098 -15.027803,6.7958 -24.6247001,18.5056 -9.5971545,11.7099 -4.1665064,16.6239 -13.7636609,28.3341 -9.596897,11.7095 -15.027545,6.7954 -24.624357,18.5048 -9.596811,11.7091 -4.16582,16.6232 -13.762717,28.3326 -9.59544,11.7081 -15.026431,6.794 -24.621871,18.5019 -9.596468,11.7092 -4.165477,16.6232 -13.762289,28.3323 -9.596897,11.7098 -15.027545,6.7958 -24.624355,18.5052 -9.59681,11.7095 -4.16616,16.6235 -13.76263,28.333 -9.59621,11.7087 -15.02686,6.7947 -24.62333,18.5034 -9.59578,11.7087 -4.16514,16.6224 -13.76126,28.3311 -9.59578,11.7084 -15.02643,6.7943 -24.6223,18.5026 -9.59613,11.7088 -4.16548,16.6229 -13.7616,28.3316 -9.59579,11.7079 -15.02643,6.7939 -24.62222,18.5023 -9.59647,11.709 -4.16582,16.6231 -13.76229,28.3322 -9.59586,11.708 -15.02651,6.7939 -24.62195,18.502 -9.5951,11.7075 -4.16436,16.6216 -13.75946,28.3292 -9.5951,11.7073 -15.02575,6.7932 -24.62084,18.5004 -9.59476,11.7073 -4.16411,16.6214 -13.75886,28.3282 -9.5951,11.7077 -15.02575,6.7936 -24.62119,18.5008 -9.59612,11.7088 -4.16547,16.6229 -13.7616,28.3316 -9.59578,11.7079 -15.02686,6.7939 -24.62264,18.5023 -9.59613,11.7087 -4.16548,16.6227 -13.76161,28.3314 -9.59578,11.7081 -15.02677,6.7944 -24.62221,18.5023 -9.59578,11.708 -4.16513,16.6221 -13.76092,28.3305 -9.59578,11.7083 -15.02643,6.7938 -24.62229,18.5026 -9.59579,11.7087 -4.16514,16.622 -13.76126,28.3307 -9.59613,11.7088 -15.02678,6.7947 -24.6229,18.5031 -6.40645,7.817 -6.11871,12.6071 -8.07305,18.4111 5.39532,-2.419 9.96471,-2.4142 16.99337,-9.6292 10.51971,-10.7997 5.51116,-16.1859 16.03087,-26.9848 10.52014,-10.7997 15.52869,-5.4131 26.04875,-16.2128 10.51945,-10.799 5.51081,-16.1855 16.03061,-26.9845 10.51937,-10.7986 15.52792,-5.4123 26.04703,-16.2109 10.51834,-10.7979 5.5097,-16.1841 16.02804,-26.9819 10.51902,-10.799 15.52766,-5.4124 26.04703,-16.211 10.51971,-10.7993 5.51116,-16.1855 16.03052,-26.9848 10.51946,-10.7989 15.52801,-5.4127 26.04772,-16.2113 10.51868,-10.7982 5.51047,-16.1848 16.02915,-26.983 10.51868,-10.7979 15.52732,-5.4116 26.046,-16.2098 10.51834,-10.7979 5.50979,-16.1845 16.02847,-26.9827 10.51903,-10.7981 15.52724,-5.4116 26.04626,-16.2102 10.51834,-10.7978 5.50979,-16.184 16.02812,-26.9818 10.51937,-10.799 15.52801,-5.4124 26.04704,-16.2113 10.51833,-10.7976 5.50978,-16.1842 16.02812,-26.9819 10.518,-10.7971 15.52621,-5.4105 26.0442,-16.2081 10.51765,-10.7967 5.50901,-16.1832 16.02667,-26.9804 10.51731,-10.7967 15.52586,-5.4105 26.04317,-16.2072 10.517653,-10.7971 5.50944,-16.1837 16.026752,-26.9804 10.519025,-10.7986 15.527235,-5.412 26.046259,-16.2102 10.518339,-10.7979 5.509786,-16.1845 16.028468,-26.9823 10.519024,-10.7982 15.52732,-5.412 26.046344,-16.2102 10.518339,-10.7978 5.5097,-16.1845 16.0283818,-26.9823 10.5184243,-10.7978 15.5269773,-5.4112 26.0449732,-16.2091 10.518681,-10.7978 5.510128,-16.1844 16.028467,-26.9823 10.518681,-10.7978 15.527235,-5.4116 26.045573,-16.2098 10.519025,-10.7982 5.510472,-16.1848 16.029153,-26.9829 10.518682,-10.7979 15.527321,-5.4117 26.045999,-16.2099 6.92963,-7.1135 7.43078,-11.3803 9.70845,-16.8118 L 52.259855,1012.012 c -3.76859,4.0693 -5.956317,7.0888 -11.522776,15.589 z"
       id="path4480" />
    <path
       style="fill:#e5e700;fill-opacity:1"
       inkscape:connector-curvature="0"
       d="m -69.493443,812.38375 c -13.693011,6.1272 -11.769877,11.68812 -26.012649,16.22563 -14.240798,4.53635 -16.344848,-2.75549 -30.585988,1.78128 -14.2414,4.53676 -12.13736,11.8286 -26.37841,16.36536 -14.24072,4.53643 -16.34451,-2.75507 -30.58522,1.78136 -14.24046,4.53635 -12.13633,11.8286 -26.3767,16.36461 -14.23866,4.53602 -16.34279,-2.75582 -30.58136,1.78019 -14.24011,4.53643 -12.13633,11.82827 -26.37636,16.3647 -14.2408,4.53635 -16.34484,-2.75549 -30.5853,1.78128 -14.24037,4.53643 -12.13658,11.8286 -26.37704,16.36461 -14.23969,4.53643 -16.34373,-2.75541 -30.58307,1.78094 -14.23969,4.53643 -12.13565,11.82793 -26.37499,16.36428 -14.239,4.53602 -16.34304,-2.75582 -30.58239,1.78019 -14.23968,4.53643 -12.13564,11.82827 -26.37532,16.3647 -14.239,4.53601 -16.34271,-2.75624 -30.58171,1.78019 -14.24002,4.53635 -12.13632,11.82818 -26.37669,16.36461 -14.23866,4.53602 -16.34279,-2.75582 -30.58136,1.78019 -14.23797,4.53568 -12.13427,11.82752 -26.37216,16.3632 -14.23797,4.53601 -16.3421,-2.75616 -30.57964,1.77944 -14.23763,4.53568 -12.13384,11.82752 -26.37147,16.3632 -14.23797,4.53568 -16.34202,-2.75616 -30.57999,1.77944 -14.23968,4.53601 -12.13555,11.82795 -26.37533,16.36425 -14.23891,4.536 -16.34304,-2.7558 -30.58238,1.7806 -14.23969,4.536 -12.13564,11.8279 -26.37533,16.3643 -14.239,4.536 -16.34305,-2.7558 -30.58205,1.7802 -14.239,4.536 -12.13486,11.8279 -26.37386,16.3639 -14.239,4.536 -16.34314,-2.7554 -30.58248,1.7806 -14.23934,4.536 -12.13521,11.8278 -26.37455,16.3643 -14.23969,4.536 -16.34382,-2.7559 -30.58316,1.7805 -9.50687,3.0284 -11.73241,7.2849 -16.39698,11.1299 5.85729,1.0065 9.75886,3.6142 19.48625,1.454 14.55924,-3.2331 13.05991,-10.6882 27.61915,-13.921 14.55992,-3.2335 16.05925,4.2213 30.61917,0.9882 14.55924,-3.2332 13.05991,-10.6879 27.61881,-13.9211 14.55889,-3.2331 16.05813,4.222 30.61702,0.9888 14.55718,-3.2323 13.05786,-10.6875 27.61495,-13.9199 14.55889,-3.2331 16.05822,4.222 30.61711,0.9889 14.55924,-3.2331 13.05957,-10.6879 27.61872,-13.921 14.5589,-3.2332 16.05822,4.2216 30.61746,0.9888 14.55821,-3.2332 13.05854,-10.6879 27.61666,-13.9207 14.55787,-3.2331 16.05753,4.222 30.6154,0.9892 14.55743,-3.2327 13.05811,-10.6879 27.61563,-13.9206 14.55812,-3.23279 16.05745,4.222 30.616,0.9892 14.55709,-3.23277 13.05777,-10.68785 27.61495,-13.92066 14.5588,-3.23313 16.05813,4.22195 30.61702,0.98881 14.55718,-3.23238 13.05786,-10.68747 27.61495,-13.92027 14.55641,-3.23239 16.05608,4.22269 30.61257,0.98997 14.55641,-3.23238 13.05674,-10.68713 27.61315,-13.91994 14.55606,-3.23238 16.05573,4.2227 30.61179,0.98998 14.5565,-3.23247 13.05717,-10.68755 27.61358,-13.91994 14.55821,-3.23314 16.05744,4.22195 30.61565,0.98922 14.55752,-3.2328 13.0582,-10.68755 27.61564,-13.92027 14.5582,-3.23314 16.05753,4.22195 30.61599,0.98881 14.55753,-3.2328 13.05786,-10.68755 27.61564,-13.92027 14.55752,-3.23281 16.05684,4.22194 30.61428,0.98922 14.55752,-3.2328 13.0582,-10.68755 27.61598,-13.92036 14.55786,-3.23272 16.05719,4.22203 30.61505,0.98923 14.558123,-3.23272 13.058455,-10.68747 27.616663,-13.92061 14.557779,-3.2328 16.057447,4.22195 30.615312,0.98914 9.590895,-2.12985 12.220608,-5.48913 16.9692,-8.83191 l -20.368596,-83.35514 c -5.318673,1.33047 -8.745677,2.66353 -17.887212,6.75424 z"
       id="path4498" />
    <path
       style="fill:#e5f400;fill-opacity:1"
       inkscape:connector-curvature="0"
       d="m -54.775674,674.23811 c -14.646348,1.36507 -14.455578,7.20688 -29.156542,6.90131 -14.699249,-0.30514 -14.557522,-7.83209 -29.256344,-8.13799 -14.69959,-0.30598 -14.84166,7.2208 -29.54091,6.91566 -14.69925,-0.30598 -14.55709,-7.8321 -29.256,-8.13808 -14.69891,-0.30598 -14.84063,7.22088 -29.53911,6.91532 -14.69676,-0.30598 -14.55504,-7.83201 -29.25214,-8.13766 -14.69856,-0.30598 -14.84063,7.22089 -29.53885,6.91532 -14.69917,-0.30598 -14.55744,-7.83209 -29.25635,-8.13766 -14.69882,-0.30514 -14.84054,7.22089 -29.53911,6.91533 -14.69779,-0.30598 -14.55641,-7.8321 -29.2542,-8.13766 -14.69753,-0.30599 -14.8396,7.22088 -29.53705,6.91524 -14.69745,-0.30598 -14.55572,-7.83202 -29.25317,-8.13758 -14.69788,-0.30598 -14.8396,7.2208 -29.53774,6.91524 -14.69719,-0.30598 -14.55538,-7.83202 -29.25257,-8.13766 -14.69848,-0.30598 -14.8402,7.22088 -29.53877,6.91532 -14.6971,-0.30598 -14.55538,-7.83201 -29.25248,-8.13724 -14.69642,-0.30598 -14.83815,7.2208 -29.53457,6.91524 -14.69607,-0.30598 -14.55435,-7.83202 -29.25042,-8.13766 -14.69574,-0.30599 -14.83781,7.2213 -29.53354,6.91565 -14.69642,-0.30598 -14.55461,-7.83201 -29.25069,-8.13758 -14.69787,-0.30598 -14.8396,7.22081 -29.53739,6.91524 -14.69745,-0.30598 -14.55572,-7.83201 -29.25326,-8.13766 -14.69779,-0.30598 -14.83986,7.22089 -29.53765,6.91566 -14.69754,-0.30598 -14.55538,-7.83201 -29.25291,-8.13758 -14.69745,-0.30598 -14.83884,7.22081 -29.53629,6.91524 -14.69744,-0.30598 -14.55537,-7.83201 -29.25282,-8.13766 -14.69788,-0.30598 -14.83961,7.22089 -29.53706,6.91533 -14.69787,-0.30598 -14.55606,-7.8321 -29.25394,-8.13767 -9.81279,-0.20426 -13.14042,3.08132 -18.64069,5.198 5.21124,2.82494 8.11961,6.52656 17.88756,7.61725 14.61942,1.63237 15.37676,-5.85323 29.99653,-4.22086 14.62011,1.63236 13.86277,9.11838 28.48289,10.75075 14.61942,1.63278 15.37684,-5.85323 29.99627,-4.22053 14.619,1.63245 13.862,9.11838 28.48109,10.75083 14.61736,1.63195 15.3747,-5.85365 29.99198,-4.22128 14.61908,1.63237 13.86209,9.11838 28.48117,10.75075 14.61943,1.63279 15.37677,-5.85323 29.99619,-4.22086 14.61943,1.63279 13.86209,9.11838 28.48152,10.75075 14.61839,1.63245 15.37573,-5.85323 29.99447,-4.22086 14.61797,1.63237 13.86098,9.11838 28.47937,10.75075 14.61806,1.63245 15.37505,-5.85323 29.99302,-4.22086 14.61839,1.63237 13.8614,9.11838 28.4798,10.75075 14.61762,1.63245 15.37505,-5.85323 29.99267,-4.2212 14.61908,1.6327 13.86209,9.11839 28.48117,10.75075 14.61763,1.63237 15.37462,-5.85323 29.99233,-4.22119 14.61694,1.63237 13.85961,9.11796 28.47697,10.75 14.6166,1.63237 15.37394,-5.85323 29.99062,-4.22128 14.61659,1.63203 13.85926,9.11805 28.47586,10.75008 14.61693,1.63195 15.37401,-5.85364 29.99095,-4.22128 14.6184,1.63237 13.86132,9.11805 28.47972,10.75075 14.61805,1.63204 15.37504,-5.85356 29.9931,-4.22119 14.61831,1.63237 13.86132,9.11838 28.48006,10.75075 14.61771,1.63237 15.37504,-5.85323 29.99267,-4.22086 14.61771,1.63203 13.86072,9.11805 28.47834,10.75041 14.61806,1.63237 15.37505,-5.85331 29.9931,-4.22094 14.61806,1.63245 13.86098,9.11805 28.47903,10.75042 14.6184,1.63236 15.37539,-5.85323 29.993789,-4.22087 14.618311,1.63279 13.860975,9.11839 28.479372,10.75075 9.630421,1.07527 13.077745,-1.23742 18.51088,-2.85503 l 5.081003,-84.85629 c -5.385121,-0.45605 -8.992778,-0.30264 -18.770928,0.60779 z"
       id="path4508" />
    <path
       style="fill:#e5a700;fill-opacity:1"
       inkscape:connector-curvature="0"
       d="m -24.531957,571.01491 c -14.495532,-2.5032 -15.69254,3.20004 -29.8458,-0.9337 -14.151461,-4.13298 -12.234585,-11.37922 -26.386473,-15.5122 -14.151804,-4.13299 -16.069022,3.11324 -30.22091,-1.02008 -14.15146,-4.13298 -12.23424,-11.3793 -26.38579,-15.51229 -14.15146,-4.13298 -16.06799,3.11325 -30.21911,-1.01974 -14.14974,-4.13223 -12.23252,-11.37847 -26.38193,-15.51103 -14.15086,-4.13266 -16.06799,3.11324 -30.21885,-1.01974 -14.15146,-4.13299 -12.23467,-11.37931 -26.38613,-15.51229 -14.15112,-4.13299 -16.06799,3.11333 -30.21911,-1.01966 -14.15052,-4.13265 -12.23364,-11.37855 -26.38407,-15.51154 -14.15043,-4.13257 -16.06697,3.11366 -30.2174,-1.01899 -14.14974,-4.13257 -12.2333,-11.37847 -26.38304,-15.51145 -14.15043,-4.13266 -16.06731,3.11358 -30.21774,-1.01941 -14.14975,-4.13257 -12.23253,-11.37847 -26.38261,-15.51112 -14.15078,-4.13257 -16.06765,3.11324 -30.21877,-1.01974 -14.14983,-4.13224 -12.23261,-11.37847 -26.38236,-15.51104 -14.14872,-4.13232 -16.06585,3.11358 -30.21457,-1.01866 -14.14871,-4.13223 -12.23184,-11.37813 -26.38055,-15.51037 -14.14872,-4.13223 -16.06559,3.114 -30.21388,-1.01832 -14.14906,-4.13224 -12.23219,-11.37847 -26.3809,-15.51071 -14.15043,-4.13265 -16.06731,3.11358 -30.21774,-1.0194 -14.14975,-4.13257 -12.23296,-11.37881 -26.3827,-15.51146 -14.15043,-4.13257 -16.06731,3.11366 -30.21808,-1.01932 -14.14975,-4.13265 -12.23287,-11.37855 -26.38262,-15.51112 -14.14974,-4.13266 -16.06662,3.11358 -30.21636,-1.01899 -14.15009,-4.13266 -12.2333,-11.37856 -26.38305,-15.51112 -14.15043,-4.13266 -16.06688,3.11357 -30.21696,-1.01941 -14.15052,-4.13257 -12.23365,-11.37889 -26.38373,-15.51146 -9.44703,-2.75916 -13.4442,-0.44938 -19.26685,0.16342 4.37477,4.09405 6.31368,8.43513 15.50769,12.04045 13.76092,5.39651 16.26365,-1.64971 30.02457,3.74647 13.76126,5.39651 11.25852,12.44273 25.02013,17.83924 13.76057,5.39659 16.2633,-1.64963 30.02422,3.74688 13.76057,5.39618 11.2575,12.44198 25.01807,17.83816 13.75886,5.39576 16.26151,-1.65038 30.02037,3.74505 13.76057,5.39617 11.25784,12.44198 25.01807,17.83815 13.76092,5.39652 16.26365,-1.6497 30.02457,3.74647 13.76091,5.39618 11.25784,12.4424 25.01841,17.83891 13.75989,5.39576 16.26262,-1.65046 30.02243,3.74572 13.75954,5.39584 11.25681,12.44198 25.01635,17.83782 13.75955,5.39576 16.26185,-1.65038 30.0214,3.74538 13.75989,5.39576 11.25715,12.44198 25.01704,17.83816 13.75878,5.39543 16.26185,-1.65079 30.02071,3.74505 13.76058,5.39609 11.25784,12.44198 25.01807,17.83816 13.75878,5.39576 16.26185,-1.65046 30.02071,3.74496 13.75843,5.39543 11.2557,12.44132 25.01387,17.83674 13.75809,5.39543 16.26083,-1.65079 30.01891,3.74422 13.75783,5.39543 11.2551,12.44131 25.01319,17.83632 13.75851,5.39543 16.26082,-1.65071 30.01934,3.74472 13.75988,5.39576 11.25681,12.44198 25.01661,17.83774 13.75955,5.39584 16.26194,-1.65038 30.02148,3.74538 13.7598,5.39585 11.25716,12.44198 25.01696,17.83783 13.7592,5.39576 16.26193,-1.65046 30.02105,3.74538 13.7592,5.39576 11.25613,12.44198 25.01533,17.83741 13.75946,5.39576 16.26185,-1.65038 30.02139,3.74538 13.75955,5.39584 11.25682,12.44198 25.01628,17.83741 13.759541,5.39584 16.262274,-1.65005 30.022162,3.7458 13.75946,5.39576 11.256812,12.44198 25.016272,17.83774 9.064884,3.55454 12.947593,2.21639 18.587188,2.06924 l 24.9817187,-80.78574 c -5.1020947,-1.84497 -8.6291567,-2.63811 -18.3064777,-4.30949 z"
       id="path4516" />
    <path
       style="fill:#e5f900;fill-opacity:1"
       inkscape:connector-curvature="0"
       d="m 166.68878,300.75818 c -9.31936,-12.77664 -14.10431,-9.33832 -22.05552,-23.09793 -7.95053,-13.75736 -1.56963,-17.82824 -9.52016,-31.58593 -7.95087,-13.75811 -14.33109,-9.68732 -22.28196,-23.44502 -7.95053,-13.75736 -1.56963,-17.82824 -9.52016,-31.5856 C 95.361139,177.28667 88.980241,181.35746 81.030055,167.6001 73.080983,153.84457 79.461452,149.7737 71.512381,136.01817 63.562194,122.26114 57.181639,126.33202 49.231453,112.5754 41.281267,98.817959 47.661822,94.747169 39.711293,80.989807 31.761449,67.232779 25.380637,71.303568 17.430451,57.546206 9.4806077,43.789928 15.861077,39.719055 7.9116624,25.962443 -0.03783797,12.206164 -6.4183929,16.277038 -14.36815,2.5207594 -22.317651,-11.235185 -15.936839,-15.306059 -23.886596,-29.06192 c -7.9495,-13.756279 -14.330055,-9.685822 -22.279813,-23.4421 -7.9495,-13.755528 -1.568688,-17.826735 -9.51776,-31.582263 -7.950186,-13.757029 -14.330741,-9.686156 -22.280927,-23.443187 -7.949072,-13.75553 -1.568603,-17.8264 -9.517674,-31.58193 -7.948815,-13.75519 -14.32971,-9.68432 -22.2781,-23.43918 -7.94881,-13.75478 -1.56826,-17.82565 -9.51673,-31.58043 -7.94873,-13.75477 -14.32928,-9.68357 -22.27801,-23.43843 -7.94882,-13.75478 -1.56826,-17.82565 -9.51708,-31.58043 -7.94984,-13.75628 -14.33031,-9.68582 -22.27981,-23.4421 -7.9495,-13.75594 -1.5686,-17.82673 -9.51844,-31.58268 -7.94985,-13.75628 -14.33032,-9.68582 -22.28016,-23.4421 -7.9495,-13.75586 -1.5686,-17.82673 -9.5181,-31.58259 -7.9495,-13.75595 -14.32997,-9.68474 -22.27913,-23.4406 -7.9495,-13.75595 -1.56894,-17.82682 -9.51844,-31.58268 -7.94951,-13.75628 -14.32997,-9.68549 -22.27982,-23.44135 -7.9495,-13.75628 -1.56894,-17.82715 -9.51879,-31.58343 -5.30744,-9.18417 -9.91602,-10.42601 -14.75841,-14.32847 0.54445,6.39424 -0.9313,11.14869 3.60869,20.78632 6.79528,14.42477 13.48518,10.94568 20.28037,25.37044 6.79528,14.4256 0.1046,17.90478 6.90022,32.33029 6.79494,14.42485 13.48518,10.94535 20.28003,25.37011 6.79493,14.42444 0.1046,17.90361 6.89953,32.32813 6.79425,14.42259 13.48407,10.94342 20.27832,25.36602 6.79484,14.42443 0.1046,17.90361 6.89953,32.3277 6.79485,14.42485 13.4851,10.94568 20.28003,25.37011 6.79485,14.42452 0.1046,17.90403 6.89953,32.32846 6.79451,14.42368 13.48441,10.94459 20.27892,25.36828 6.79424,14.42334 0.1046,17.90252 6.8985,32.3262 6.79417,14.42335 13.48441,10.94384 20.27866,25.36719 6.7945,14.42377 0.1046,17.90327 6.89885,32.32696 6.79416,14.42301 13.48406,10.94384 20.27822,25.366437 6.794938,14.424516 0.10461,17.904022 6.89954,32.328121 6.794162,14.422932 13.484065,10.943843 20.278312,25.366442 6.793819,14.422265 0.103745,17.901354 6.897393,32.323619 6.793475,14.421932 13.483721,10.9427594 20.277197,25.364608 6.793562,14.421931 0.103745,17.90102 6.897135,32.322952 6.793819,14.422265 13.483722,10.942676 20.277541,25.364941 6.794247,14.423766 0.104602,17.902854 6.898849,32.32662 6.794162,14.42335 13.4840648,10.94384 20.2783124,25.36719 6.7945048,14.42368 0.104602,17.90319 6.8991926,32.32696 6.794162,14.42293 13.484408,10.94384 20.278569,25.36677 6.794162,14.42302 0.103745,17.90252 6.898164,32.32512 6.794162,14.42335 13.484065,10.94426 20.278227,25.36719 6.79459,14.42335 0.104602,17.90286 6.898849,32.32621 6.794248,14.42376 13.484408,10.94426 20.278998,25.36794 6.794162,14.42377 0.104602,17.90285 6.89885,32.3262 4.475854,9.50232 8.336871,11.39731 12.724241,15.51629 l 73.88105,-42.67692 c -2.62346,-5.23027 -4.76566,-8.47925 -10.98725,-17.00885 z"
       id="path4540" />
    <path
       style="fill:#e5a700;fill-opacity:1"
       inkscape:connector-curvature="0"
       d="M 279.08105,81.06551 C 273.25077,63.734847 266.89996,65.694539 262.8853,47.80344 258.87141,29.914842 267.16773,27.859605 263.15367,9.9710902 259.13943,-7.9181745 250.84312,-5.8625199 246.8288,-23.751785 c -4.01389,-17.888181 4.28242,-19.943502 0.26922,-37.832016 -4.01389,-17.887764 -12.31055,-15.83286 -16.32418,-33.720707 -4.01355,-17.885932 4.28311,-19.941172 0.27008,-37.826762 -4.01389,-17.88785 -12.31021,-15.83253 -16.32419,-33.72038 -4.01389,-17.88809 4.28243,-19.94375 0.26837,-37.83193 -4.01398,-17.88818 -12.31021,-15.83286 -16.32418,-33.72104 -4.01355,-17.8871 4.28311,-19.94233 0.26922,-37.82943 -4.01355,-17.88668 -12.30987,-15.83178 -16.3235,-33.71846 -4.01355,-17.88634 4.28311,-19.94192 0.26922,-37.82826 -4.01354,-17.8871 -12.30986,-15.83178 -16.32384,-33.71888 -4.01354,-17.88634 4.28312,-19.94158 0.27008,-37.82751 -4.01389,-17.88785 -12.31055,-15.83253 -16.32418,-33.72037 -4.01355,-17.88593 4.28311,-19.94117 0.26922,-37.82718 -4.01329,-17.88518 -12.3096,-15.82995 -16.32281,-33.71513 -4.01329,-17.88484 4.28337,-19.94016 0.27008,-37.82501 -4.0132,-17.88484 -12.30952,-15.82919 -16.32281,-33.71404 -4.0132,-17.88526 4.28311,-19.9405 0.27008,-37.82534 -4.01398,-17.8871 -12.30995,-15.83178 -16.32384,-33.71888 -4.013289,-17.88634 4.28303,-19.94158 0.26922,-37.82793 -4.013974,-17.88701 -12.31029,-15.83177 -16.323837,-33.71887 -4.01329,-17.88626 4.283026,-19.94158 0.269222,-37.82785 -4.013633,-17.88634 -12.309949,-15.83111 -16.323497,-33.71737 -4.013204,-17.88635 4.283112,-19.94167 0.269222,-37.82793 -4.013547,-17.88676 -12.309863,-15.83144 -16.323496,-33.71812 -4.013548,-17.8871 4.283112,-19.94234 0.269221,-37.82902 -2.679785,-11.9419 -7.267357,-14.99929 -11.216171,-21.03269 -1.555999,7.14585 -4.755193,11.7624 -3.061669,23.91241 2.535315,18.18491 10.969157,16.88678 13.504385,35.07177 2.535314,18.18566 -5.898528,19.48337 -3.363299,37.66936 2.534885,18.18457 10.969156,16.88645 13.504041,35.07144 2.535229,18.18415 -5.898956,19.48228 -3.363642,37.66685 2.534542,18.18232 10.968728,16.8842 13.50327,35.06619 2.535314,18.18424 -5.898871,19.48228 -3.363642,37.66652 2.535228,18.18491 10.969156,16.88678 13.504384,35.07135 2.535229,18.18458 -5.898956,19.4827 -3.363642,37.66728 2.534885,18.1834 10.968728,16.88528 13.503613,35.06877 2.534971,18.18307 -5.898871,19.48119 -3.363986,37.66427 2.534886,18.18274 10.969153,16.88461 13.504043,35.06735 2.53488,18.18341 -5.898957,19.48153 -3.36407,37.66502 2.53497,18.18232 10.96881,16.8842 13.5037,35.06694 2.53531,18.18424 -5.89887,19.48228 -3.36365,37.66652 2.53455,18.18232 10.96839,16.8842 13.50336,35.0666 2.53454,18.18157 -5.8993,19.4797 -3.36441,37.66135 2.53454,18.18124 10.96847,16.88312 13.50301,35.06436 2.53454,18.18123 -5.8993,19.47902 -3.36476,37.66026 2.53463,18.18158 10.96847,16.88345 13.50302,35.06477 2.53522,18.18308 -5.89896,19.48153 -3.36399,37.66502 2.53488,18.18266 10.96907,16.88453 13.50361,35.06727 2.53497,18.18383 -5.89887,19.48162 -3.36398,37.66544 2.53488,18.182656 10.96907,16.88462 13.5037,35.066938 2.53488,18.182739 -5.89896,19.480863 -3.36408,37.663185 2.53463,18.182739 10.96882,16.884615 13.50336,35.0676879 2.53489,18.1830726 -5.89896,19.4808631 -3.36398,37.6642691 2.53488,18.18349 10.96872,16.885032 13.50361,35.068438 2.53497,18.183073 -5.89887,19.481197 -3.36399,37.664272 1.67012,11.979 5.22659,15.46852 8.60815,21.56853 l 94.56774,-18.95503 c -1.09258,-6.654528 -2.328,-10.977272 -6.22057,-22.547 z"
       id="path4550" />
    <path
       style="fill:#e5e400;fill-opacity:1"
       inkscape:connector-curvature="0"
       d="m 526.53894,315.61908 c 2.45232,-15.68062 -3.13549,-16.97508 0.91484,-32.28535 4.04965,-15.30853 11.14938,-13.23486 15.19903,-28.54331 4.04964,-15.30885 -3.0501,-17.38252 0.99955,-32.69146 4.04964,-15.30811 11.14938,-13.23444 15.19893,-28.54255 4.04965,-15.30811 -3.05,-17.38144 0.99921,-32.68954 4.04896,-15.30594 11.1487,-13.23261 15.198,-28.53855 4.0493,-15.30778 -3.05044,-17.38144 0.9992,-32.689133 4.04922,-15.308191 11.1493,-13.234861 15.19894,-28.542968 4.04965,-15.307774 -3.05009,-17.381438 0.99921,-32.689545 4.0493,-15.307024 11.14904,-13.233777 15.19868,-28.540801 4.0493,-15.3070237 -3.05044,-17.380687 0.99844,-32.687711 4.0493,-15.306606 11.14903,-13.232943 15.19833,-28.539633 4.0493,-15.307024 -3.05043,-17.380687 0.99853,-32.688044 4.04887,-15.306274 11.14895,-13.23261 15.1979,-28.538965 4.04931,-15.30769 -3.05043,-17.38136 0.99921,-32.68913 4.04896,-15.30627 11.14861,-13.23261 15.19791,-28.53888 4.04896,-15.30561 -3.05112,-17.37927 0.99818,-32.6848 4.04896,-15.30519 11.14861,-13.23152 15.19722,-28.53671 4.04862,-15.30519 -3.05112,-17.37852 0.9975,-32.68363 4.04887,-15.3056 11.1486,-13.23194 15.19722,-28.53746 4.0493,-15.30736 -3.05044,-17.38069 0.99886,-32.68771 4.04922,-15.30669 11.14861,-13.23303 15.19791,-28.53964 4.0493,-15.30702 -3.05043,-17.38068 0.99852,-32.68812 4.0493,-15.30661 11.14896,-13.23295 15.19826,-28.53922 4.04895,-15.30669 -3.05078,-17.38002 0.99817,-32.68629 4.0493,-15.30661 11.14904,-13.23295 15.19791,-28.53964 4.0493,-15.30702 -3.05043,-17.38027 0.99887,-32.68729 4.0493,-15.30703 11.14869,-13.23336 15.19791,-28.54039 2.70362,-10.21941 0.43984,-14.54324 -0.16119,-20.84185 -4.01115,4.73244 -8.26485,6.82995 -11.79723,16.7754 -5.28712,14.88599 1.61662,17.59321 -3.67093,32.47919 -5.28755,14.88632 -12.1912,12.17911 -17.47909,27.06543 -5.28721,14.88557 1.61653,17.59287 -3.67094,32.47844 -5.2872,14.88524 -12.19094,12.17794 -17.47849,27.06318 -5.28643,14.88373 1.6173,17.59103 -3.66956,32.47444 -5.28712,14.88523 -12.19086,12.17793 -17.47806,27.06317 -5.28712,14.88557 1.61661,17.59287 -3.67094,32.47886 -5.2872,14.88524 -12.19085,12.17794 -17.4784,27.06351 -5.28687,14.8849 1.61687,17.59212 -3.66991,32.47661 -5.2872,14.88449 -12.19094,12.17685 -17.47772,27.06134 -5.28686,14.88415 1.61688,17.59145 -3.66956,32.47552 -5.2872,14.88457 -12.19094,12.17727 -17.47806,27.06176 -5.28686,14.88374 1.61722,17.59104 -3.66956,32.47519 -5.28721,14.88516 -12.19094,12.17794 -17.47841,27.06318 -5.28686,14.88373 1.61722,17.59103 -3.66956,32.474771 -5.28652,14.882986 -12.1906,12.175768 -17.47669,27.058755 -5.28643,14.882653 1.61765,17.589954 -3.66887,32.472607 -5.28644,14.882653 -12.19018,12.175352 -17.47635,27.0580051 -5.28644,14.8829865 1.61764,17.5902877 -3.66879,32.4733579 -5.28686,14.884487 -12.19094,12.177186 -17.47772,27.061673 -5.28687,14.884154 1.61687,17.591372 -3.66991,32.475525 -5.28686,14.884488 -12.19094,12.177186 -17.47772,27.062086 -5.28686,14.88416 1.61688,17.59138 -3.66956,32.4752 -5.28652,14.88373 -12.1906,12.17643 -17.47737,27.06017 -5.28687,14.88415 1.61687,17.59145 -3.66991,32.47552 -5.28686,14.88416 -12.1906,12.17686 -17.47738,27.06134 -5.28686,14.88449 1.61688,17.59179 -3.6699,32.47628 -5.28686,14.88415 -12.19094,12.17685 -17.47738,27.06134 -3.48299,9.80571 -2.1716,14.00598 -2.02782,20.10675 l 79.15496,27.02382 c 1.81013,-5.52007 2.58745,-9.33574 4.22464,-19.8041 z"
       id="path4566" />
    <path
       style="fill:#e5f500;fill-opacity:1"
       inkscape:connector-curvature="0"
       d="m 625.93783,240.43944 c 4.68841,-16.59556 -1.18286,-18.79645 5.18398,-34.76279 6.36615,-15.96417 13.77001,-12.7046 20.13616,-28.66869 6.36615,-15.96459 -1.03805,-19.22416 5.32844,-35.18908 6.36581,-15.96384 13.76967,-12.70419 20.1359,-28.66837 6.36581,-15.963835 -1.03805,-19.223401 5.32776,-35.186824 6.36512,-15.962005 13.76932,-12.702355 20.13402,-28.663943 6.36589,-15.96384 -1.03805,-19.223406 5.32741,-35.186829 6.3659,-15.9641726 13.77009,-12.704606 20.1359,-28.668779 6.36581,-15.963756 -1.03804,-19.223406 5.32776,-35.187162 6.36547,-15.962755 13.76967,-12.703439 20.13479,-28.666194 6.36546,-15.962672 -1.03874,-19.222322 5.32707,-35.184999 6.36504,-15.96233 13.76898,-12.70268 20.13479,-28.66502 6.36503,-15.96309 -1.03882,-19.22232 5.32664,-35.18541 6.36513,-15.96193 13.76932,-12.70228 20.13479,-28.66428 6.36546,-15.96376 -1.03874,-19.22307 5.32742,-35.18683 6.36477,-15.962 13.76897,-12.70235 20.13375,-28.66428 6.36512,-15.96125 -1.03907,-19.2209 5.3257,-35.18207 6.3647,-15.96092 13.76855,-12.70127 20.13333,-28.66211 6.36478,-15.96084 -1.03942,-19.22049 5.32536,-35.18099 6.36478,-15.96118 13.76898,-12.70161 20.13376,-28.66245 6.36503,-15.96309 -1.03882,-19.22232 5.32664,-35.18541 6.36547,-15.96234 13.76932,-12.70269 20.13479,-28.66502 6.36546,-15.96309 -1.03874,-19.22266 5.32707,-35.18533 6.36512,-15.96234 13.76898,-12.70277 20.13479,-28.66511 6.36478,-15.96192 -1.03908,-19.22157 5.32639,-35.18391 6.36512,-15.96226 13.76932,-12.70269 20.13409,-28.66503 6.36547,-15.96267 -1.03873,-19.22232 5.32708,-35.185 6.36512,-15.96267 13.76932,-12.7031 20.13478,-28.66577 4.25011,-10.65737 2.36512,-15.65528 2.53523,-22.54884 -4.95016,4.53935 -9.81982,6.19598 -14.93023,16.43815 -7.64881,15.32987 -0.5393,19.24658 -8.18811,34.57645 -7.6489,15.33054 -14.75875,11.41374 -22.40791,26.74436 -7.6489,15.32945 -0.5393,19.24616 -8.18786,34.57561 -7.64846,15.32946 -14.75832,11.41274 -22.40687,26.74252 -7.64779,15.32762 -0.53845,19.244 -8.18606,34.57162 -7.64847,15.32912 -14.75798,11.41274 -22.40645,26.74219 -7.6489,15.32978 -0.5393,19.24616 -8.1882,34.57603 -7.64847,15.32945 -14.75841,11.41307 -22.40688,26.74252 -7.64812,15.3287 -0.53844,19.24508 -8.18674,34.57379 -7.64812,15.32836 -14.75806,11.41198 -22.40619,26.74001 -7.64778,15.32795 -0.53759,19.24467 -8.18606,34.5727 -7.64812,15.3287 -14.75798,11.41199 -22.40619,26.74069 -7.64813,15.32795 -0.53844,19.24433 -8.18605,34.57195 -7.64847,15.32945 -14.75833,11.41273 -22.4068,26.74219 -7.64787,15.32761 -0.53758,19.24433 -8.18571,34.57195 -7.64787,15.32686 -14.75738,11.41048 -22.40482,26.73735 -7.64744,15.32653 -0.53759,19.24333 -8.18503,34.57019 -7.64709,15.32654 -14.75695,11.41016 -22.40439,26.73661 -7.64744,15.326862 -0.53759,19.243327 -8.18503,34.570194 -7.64812,15.328701 -14.75798,11.411901 -22.4061,26.740686 -7.64779,15.32795 -0.53845,19.244332 -8.18649,34.572366 -7.64847,15.3287008 -14.75832,11.41231852 -22.40645,26.741019 -7.64778,15.327951 -0.53758,19.244333 -8.18605,34.572367 -7.64787,15.32795 -14.75773,11.411234 -22.40551,26.739185 -7.64812,15.32795 -0.53844,19.244749 -8.1864,34.572703 -7.64778,15.32836 -14.75763,11.41198 -22.40585,26.73993 -7.64847,15.32837 -0.53844,19.24475 -8.18674,34.57354 -7.64812,15.32828 -14.75798,11.4119 -22.40619,26.74026 -5.03831,10.09844 -4.16685,14.82563 -4.80415,21.44014 l 82.03812,40.56275 c 2.67207,-5.70391 4.00797,-9.71634 7.1378,-20.7955 z"
       id="path4570" />
    <path
       style="fill:#e5a700;fill-opacity:1"
       inkscape:connector-curvature="0"
       d="m 657.46696,421.85447 c 7.70977,-13.518 3.00705,-16.85485 12.06113,-29.41856 9.05297,-12.56187 14.8787,-7.92656 23.93167,-20.48843 9.05296,-12.5622 3.22723,-17.19751 12.28054,-29.76013 9.05262,-12.56187 14.87879,-7.92656 23.93132,-20.4881 9.05263,-12.56145 3.22655,-17.19718 12.27917,-29.7583 9.05151,-12.56004 14.87768,-7.92473 23.92927,-20.48477 9.05228,-12.56145 3.22646,-17.19676 12.27874,-29.7583 9.05297,-12.56187 14.87879,-7.92656 23.93175,-20.48843 9.0522,-12.56187 3.22646,-17.19718 12.27874,-29.75872 9.05228,-12.56112 14.87836,-7.92581 23.9303,-20.4866 9.05194,-12.5607 3.22612,-17.19601 12.27805,-29.7568 9.0516,-12.56045 14.87768,-7.92506 23.92962,-20.48551 9.05193,-12.56112 3.22611,-17.19643 12.27805,-29.757219 9.05159,-12.56037 14.87776,-7.924725 23.92927,-20.485095 9.05228,-12.561121 3.22654,-17.196849 12.27874,-29.75797 9.05159,-12.56037 14.87776,-7.924725 23.92935,-20.485095 9.05117,-12.5592866 3.225,-17.1950147 12.27625,-29.7543011 9.05126,-12.5592859 14.87733,-7.9239749 23.92824,-20.4832619 9.05091,-12.559286 3.22475,-17.194597 12.27523,-29.753883 9.05121,-12.559287 14.87741,-7.923976 23.92821,-20.483679 9.052,-12.560787 3.2261,-17.196432 12.2781,-29.757216 9.0519,-12.56037 14.8781,-7.92506 23.9296,-20.48552 9.0519,-12.56112 3.2261,-17.19643 12.2784,-29.75721 9.0516,-12.56037 14.8777,-7.92506 23.9293,-20.48543 9.0515,-12.56046 3.2254,-17.19577 12.2777,-29.75614 9.0516,-12.56037 14.8777,-7.92506 23.9292,-20.48551 9.052,-12.56037 3.2262,-17.1961 12.2781,-29.7568 9.0519,-12.56079 14.8781,-7.92548 23.93,-20.48627 6.0435,-8.38586 5.4586,-13.24103 7.0938,-19.27893 -5.3428,2.82494 -9.9937,3.12725 -16.7067,10.94276 -10.0469,11.69771 -4.6222,16.84226 -14.6695,28.53963 -10.0473,11.69804 -15.4724,6.5534 -25.5203,18.25111 -10.0472,11.69729 -4.6222,16.84193 -14.6694,28.5393 -10.047,11.69696 -15.4721,6.55232 -25.519,18.2496 -10.0458,11.69588 -4.6208,16.84052 -14.6667,28.53597 -10.0468,11.69696 -15.4723,6.55273 -25.5189,18.24927 -10.0472,11.69771 -4.6222,16.84235 -14.6695,28.53963 -10.0468,11.69696 -15.4722,6.55274 -25.51917,18.24969 -10.04651,11.696624 -4.6211,16.84118 -14.6677,28.537802 -10.0466,11.696622 -15.47167,6.551982 -25.51819,18.248187 -10.04625,11.696205 -4.62084,16.840844 -14.66701,28.536716 -10.0466,11.696538 -15.47202,6.551899 -25.51853,18.2485206 -10.04592,11.6958714 -4.62084,16.8405107 -14.66667,28.5363824 -10.04694,11.696955 -15.47202,6.552649 -25.51896,18.249271 -10.04617,11.695788 -4.62075,16.840427 -14.66667,28.536298 -10.04583,11.695121 -15.4709,6.550482 -25.51639,18.245937 -10.04523,11.694787 -4.62015,16.839426 -14.66529,28.534546 -10.04515,11.69471 -15.47057,6.55048 -25.51545,18.24519 -10.04514,11.69554 -4.62041,16.83976 -14.66555,28.53488 -10.04661,11.69662 -15.47168,6.55198 -25.5182,18.24819 -10.04625,11.6962 -4.62118,16.84084 -14.66743,28.53671 -10.04618,11.69662 -15.47159,6.55198 -25.5182,18.24852 -10.04617,11.69587 -4.62109,16.84085 -14.66735,28.53672 -10.04583,11.69587 -15.4709,6.55156 -25.51716,18.24743 -10.04617,11.69588 -4.6211,16.84085 -14.66735,28.53672 -10.04618,11.69621 -15.47125,6.55157 -25.51751,18.24819 -10.04617,11.6962 -4.6211,16.84084 -14.6677,28.53738 -10.0466,11.69662 -15.47159,6.55198 -25.51819,18.24819 -6.61848,7.70553 -6.86875,12.0813 -8.85559,17.7617 l 63.59652,55.28107 c 3.58699,-4.3952 5.62913,-7.61508 10.7759,-16.63933 z"
       id="path4578" />
    <path
       style="fill:#e5ff00;fill-opacity:1"
       inkscape:connector-curvature="0"
       d="m 854.37178,584.51265 c 13.94749,-8.55278 11.15779,-14.26452 25.90282,-21.18418 14.74298,-6.91858 17.95195,0.6303 32.69527,-6.28828 14.74332,-6.91899 11.53469,-14.46787 26.27835,-21.38678 14.74264,-6.91865 17.9516,0.63031 32.69458,-6.28835 14.74263,-6.91816 11.53435,-14.46745 26.27698,-21.38603 14.74082,-6.91791 17.94982,0.63197 32.69072,-6.2861 14.7426,-6.91825 11.5336,-14.46712 26.2762,-21.3857 14.743,-6.91857 17.952,0.6303 32.6949,-6.28827 14.743,-6.91824 11.5344,-14.46754 26.277,-21.38611 14.7422,-6.91816 17.9513,0.63113 32.6928,-6.28719 14.7419,-6.91783 11.5333,-14.46712 26.2745,-21.38495 14.7419,-6.91782 17.9502,0.63114 32.6922,-6.28644 14.7418,-6.91782 11.5332,-14.46712 26.2752,-21.38536 14.7411,-6.91782 17.9501,0.63114 32.691,-6.2861 14.7427,-6.91816 11.5337,-14.46746 26.2762,-21.38603 14.7413,-6.91783 17.9499,0.63114 32.6911,-6.28644 14.7406,-6.91716 11.5316,-14.46637 26.2721,-21.38353 14.7401,-6.91707 17.9488,0.63197 32.6889,-6.28535 14.7402,-6.91707 11.5313,-14.46637 26.2714,-21.38344 14.7405,-6.91716 17.9495,0.63197 32.6893,-6.28578 14.7423,-6.91782 11.5333,-14.46712 26.2756,-21.38494 14.7412,-6.91783 17.9498,0.63114 32.6914,-6.28644 14.7419,-6.91824 11.5332,-14.46712 26.2752,-21.38536 14.7412,-6.91783 17.9502,0.63114 32.6914,-6.28644 14.7413,-6.91782 11.5326,-14.46678 26.2738,-21.38461 14.742,-6.91782 17.9502,0.63114 32.6914,-6.28644 14.742,-6.91782 11.5333,-14.46712 26.2745,-21.38494 14.742,-6.91791 17.9506,0.63113 32.6925,-6.28686 9.8425,-4.61872 11.6873,-9.51849 16.2111,-14.32438 -6.4358,-0.24679 -10.9733,-2.4962 -21.1654,1.219 -15.2551,5.56126 -12.6757,13.37201 -27.9307,18.93293 -15.2553,5.56126 -17.8339,-2.24983 -33.0896,3.31143 -15.2544,5.56092 -12.6753,13.37201 -27.9303,18.93251 -15.2539,5.56093 -17.8333,-2.25016 -33.0876,3.31076 -15.2522,5.56017 -12.6732,13.37093 -27.9257,18.93143 -15.254,5.56051 -17.8333,-2.25016 -33.0873,3.31035 -15.255,5.56092 -12.6756,13.37201 -27.9306,18.93293 -15.2543,5.5605 -17.8333,-2.25017 -33.0876,3.31076 -15.2536,5.5605 -12.6749,13.37159 -27.9285,18.9321 -15.2532,5.56017 -17.8323,-2.25092 -33.0855,3.30967 -15.2532,5.56017 -12.6739,13.37126 -27.9268,18.93143 -15.2535,5.56051 -17.8326,-2.25058 -33.0861,3.31001 -15.253,5.56017 -12.6736,13.37126 -27.9265,18.93143 -15.2543,5.56051 -17.8337,-2.25025 -33.0876,3.31034 -15.2528,5.56018 -12.6735,13.37085 -27.9264,18.93144 -15.2518,5.55975 -17.8308,-2.25134 -33.0831,3.30884 -15.2515,5.55983 -12.6728,13.37059 -27.9243,18.93076 -15.2515,5.55942 -17.8304,-2.25133 -33.0819,3.30851 -15.2519,5.56017 -12.6729,13.37084 -27.9247,18.93068 -15.2536,5.56051 -17.8326,-2.25016 -33.0858,3.31001 -15.2533,5.5605 -12.674,13.37126 -27.9272,18.93143 -15.2535,5.56051 -17.8326,-2.25017 -33.0862,3.31001 -15.25287,5.56017 -12.67349,13.37126 -27.9267,18.93143 -15.25295,5.56017 -17.83191,-2.25092 -33.08452,3.30959 -15.25252,5.56051 -12.67383,13.37093 -27.9267,18.93143 -15.25329,5.56051 -17.83225,-2.25058 -33.08555,3.31001 -15.25355,5.56051 -12.67451,13.37126 -27.92815,18.93177 -15.25321,5.56059 -17.83225,-2.2505 -33.08546,3.31 -10.049,3.66343 -12.44499,7.65552 -17.12422,11.93232 l 32.7155,86.82215 c 5.55454,-2.19206 9.07157,-4.11681 18.38278,-9.82664 z"
       id="path4594" />
    <path
       style="fill:#e50000;fill-opacity:1"
       inkscape:connector-curvature="0"
       d="m 756.52572,786.46088 c 14.51234,-2.32445 13.97372,-8.13283 28.6397,-8.79698 14.66496,-0.66365 14.97259,6.84504 29.63677,6.1813 14.66496,-0.66365 14.35732,-8.17259 29.02219,-8.83633 14.66461,-0.66365 14.97224,6.84504 29.63643,6.18164 14.66392,-0.66365 14.35594,-8.17259 29.02047,-8.836 14.66247,-0.66365 14.96976,6.84504 29.63222,6.18172 14.66393,-0.66365 14.35587,-8.17259 29.02013,-8.83599 14.66461,-0.66365 14.97225,6.84504 29.63643,6.18089 14.66384,-0.66366 14.35654,-8.1726 29.02044,-8.83592 14.6632,-0.66365 14.9712,6.84538 29.6343,6.18164 14.6633,-0.66365 14.3552,-8.17259 29.0184,-8.836 14.6628,-0.66365 14.9708,6.84538 29.6336,6.18164 14.6632,-0.66365 14.3555,-8.17259 29.0187,-8.836 14.6626,-0.66365 14.9705,6.84546 29.6327,6.18172 14.6638,-0.66365 14.3558,-8.17259 29.02,-8.83599 14.6625,-0.66365 14.9705,6.84537 29.6326,6.18164 14.6617,-0.66366 14.3538,-8.1726 29.0155,-8.836 14.6615,-0.66365 14.9695,6.84504 29.6309,6.18172 14.6611,-0.66365 14.3535,-8.17259 29.0148,-8.836 14.6615,-0.66365 14.9694,6.84538 29.6309,6.18164 14.6631,-0.66365 14.3555,-8.17259 29.0187,-8.836 14.6628,-0.66365 14.9705,6.84504 29.6329,6.18131 14.6635,-0.66365 14.3556,-8.1726 29.0191,-8.836 14.6628,-0.66365 14.9704,6.84546 29.6329,6.18164 14.6625,-0.66365 14.3549,-8.17251 29.0173,-8.83591 14.6629,-0.66366 14.9705,6.84504 29.633,6.1813 14.6631,-0.66365 14.3551,-8.17259 29.0183,-8.836 14.6631,-0.66365 14.9708,6.84504 29.634,6.18164 9.7897,-0.44271 12.9097,-3.93589 18.2638,-6.40708 -5.3614,-2.47152 -8.4801,-5.96795 -18.2775,-6.4115 -14.6645,-0.66365 -14.9725,6.84546 -29.6368,6.18164 -14.6648,-0.66365 -14.3572,-8.17251 -29.0222,-8.83633 -14.6646,-0.66365 -14.9722,6.84504 -29.6364,6.1813 -14.6638,-0.66365 -14.3559,-8.17259 -29.0201,-8.83599 -14.6625,-0.66365 -14.9705,6.84545 -29.6326,6.18172 -14.6638,-0.66365 -14.3558,-8.1726 -29.0201,-8.836 -14.6645,-0.66365 -14.9722,6.84504 -29.6364,6.18131 -14.6639,-0.66366 -14.3566,-8.1726 -29.0204,-8.836 -14.6633,-0.66365 -14.9712,6.84537 -29.6344,6.18164 -14.6631,-0.66365 -14.3552,-8.1726 -29.0183,-8.836 -14.6629,-0.66365 -14.9709,6.84546 -29.6337,6.18172 -14.6632,-0.66365 -14.3555,-8.17259 -29.0187,-8.836 -14.6624,-0.66365 -14.9704,6.84504 -29.6325,6.18164 -14.664,-0.66365 -14.356,-8.17259 -29.0202,-8.83599 -14.6624,-0.66366 -14.9704,6.84504 -29.6325,6.18163 -14.6618,-0.66365 -14.3538,-8.17251 -29.0156,-8.83591 -14.6615,-0.66365 -14.9694,6.84504 -29.6309,6.18164 -14.661,-0.66365 -14.3534,-8.1726 -29.0145,-8.836 -14.6617,-0.66365 -14.9694,6.84546 -29.6315,6.18164 -14.6631,-0.66365 -14.3552,-8.17251 -29.01866,-8.83591 -14.66281,-0.66366 -14.97045,6.84537 -29.633,6.18163 -14.6635,-0.66365 -14.35552,-8.17259 -29.01902,-8.83599 -14.66246,-0.66366 -14.97044,6.84545 -29.63291,6.18163 -14.66246,-0.66365 -14.35483,-8.17251 -29.0173,-8.83591 -14.66281,-0.66365 -14.97044,6.84504 -29.63299,6.18122 -14.66316,-0.66365 -14.35518,-8.17251 -29.01833,-8.83591 -14.66316,-0.66365 -14.97079,6.84504 -29.63394,6.18122 -14.66324,-0.66365 -14.35561,-8.17251 -29.01842,-8.83591 -9.66051,-0.43688 -12.95659,2.09459 -18.27389,4.0642 l 0,84.88563 c 5.39249,0.0975 8.97803,-0.29347 18.66658,-1.8453 z"
       id="path4606" />
  </g>
</svg>
